G75*
%MOIN*%
%OFA0B0*%
%FSLAX25Y25*%
%IPPOS*%
%LPD*%
%AMOC8*
5,1,8,0,0,1.08239X$1,22.5*
%
%ADD10C,0.01600*%
%ADD11C,0.27559*%
%ADD12C,0.01969*%
%ADD13C,0.02400*%
%ADD14R,0.05800X0.03000*%
%ADD15R,0.03000X0.05800*%
%ADD16C,0.16800*%
%ADD17C,0.00800*%
%ADD18C,0.01421*%
%ADD19R,0.04737X0.05131*%
%ADD20R,0.08200X0.08200*%
%ADD21OC8,0.08200*%
%ADD22R,0.10643X0.05524*%
%ADD23C,0.02572*%
%ADD24R,0.06040X0.13760*%
%ADD25R,0.04737X0.12611*%
%ADD26C,0.06312*%
%ADD27R,0.06800X0.03800*%
%ADD28C,0.03300*%
D10*
X0116441Y0127743D02*
X0116322Y0127544D01*
X0116207Y0127342D01*
X0116098Y0127137D01*
X0115993Y0126930D01*
X0115894Y0126720D01*
X0115799Y0126508D01*
X0115710Y0126293D01*
X0115626Y0126076D01*
X0115548Y0125858D01*
X0115475Y0125637D01*
X0115407Y0125415D01*
X0115345Y0125192D01*
X0115288Y0124966D01*
X0115236Y0124740D01*
X0115191Y0124512D01*
X0115150Y0124283D01*
X0115116Y0124054D01*
X0115087Y0123823D01*
X0115063Y0123592D01*
X0115046Y0123361D01*
X0115034Y0123129D01*
X0115027Y0122897D01*
X0115026Y0122664D01*
X0115031Y0122432D01*
X0115042Y0122200D01*
X0115058Y0121968D01*
X0115080Y0121737D01*
X0115108Y0121507D01*
X0115141Y0121277D01*
X0115180Y0121048D01*
X0115224Y0120820D01*
X0115274Y0120593D01*
X0115329Y0120367D01*
X0115390Y0120143D01*
X0115456Y0119921D01*
X0115528Y0119700D01*
X0115605Y0119481D01*
X0115688Y0119264D01*
X0115776Y0119049D01*
X0115869Y0118836D01*
X0115967Y0118625D01*
X0116070Y0118417D01*
X0116178Y0118212D01*
X0116291Y0118009D01*
X0116410Y0117809D01*
X0116533Y0117612D01*
X0116661Y0117418D01*
X0116793Y0117227D01*
X0116930Y0117040D01*
X0117072Y0116856D01*
X0117218Y0116675D01*
X0117368Y0116498D01*
X0117523Y0116325D01*
X0117682Y0116156D01*
X0117845Y0115990D01*
X0118012Y0115829D01*
X0118183Y0115672D01*
X0118358Y0115519D01*
X0118536Y0115370D01*
X0118718Y0115225D01*
X0118903Y0115086D01*
X0119092Y0114950D01*
X0119284Y0114820D01*
X0119479Y0114694D01*
X0119677Y0114572D01*
X0119878Y0114456D01*
X0120082Y0114345D01*
X0120289Y0114239D01*
X0120498Y0114137D01*
X0120709Y0114041D01*
X0120923Y0113950D01*
X0121139Y0113865D01*
X0121357Y0113784D01*
X0121577Y0113709D01*
X0121798Y0113640D01*
X0122021Y0113575D01*
X0122246Y0113517D01*
X0122472Y0113463D01*
X0122699Y0113416D01*
X0122928Y0113374D01*
X0123157Y0113337D01*
X0123387Y0113306D01*
X0123618Y0113281D01*
X0123850Y0113261D01*
X0124082Y0113247D01*
X0124314Y0113239D01*
X0124546Y0113236D01*
X0124778Y0113239D01*
X0125010Y0113248D01*
X0125242Y0113262D01*
X0125473Y0113282D01*
X0125704Y0113308D01*
X0125934Y0113339D01*
X0126164Y0113376D01*
X0126392Y0113418D01*
X0126619Y0113466D01*
X0126845Y0113520D01*
X0127070Y0113579D01*
X0127293Y0113643D01*
X0127515Y0113713D01*
X0127734Y0113788D01*
X0127952Y0113869D01*
X0128168Y0113955D01*
X0128381Y0114046D01*
X0128593Y0114142D01*
X0128802Y0114244D01*
X0129008Y0114350D01*
X0129212Y0114462D01*
X0129413Y0114579D01*
X0129611Y0114700D01*
X0129806Y0114826D01*
X0129998Y0114957D01*
X0130186Y0115093D01*
X0130371Y0115233D01*
X0130553Y0115377D01*
X0130731Y0115526D01*
X0130906Y0115679D01*
X0131077Y0115837D01*
X0131243Y0115999D01*
X0131406Y0116164D01*
X0131565Y0116334D01*
X0131719Y0116507D01*
X0131870Y0116684D01*
X0132016Y0116865D01*
X0132157Y0117049D01*
X0132294Y0117237D01*
X0132426Y0117428D01*
X0132368Y0117201D01*
X0132317Y0116973D01*
X0132271Y0116743D01*
X0132230Y0116513D01*
X0132195Y0116281D01*
X0132166Y0116049D01*
X0132143Y0115816D01*
X0132125Y0115583D01*
X0132113Y0115349D01*
X0132107Y0115115D01*
X0132107Y0114881D01*
X0132112Y0114647D01*
X0132123Y0114413D01*
X0132140Y0114180D01*
X0132162Y0113947D01*
X0132190Y0113714D01*
X0132224Y0113483D01*
X0132264Y0113252D01*
X0132309Y0113022D01*
X0132360Y0112794D01*
X0132416Y0112566D01*
X0132478Y0112341D01*
X0132546Y0112117D01*
X0132619Y0111894D01*
X0132697Y0111674D01*
X0132781Y0111455D01*
X0132870Y0111239D01*
X0132964Y0111024D01*
X0133064Y0110813D01*
X0133169Y0110603D01*
X0133279Y0110397D01*
X0133394Y0110193D01*
X0133514Y0109992D01*
X0133638Y0109794D01*
X0133768Y0109599D01*
X0133902Y0109407D01*
X0134041Y0109219D01*
X0134185Y0109034D01*
X0134333Y0108853D01*
X0134486Y0108675D01*
X0134642Y0108501D01*
X0134804Y0108331D01*
X0134969Y0108165D01*
X0135138Y0108004D01*
X0135311Y0107846D01*
X0135488Y0107693D01*
X0135669Y0107544D01*
X0135853Y0107399D01*
X0136040Y0107260D01*
X0136232Y0107124D01*
X0136426Y0106994D01*
X0136623Y0106868D01*
X0136824Y0106747D01*
X0137027Y0106632D01*
X0137234Y0106521D01*
X0137442Y0106415D01*
X0137654Y0106315D01*
X0137868Y0106219D01*
X0138084Y0106129D01*
X0138302Y0106044D01*
X0138522Y0105965D01*
X0138744Y0105891D01*
X0138968Y0105823D01*
X0139193Y0105760D01*
X0139420Y0105702D01*
X0139649Y0105650D01*
X0139878Y0105604D01*
X0140109Y0105564D01*
X0140340Y0105529D01*
X0140572Y0105500D01*
X0140805Y0105476D01*
X0141039Y0105458D01*
X0141273Y0105446D01*
X0141507Y0105440D01*
X0141741Y0105439D01*
X0141975Y0105445D01*
X0142208Y0105456D01*
X0142442Y0105472D01*
X0142675Y0105495D01*
X0142907Y0105523D01*
X0143139Y0105557D01*
X0143370Y0105596D01*
X0143599Y0105641D01*
X0143828Y0105692D01*
X0144055Y0105748D01*
X0144281Y0105810D01*
X0144505Y0105878D01*
X0144728Y0105950D01*
X0144948Y0106029D01*
X0145167Y0106112D01*
X0145383Y0106202D01*
X0145597Y0106296D01*
X0145809Y0106395D01*
X0146019Y0106500D01*
X0146225Y0106610D01*
X0146429Y0106725D01*
X0146630Y0106845D01*
X0146829Y0106969D01*
X0147023Y0107099D01*
X0147215Y0107233D01*
X0147404Y0107372D01*
X0147588Y0107516D01*
X0147770Y0107664D01*
X0147947Y0107816D01*
X0148121Y0107973D01*
X0148291Y0108134D01*
X0148457Y0108299D01*
X0148619Y0108468D01*
X0148777Y0108641D01*
X0148930Y0108818D01*
X0149079Y0108999D01*
X0149223Y0109183D01*
X0149363Y0109371D01*
X0149499Y0109562D01*
X0149629Y0109756D01*
X0149755Y0109953D01*
X0149876Y0110154D01*
X0149992Y0110357D01*
X0150103Y0110563D01*
X0150208Y0110772D01*
X0150309Y0110984D01*
X0150404Y0111197D01*
X0150495Y0111413D01*
X0150579Y0111632D01*
X0150659Y0111852D01*
X0150733Y0112074D01*
X0150732Y0112073D02*
X0150740Y0111841D01*
X0150753Y0111608D01*
X0150772Y0111377D01*
X0150797Y0111145D01*
X0150827Y0110915D01*
X0150863Y0110685D01*
X0150905Y0110456D01*
X0150952Y0110228D01*
X0151004Y0110002D01*
X0151063Y0109776D01*
X0151126Y0109553D01*
X0151195Y0109331D01*
X0151270Y0109110D01*
X0151350Y0108892D01*
X0151435Y0108675D01*
X0151525Y0108461D01*
X0151621Y0108249D01*
X0151722Y0108039D01*
X0151827Y0107832D01*
X0151938Y0107628D01*
X0152054Y0107426D01*
X0152175Y0107227D01*
X0152300Y0107031D01*
X0152431Y0106839D01*
X0152566Y0106649D01*
X0152705Y0106463D01*
X0152849Y0106280D01*
X0152998Y0106101D01*
X0153150Y0105926D01*
X0153307Y0105754D01*
X0153468Y0105587D01*
X0153634Y0105423D01*
X0153803Y0105263D01*
X0153976Y0105108D01*
X0154152Y0104956D01*
X0154333Y0104809D01*
X0154517Y0104667D01*
X0154704Y0104529D01*
X0154895Y0104396D01*
X0155088Y0104267D01*
X0155285Y0104143D01*
X0155485Y0104024D01*
X0155688Y0103910D01*
X0155893Y0103801D01*
X0156101Y0103697D01*
X0156312Y0103598D01*
X0156525Y0103504D01*
X0156740Y0103416D01*
X0156957Y0103333D01*
X0157176Y0103255D01*
X0157397Y0103182D01*
X0157620Y0103115D01*
X0157844Y0103053D01*
X0158070Y0102997D01*
X0158297Y0102946D01*
X0158525Y0102901D01*
X0158754Y0102862D01*
X0158984Y0102828D01*
X0159215Y0102799D01*
X0159447Y0102777D01*
X0159679Y0102760D01*
X0159911Y0102748D01*
X0160144Y0102743D01*
X0160376Y0102743D01*
X0160609Y0102748D01*
X0160841Y0102760D01*
X0161073Y0102777D01*
X0161305Y0102799D01*
X0161536Y0102828D01*
X0161766Y0102862D01*
X0161995Y0102901D01*
X0162223Y0102946D01*
X0162450Y0102997D01*
X0162676Y0103053D01*
X0162900Y0103115D01*
X0163123Y0103182D01*
X0163344Y0103255D01*
X0163563Y0103333D01*
X0163780Y0103416D01*
X0163995Y0103504D01*
X0164208Y0103598D01*
X0164419Y0103697D01*
X0164627Y0103801D01*
X0164832Y0103910D01*
X0165035Y0104024D01*
X0165235Y0104143D01*
X0165432Y0104267D01*
X0165625Y0104396D01*
X0165816Y0104529D01*
X0166003Y0104667D01*
X0166187Y0104809D01*
X0166368Y0104956D01*
X0166544Y0105108D01*
X0166717Y0105263D01*
X0166886Y0105423D01*
X0167052Y0105587D01*
X0167213Y0105754D01*
X0167370Y0105926D01*
X0167522Y0106101D01*
X0167671Y0106280D01*
X0167815Y0106463D01*
X0167954Y0106649D01*
X0168089Y0106839D01*
X0168220Y0107031D01*
X0168345Y0107227D01*
X0168466Y0107426D01*
X0168582Y0107628D01*
X0168693Y0107832D01*
X0168798Y0108039D01*
X0168899Y0108249D01*
X0168995Y0108461D01*
X0169085Y0108675D01*
X0169170Y0108892D01*
X0169250Y0109110D01*
X0169325Y0109331D01*
X0169394Y0109553D01*
X0169457Y0109776D01*
X0169516Y0110002D01*
X0169568Y0110228D01*
X0169615Y0110456D01*
X0169657Y0110685D01*
X0169693Y0110915D01*
X0169723Y0111145D01*
X0169748Y0111377D01*
X0169767Y0111608D01*
X0169780Y0111841D01*
X0169788Y0112073D01*
X0169861Y0111852D01*
X0169939Y0111633D01*
X0170022Y0111415D01*
X0170111Y0111200D01*
X0170205Y0110987D01*
X0170304Y0110776D01*
X0170408Y0110568D01*
X0170517Y0110362D01*
X0170631Y0110159D01*
X0170751Y0109959D01*
X0170875Y0109762D01*
X0171003Y0109568D01*
X0171137Y0109377D01*
X0171275Y0109189D01*
X0171417Y0109005D01*
X0171564Y0108825D01*
X0171716Y0108648D01*
X0171872Y0108475D01*
X0172031Y0108305D01*
X0172195Y0108140D01*
X0172363Y0107978D01*
X0172535Y0107821D01*
X0172711Y0107668D01*
X0172890Y0107520D01*
X0173073Y0107376D01*
X0173259Y0107236D01*
X0173449Y0107101D01*
X0173642Y0106970D01*
X0173838Y0106845D01*
X0174037Y0106724D01*
X0174239Y0106608D01*
X0174444Y0106497D01*
X0174651Y0106391D01*
X0174861Y0106290D01*
X0175073Y0106194D01*
X0175288Y0106104D01*
X0175505Y0106019D01*
X0175724Y0105939D01*
X0175944Y0105864D01*
X0176167Y0105795D01*
X0176391Y0105731D01*
X0176616Y0105673D01*
X0176843Y0105621D01*
X0177071Y0105573D01*
X0177300Y0105532D01*
X0177530Y0105496D01*
X0177761Y0105466D01*
X0177993Y0105441D01*
X0178225Y0105422D01*
X0178457Y0105409D01*
X0178690Y0105401D01*
X0178923Y0105399D01*
X0179156Y0105403D01*
X0179389Y0105412D01*
X0179621Y0105427D01*
X0179853Y0105448D01*
X0180084Y0105474D01*
X0180315Y0105506D01*
X0180545Y0105544D01*
X0180774Y0105587D01*
X0181001Y0105636D01*
X0181228Y0105691D01*
X0181453Y0105751D01*
X0181676Y0105816D01*
X0181898Y0105887D01*
X0182118Y0105963D01*
X0182336Y0106044D01*
X0182552Y0106131D01*
X0182766Y0106223D01*
X0182978Y0106321D01*
X0183187Y0106423D01*
X0183394Y0106531D01*
X0183598Y0106643D01*
X0183799Y0106761D01*
X0183997Y0106883D01*
X0184192Y0107010D01*
X0184384Y0107142D01*
X0184573Y0107279D01*
X0184758Y0107420D01*
X0184940Y0107565D01*
X0185118Y0107715D01*
X0185292Y0107869D01*
X0185463Y0108028D01*
X0185630Y0108190D01*
X0185792Y0108357D01*
X0185951Y0108528D01*
X0186105Y0108702D01*
X0186255Y0108880D01*
X0186401Y0109062D01*
X0186542Y0109247D01*
X0186679Y0109435D01*
X0186811Y0109627D01*
X0186938Y0109822D01*
X0187061Y0110020D01*
X0187178Y0110221D01*
X0187291Y0110425D01*
X0187399Y0110632D01*
X0187501Y0110841D01*
X0187599Y0111052D01*
X0187691Y0111266D01*
X0187778Y0111482D01*
X0187860Y0111700D01*
X0187936Y0111920D01*
X0188007Y0112142D01*
X0188073Y0112366D01*
X0188133Y0112591D01*
X0188187Y0112817D01*
X0188236Y0113045D01*
X0188280Y0113273D01*
X0188317Y0113503D01*
X0188350Y0113734D01*
X0188376Y0113965D01*
X0188397Y0114197D01*
X0188412Y0114430D01*
X0188422Y0114662D01*
X0188426Y0114895D01*
X0188424Y0115128D01*
X0188417Y0115361D01*
X0188403Y0115593D01*
X0188385Y0115825D01*
X0188360Y0116057D01*
X0188330Y0116288D01*
X0188294Y0116518D01*
X0188253Y0116747D01*
X0188206Y0116975D01*
X0188153Y0117202D01*
X0188095Y0117428D01*
X0188095Y0117427D02*
X0188223Y0117234D01*
X0188356Y0117044D01*
X0188493Y0116857D01*
X0188634Y0116673D01*
X0188780Y0116493D01*
X0188931Y0116317D01*
X0189085Y0116144D01*
X0189244Y0115975D01*
X0189407Y0115810D01*
X0189574Y0115649D01*
X0189745Y0115492D01*
X0189919Y0115340D01*
X0190097Y0115191D01*
X0190279Y0115047D01*
X0190464Y0114908D01*
X0190653Y0114773D01*
X0190845Y0114643D01*
X0191039Y0114517D01*
X0191237Y0114396D01*
X0191438Y0114280D01*
X0191642Y0114169D01*
X0191848Y0114063D01*
X0192056Y0113962D01*
X0192267Y0113867D01*
X0192481Y0113776D01*
X0192696Y0113691D01*
X0192914Y0113610D01*
X0193133Y0113536D01*
X0193354Y0113466D01*
X0193577Y0113402D01*
X0193802Y0113343D01*
X0194027Y0113290D01*
X0194254Y0113243D01*
X0194482Y0113201D01*
X0194711Y0113164D01*
X0194941Y0113133D01*
X0195171Y0113108D01*
X0195402Y0113088D01*
X0195634Y0113074D01*
X0195865Y0113066D01*
X0196097Y0113063D01*
X0196329Y0113066D01*
X0196561Y0113074D01*
X0196792Y0113089D01*
X0197023Y0113108D01*
X0197253Y0113134D01*
X0197483Y0113165D01*
X0197712Y0113202D01*
X0197940Y0113244D01*
X0198167Y0113292D01*
X0198392Y0113345D01*
X0198617Y0113404D01*
X0198839Y0113468D01*
X0199061Y0113537D01*
X0199280Y0113612D01*
X0199497Y0113693D01*
X0199713Y0113778D01*
X0199926Y0113869D01*
X0200137Y0113965D01*
X0200346Y0114066D01*
X0200552Y0114172D01*
X0200755Y0114283D01*
X0200956Y0114400D01*
X0201154Y0114520D01*
X0201349Y0114646D01*
X0201540Y0114777D01*
X0201729Y0114912D01*
X0201914Y0115051D01*
X0202095Y0115195D01*
X0202273Y0115344D01*
X0202448Y0115496D01*
X0202619Y0115653D01*
X0202785Y0115814D01*
X0202948Y0115980D01*
X0203107Y0116148D01*
X0203261Y0116321D01*
X0203412Y0116498D01*
X0203557Y0116678D01*
X0203699Y0116862D01*
X0203836Y0117049D01*
X0203968Y0117239D01*
X0204096Y0117432D01*
X0204219Y0117629D01*
X0204337Y0117828D01*
X0204450Y0118031D01*
X0204559Y0118236D01*
X0204662Y0118443D01*
X0204760Y0118653D01*
X0204853Y0118866D01*
X0204941Y0119080D01*
X0205023Y0119297D01*
X0205101Y0119515D01*
X0205172Y0119736D01*
X0205239Y0119958D01*
X0205300Y0120182D01*
X0205356Y0120407D01*
X0205406Y0120633D01*
X0205450Y0120860D01*
X0205489Y0121089D01*
X0205523Y0121318D01*
X0205550Y0121549D01*
X0205573Y0121779D01*
X0205589Y0122011D01*
X0205600Y0122242D01*
X0205605Y0122474D01*
X0205605Y0122706D01*
X0205599Y0122937D01*
X0205587Y0123169D01*
X0205570Y0123400D01*
X0205547Y0123631D01*
X0205519Y0123861D01*
X0205485Y0124090D01*
X0205445Y0124319D01*
X0205400Y0124546D01*
X0205349Y0124772D01*
X0205292Y0124997D01*
X0205231Y0125221D01*
X0205164Y0125442D01*
X0205091Y0125663D01*
X0205013Y0125881D01*
X0204930Y0126097D01*
X0204841Y0126312D01*
X0204748Y0126524D01*
X0204649Y0126733D01*
X0204545Y0126941D01*
X0204436Y0127145D01*
X0204322Y0127347D01*
X0204204Y0127546D01*
X0204080Y0127742D01*
X0204080Y0127743D02*
X0204262Y0127596D01*
X0204448Y0127454D01*
X0204638Y0127317D01*
X0204830Y0127184D01*
X0205026Y0127056D01*
X0205225Y0126933D01*
X0205427Y0126815D01*
X0205632Y0126702D01*
X0205839Y0126594D01*
X0206049Y0126491D01*
X0206262Y0126393D01*
X0206477Y0126301D01*
X0206694Y0126214D01*
X0206913Y0126132D01*
X0207134Y0126055D01*
X0207357Y0125984D01*
X0207582Y0125919D01*
X0207808Y0125859D01*
X0208035Y0125804D01*
X0208264Y0125755D01*
X0208494Y0125712D01*
X0208725Y0125675D01*
X0208956Y0125643D01*
X0209189Y0125617D01*
X0209422Y0125596D01*
X0209655Y0125581D01*
X0209889Y0125572D01*
X0210123Y0125569D01*
X0210357Y0125571D01*
X0210591Y0125580D01*
X0210824Y0125594D01*
X0211057Y0125613D01*
X0211290Y0125639D01*
X0211522Y0125670D01*
X0211753Y0125706D01*
X0211983Y0125749D01*
X0212212Y0125797D01*
X0212440Y0125850D01*
X0212666Y0125910D01*
X0212891Y0125974D01*
X0213114Y0126045D01*
X0213335Y0126120D01*
X0213555Y0126201D01*
X0213772Y0126288D01*
X0213987Y0126380D01*
X0214200Y0126477D01*
X0214410Y0126579D01*
X0214618Y0126686D01*
X0214823Y0126799D01*
X0215026Y0126916D01*
X0215225Y0127038D01*
X0215421Y0127166D01*
X0215615Y0127297D01*
X0215804Y0127434D01*
X0215991Y0127575D01*
X0216174Y0127721D01*
X0216353Y0127872D01*
X0216529Y0128026D01*
X0216700Y0128185D01*
X0216868Y0128348D01*
X0217032Y0128515D01*
X0217191Y0128686D01*
X0217347Y0128861D01*
X0217498Y0129040D01*
X0217644Y0129222D01*
X0217786Y0129408D01*
X0217924Y0129597D01*
X0218056Y0129790D01*
X0218184Y0129986D01*
X0218307Y0130185D01*
X0218426Y0130387D01*
X0218539Y0130591D01*
X0218647Y0130799D01*
X0218750Y0131009D01*
X0218848Y0131221D01*
X0218941Y0131436D01*
X0219028Y0131653D01*
X0219110Y0131872D01*
X0219186Y0132093D01*
X0219258Y0132316D01*
X0219323Y0132541D01*
X0219383Y0132767D01*
X0219438Y0132994D01*
X0219487Y0133223D01*
X0219530Y0133453D01*
X0219568Y0133684D01*
X0219600Y0133915D01*
X0219626Y0134148D01*
X0219647Y0134381D01*
X0219661Y0134614D01*
X0219671Y0134848D01*
X0219674Y0135082D01*
X0219672Y0135316D01*
X0219664Y0135550D01*
X0219650Y0135783D01*
X0219630Y0136016D01*
X0219605Y0136249D01*
X0219574Y0136481D01*
X0219537Y0136712D01*
X0219495Y0136942D01*
X0219447Y0137171D01*
X0219394Y0137399D01*
X0219334Y0137625D01*
X0219270Y0137850D01*
X0219200Y0138073D01*
X0219124Y0138294D01*
X0219043Y0138514D01*
X0218957Y0138731D01*
X0218865Y0138946D01*
X0218768Y0139159D01*
X0218666Y0139370D01*
X0218559Y0139578D01*
X0218446Y0139783D01*
X0218329Y0139985D01*
X0218207Y0140185D01*
X0218080Y0140381D01*
X0217948Y0140574D01*
X0217811Y0140764D01*
X0217670Y0140951D01*
X0217524Y0141134D01*
X0217374Y0141313D01*
X0217220Y0141489D01*
X0217061Y0141660D01*
X0216898Y0141828D01*
X0216731Y0141992D01*
X0216560Y0142152D01*
X0216559Y0142152D02*
X0216774Y0142061D01*
X0216991Y0141977D01*
X0217209Y0141897D01*
X0217430Y0141823D01*
X0217652Y0141754D01*
X0217876Y0141691D01*
X0218102Y0141633D01*
X0218328Y0141581D01*
X0218556Y0141534D01*
X0218785Y0141493D01*
X0219015Y0141457D01*
X0219246Y0141427D01*
X0219478Y0141403D01*
X0219710Y0141384D01*
X0219942Y0141371D01*
X0220175Y0141364D01*
X0220407Y0141362D01*
X0220640Y0141366D01*
X0220873Y0141376D01*
X0221105Y0141391D01*
X0221337Y0141412D01*
X0221568Y0141439D01*
X0221798Y0141471D01*
X0222028Y0141509D01*
X0222256Y0141553D01*
X0222484Y0141602D01*
X0222710Y0141657D01*
X0222935Y0141717D01*
X0223158Y0141783D01*
X0223380Y0141854D01*
X0223600Y0141930D01*
X0223818Y0142012D01*
X0224033Y0142099D01*
X0224247Y0142191D01*
X0224458Y0142289D01*
X0224667Y0142392D01*
X0224873Y0142499D01*
X0225077Y0142612D01*
X0225278Y0142730D01*
X0225476Y0142852D01*
X0225671Y0142980D01*
X0225862Y0143112D01*
X0226051Y0143248D01*
X0226236Y0143389D01*
X0226417Y0143535D01*
X0226595Y0143685D01*
X0226769Y0143840D01*
X0226939Y0143998D01*
X0227106Y0144161D01*
X0227268Y0144328D01*
X0227426Y0144498D01*
X0227580Y0144673D01*
X0227730Y0144851D01*
X0227875Y0145033D01*
X0228016Y0145218D01*
X0228153Y0145407D01*
X0228284Y0145599D01*
X0228411Y0145794D01*
X0228533Y0145992D01*
X0228651Y0146193D01*
X0228763Y0146397D01*
X0228870Y0146603D01*
X0228972Y0146812D01*
X0229070Y0147024D01*
X0229161Y0147237D01*
X0229248Y0147453D01*
X0229329Y0147671D01*
X0229405Y0147891D01*
X0229476Y0148113D01*
X0229541Y0148337D01*
X0229601Y0148562D01*
X0229655Y0148788D01*
X0229704Y0149015D01*
X0229747Y0149244D01*
X0229784Y0149474D01*
X0229816Y0149704D01*
X0229843Y0149936D01*
X0229863Y0150167D01*
X0229878Y0150400D01*
X0229887Y0150632D01*
X0229891Y0150865D01*
X0229889Y0151098D01*
X0229881Y0151330D01*
X0229868Y0151563D01*
X0229848Y0151795D01*
X0229824Y0152026D01*
X0229793Y0152257D01*
X0229757Y0152487D01*
X0229716Y0152716D01*
X0229668Y0152943D01*
X0229616Y0153170D01*
X0229557Y0153395D01*
X0229493Y0153619D01*
X0229424Y0153841D01*
X0229350Y0154062D01*
X0229270Y0154280D01*
X0229184Y0154497D01*
X0229094Y0154711D01*
X0228998Y0154923D01*
X0228897Y0155133D01*
X0228791Y0155340D01*
X0228680Y0155545D01*
X0228564Y0155747D01*
X0228443Y0155946D01*
X0228317Y0156141D01*
X0228187Y0156334D01*
X0228052Y0156524D01*
X0227912Y0156710D01*
X0227768Y0156892D01*
X0227619Y0157072D01*
X0227467Y0157247D01*
X0227309Y0157419D01*
X0227148Y0157586D01*
X0226983Y0157750D01*
X0226813Y0157910D01*
X0226640Y0158065D01*
X0226463Y0158216D01*
X0226283Y0158363D01*
X0226099Y0158506D01*
X0225911Y0158644D01*
X0225720Y0158777D01*
X0225526Y0158905D01*
X0225329Y0159029D01*
X0225129Y0159148D01*
X0224926Y0159262D01*
X0224721Y0159371D01*
X0224513Y0159475D01*
X0224512Y0159474D02*
X0224745Y0159450D01*
X0224978Y0159431D01*
X0225211Y0159419D01*
X0225445Y0159412D01*
X0225679Y0159410D01*
X0225912Y0159415D01*
X0226146Y0159425D01*
X0226379Y0159441D01*
X0226612Y0159462D01*
X0226844Y0159489D01*
X0227076Y0159522D01*
X0227306Y0159561D01*
X0227536Y0159605D01*
X0227764Y0159655D01*
X0227991Y0159711D01*
X0228217Y0159772D01*
X0228441Y0159838D01*
X0228663Y0159910D01*
X0228884Y0159988D01*
X0229103Y0160071D01*
X0229319Y0160159D01*
X0229533Y0160252D01*
X0229745Y0160351D01*
X0229955Y0160455D01*
X0230162Y0160564D01*
X0230366Y0160678D01*
X0230567Y0160797D01*
X0230765Y0160921D01*
X0230960Y0161050D01*
X0231152Y0161183D01*
X0231341Y0161321D01*
X0231526Y0161464D01*
X0231708Y0161611D01*
X0231886Y0161763D01*
X0232060Y0161919D01*
X0232230Y0162079D01*
X0232396Y0162243D01*
X0232558Y0162412D01*
X0232716Y0162584D01*
X0232870Y0162760D01*
X0233020Y0162940D01*
X0233165Y0163123D01*
X0233305Y0163310D01*
X0233441Y0163501D01*
X0233572Y0163694D01*
X0233698Y0163891D01*
X0233819Y0164091D01*
X0233936Y0164293D01*
X0234047Y0164499D01*
X0234154Y0164707D01*
X0234255Y0164918D01*
X0234351Y0165131D01*
X0234442Y0165347D01*
X0234527Y0165564D01*
X0234607Y0165784D01*
X0234682Y0166005D01*
X0234751Y0166229D01*
X0234815Y0166454D01*
X0234873Y0166680D01*
X0234925Y0166908D01*
X0234972Y0167137D01*
X0235014Y0167367D01*
X0235049Y0167598D01*
X0235079Y0167830D01*
X0235104Y0168062D01*
X0235122Y0168295D01*
X0235135Y0168529D01*
X0235142Y0168762D01*
X0235144Y0168996D01*
X0235139Y0169230D01*
X0235129Y0169464D01*
X0235114Y0169697D01*
X0235092Y0169930D01*
X0235065Y0170162D01*
X0235032Y0170393D01*
X0234993Y0170624D01*
X0234949Y0170853D01*
X0234899Y0171082D01*
X0234844Y0171309D01*
X0234783Y0171535D01*
X0234717Y0171759D01*
X0234645Y0171981D01*
X0234567Y0172202D01*
X0234484Y0172420D01*
X0234396Y0172637D01*
X0234303Y0172851D01*
X0234204Y0173063D01*
X0234100Y0173273D01*
X0233991Y0173479D01*
X0233877Y0173684D01*
X0233758Y0173885D01*
X0233635Y0174083D01*
X0233506Y0174278D01*
X0233372Y0174470D01*
X0233234Y0174659D01*
X0233092Y0174844D01*
X0232944Y0175026D01*
X0232793Y0175204D01*
X0232637Y0175378D01*
X0232477Y0175548D01*
X0232312Y0175715D01*
X0232144Y0175877D01*
X0231972Y0176035D01*
X0231796Y0176189D01*
X0231616Y0176338D01*
X0231433Y0176483D01*
X0231246Y0176623D01*
X0231055Y0176759D01*
X0230862Y0176890D01*
X0230665Y0177017D01*
X0230465Y0177138D01*
X0230263Y0177255D01*
X0230057Y0177366D01*
X0229849Y0177472D01*
X0229638Y0177574D01*
X0229425Y0177670D01*
X0229210Y0177761D01*
X0228992Y0177846D01*
X0228773Y0177926D01*
X0228551Y0178001D01*
X0228328Y0178070D01*
X0228103Y0178134D01*
X0227876Y0178192D01*
X0227649Y0178245D01*
X0227420Y0178292D01*
X0227190Y0178333D01*
X0227420Y0178374D01*
X0227649Y0178421D01*
X0227876Y0178474D01*
X0228103Y0178532D01*
X0228328Y0178596D01*
X0228551Y0178665D01*
X0228773Y0178740D01*
X0228992Y0178820D01*
X0229210Y0178905D01*
X0229425Y0178996D01*
X0229638Y0179092D01*
X0229849Y0179194D01*
X0230057Y0179300D01*
X0230263Y0179411D01*
X0230465Y0179528D01*
X0230665Y0179649D01*
X0230862Y0179776D01*
X0231055Y0179907D01*
X0231246Y0180043D01*
X0231433Y0180183D01*
X0231616Y0180328D01*
X0231796Y0180477D01*
X0231972Y0180631D01*
X0232144Y0180789D01*
X0232312Y0180951D01*
X0232477Y0181118D01*
X0232637Y0181288D01*
X0232793Y0181462D01*
X0232944Y0181640D01*
X0233092Y0181822D01*
X0233234Y0182007D01*
X0233372Y0182196D01*
X0233506Y0182388D01*
X0233635Y0182583D01*
X0233758Y0182781D01*
X0233877Y0182982D01*
X0233991Y0183187D01*
X0234100Y0183393D01*
X0234204Y0183603D01*
X0234303Y0183815D01*
X0234396Y0184029D01*
X0234484Y0184246D01*
X0234567Y0184464D01*
X0234645Y0184685D01*
X0234717Y0184907D01*
X0234783Y0185131D01*
X0234844Y0185357D01*
X0234899Y0185584D01*
X0234949Y0185813D01*
X0234993Y0186042D01*
X0235032Y0186273D01*
X0235065Y0186504D01*
X0235092Y0186736D01*
X0235114Y0186969D01*
X0235129Y0187202D01*
X0235139Y0187436D01*
X0235144Y0187670D01*
X0235142Y0187904D01*
X0235135Y0188137D01*
X0235122Y0188371D01*
X0235104Y0188604D01*
X0235079Y0188836D01*
X0235049Y0189068D01*
X0235014Y0189299D01*
X0234972Y0189529D01*
X0234925Y0189758D01*
X0234873Y0189986D01*
X0234815Y0190212D01*
X0234751Y0190437D01*
X0234682Y0190661D01*
X0234607Y0190882D01*
X0234527Y0191102D01*
X0234442Y0191319D01*
X0234351Y0191535D01*
X0234255Y0191748D01*
X0234154Y0191959D01*
X0234047Y0192167D01*
X0233936Y0192373D01*
X0233819Y0192575D01*
X0233698Y0192775D01*
X0233572Y0192972D01*
X0233441Y0193165D01*
X0233305Y0193356D01*
X0233165Y0193543D01*
X0233020Y0193726D01*
X0232870Y0193906D01*
X0232716Y0194082D01*
X0232558Y0194254D01*
X0232396Y0194423D01*
X0232230Y0194587D01*
X0232060Y0194747D01*
X0231886Y0194903D01*
X0231708Y0195055D01*
X0231526Y0195202D01*
X0231341Y0195345D01*
X0231152Y0195483D01*
X0230960Y0195616D01*
X0230765Y0195745D01*
X0230567Y0195869D01*
X0230366Y0195988D01*
X0230162Y0196102D01*
X0229955Y0196211D01*
X0229745Y0196315D01*
X0229533Y0196414D01*
X0229319Y0196507D01*
X0229103Y0196595D01*
X0228884Y0196678D01*
X0228663Y0196756D01*
X0228441Y0196828D01*
X0228217Y0196894D01*
X0227991Y0196955D01*
X0227764Y0197011D01*
X0227536Y0197061D01*
X0227306Y0197105D01*
X0227076Y0197144D01*
X0226844Y0197177D01*
X0226612Y0197204D01*
X0226379Y0197225D01*
X0226146Y0197241D01*
X0225912Y0197251D01*
X0225679Y0197256D01*
X0225445Y0197254D01*
X0225211Y0197247D01*
X0224978Y0197235D01*
X0224745Y0197216D01*
X0224512Y0197192D01*
X0224512Y0197191D02*
X0224723Y0197292D01*
X0224931Y0197398D01*
X0225136Y0197509D01*
X0225338Y0197625D01*
X0225538Y0197746D01*
X0225735Y0197871D01*
X0225928Y0198002D01*
X0226118Y0198137D01*
X0226305Y0198277D01*
X0226489Y0198421D01*
X0226668Y0198570D01*
X0226845Y0198723D01*
X0227017Y0198880D01*
X0227185Y0199042D01*
X0227350Y0199207D01*
X0227510Y0199377D01*
X0227666Y0199551D01*
X0227818Y0199728D01*
X0227965Y0199909D01*
X0228108Y0200093D01*
X0228246Y0200281D01*
X0228380Y0200472D01*
X0228509Y0200667D01*
X0228633Y0200864D01*
X0228753Y0201065D01*
X0228867Y0201268D01*
X0228976Y0201474D01*
X0229081Y0201683D01*
X0229180Y0201894D01*
X0229274Y0202108D01*
X0229363Y0202324D01*
X0229446Y0202542D01*
X0229524Y0202762D01*
X0229597Y0202984D01*
X0229664Y0203207D01*
X0229725Y0203432D01*
X0229781Y0203659D01*
X0229832Y0203886D01*
X0229877Y0204115D01*
X0229916Y0204345D01*
X0229950Y0204576D01*
X0229978Y0204808D01*
X0230001Y0205040D01*
X0230017Y0205273D01*
X0230028Y0205506D01*
X0230033Y0205739D01*
X0230033Y0205973D01*
X0230027Y0206206D01*
X0230015Y0206439D01*
X0229997Y0206672D01*
X0229974Y0206904D01*
X0229945Y0207136D01*
X0229911Y0207366D01*
X0229870Y0207596D01*
X0229825Y0207825D01*
X0229773Y0208053D01*
X0229716Y0208279D01*
X0229654Y0208504D01*
X0229586Y0208727D01*
X0229512Y0208949D01*
X0229433Y0209168D01*
X0229349Y0209386D01*
X0229260Y0209601D01*
X0229165Y0209815D01*
X0229065Y0210025D01*
X0228960Y0210234D01*
X0228850Y0210440D01*
X0228734Y0210642D01*
X0228614Y0210843D01*
X0228489Y0211040D01*
X0228360Y0211234D01*
X0228225Y0211424D01*
X0228086Y0211612D01*
X0227943Y0211796D01*
X0227794Y0211976D01*
X0227642Y0212153D01*
X0227485Y0212326D01*
X0227324Y0212495D01*
X0227159Y0212660D01*
X0226990Y0212820D01*
X0226817Y0212977D01*
X0226641Y0213130D01*
X0226460Y0213278D01*
X0226276Y0213421D01*
X0226089Y0213560D01*
X0225898Y0213695D01*
X0225704Y0213825D01*
X0225507Y0213950D01*
X0225307Y0214070D01*
X0225104Y0214185D01*
X0224898Y0214295D01*
X0224690Y0214400D01*
X0224479Y0214500D01*
X0224266Y0214595D01*
X0224050Y0214684D01*
X0223833Y0214768D01*
X0223613Y0214847D01*
X0223392Y0214921D01*
X0223168Y0214989D01*
X0222944Y0215051D01*
X0222717Y0215108D01*
X0222490Y0215160D01*
X0222261Y0215205D01*
X0222031Y0215246D01*
X0221800Y0215280D01*
X0221569Y0215309D01*
X0221337Y0215332D01*
X0221104Y0215350D01*
X0220871Y0215362D01*
X0220637Y0215368D01*
X0220404Y0215368D01*
X0220171Y0215363D01*
X0219938Y0215352D01*
X0219705Y0215336D01*
X0219473Y0215313D01*
X0219241Y0215285D01*
X0219010Y0215251D01*
X0218780Y0215212D01*
X0218551Y0215167D01*
X0218323Y0215116D01*
X0218097Y0215060D01*
X0217872Y0214999D01*
X0217648Y0214931D01*
X0217426Y0214859D01*
X0217207Y0214781D01*
X0216989Y0214697D01*
X0216773Y0214609D01*
X0216559Y0214515D01*
X0216560Y0214514D02*
X0216732Y0214672D01*
X0216900Y0214834D01*
X0217065Y0215000D01*
X0217225Y0215170D01*
X0217381Y0215344D01*
X0217532Y0215521D01*
X0217680Y0215702D01*
X0217823Y0215887D01*
X0217961Y0216075D01*
X0218094Y0216267D01*
X0218223Y0216462D01*
X0218347Y0216659D01*
X0218466Y0216860D01*
X0218581Y0217064D01*
X0218690Y0217270D01*
X0218794Y0217479D01*
X0218893Y0217691D01*
X0218987Y0217905D01*
X0219075Y0218121D01*
X0219158Y0218339D01*
X0219236Y0218559D01*
X0219308Y0218781D01*
X0219375Y0219005D01*
X0219437Y0219230D01*
X0219492Y0219457D01*
X0219543Y0219685D01*
X0219587Y0219914D01*
X0219626Y0220144D01*
X0219660Y0220376D01*
X0219688Y0220607D01*
X0219710Y0220840D01*
X0219726Y0221073D01*
X0219737Y0221306D01*
X0219742Y0221540D01*
X0219741Y0221773D01*
X0219734Y0222007D01*
X0219722Y0222240D01*
X0219704Y0222473D01*
X0219681Y0222705D01*
X0219651Y0222937D01*
X0219616Y0223167D01*
X0219576Y0223397D01*
X0219529Y0223626D01*
X0219478Y0223854D01*
X0219420Y0224080D01*
X0219357Y0224305D01*
X0219289Y0224528D01*
X0219215Y0224750D01*
X0219136Y0224970D01*
X0219051Y0225187D01*
X0218961Y0225403D01*
X0218866Y0225616D01*
X0218766Y0225827D01*
X0218660Y0226035D01*
X0218549Y0226241D01*
X0218434Y0226444D01*
X0218313Y0226644D01*
X0218188Y0226841D01*
X0218058Y0227035D01*
X0217923Y0227225D01*
X0217783Y0227412D01*
X0217639Y0227596D01*
X0217491Y0227776D01*
X0217338Y0227953D01*
X0217181Y0228126D01*
X0217019Y0228295D01*
X0216854Y0228459D01*
X0216685Y0228620D01*
X0216511Y0228777D01*
X0216334Y0228929D01*
X0216153Y0229077D01*
X0215969Y0229220D01*
X0215781Y0229359D01*
X0215590Y0229493D01*
X0215396Y0229622D01*
X0215198Y0229747D01*
X0214998Y0229867D01*
X0214795Y0229982D01*
X0214589Y0230091D01*
X0214380Y0230196D01*
X0214169Y0230296D01*
X0213955Y0230390D01*
X0213739Y0230479D01*
X0213521Y0230563D01*
X0213301Y0230642D01*
X0213079Y0230715D01*
X0212856Y0230782D01*
X0212631Y0230844D01*
X0212404Y0230901D01*
X0212176Y0230952D01*
X0211947Y0230997D01*
X0211717Y0231037D01*
X0211486Y0231071D01*
X0211254Y0231099D01*
X0211022Y0231122D01*
X0210789Y0231139D01*
X0210556Y0231151D01*
X0210322Y0231156D01*
X0210089Y0231156D01*
X0209856Y0231150D01*
X0209622Y0231139D01*
X0209389Y0231122D01*
X0209157Y0231099D01*
X0208925Y0231070D01*
X0208694Y0231036D01*
X0208464Y0230996D01*
X0208235Y0230950D01*
X0208007Y0230899D01*
X0207781Y0230843D01*
X0207556Y0230780D01*
X0207332Y0230713D01*
X0207111Y0230639D01*
X0206891Y0230561D01*
X0206673Y0230477D01*
X0206457Y0230388D01*
X0206243Y0230293D01*
X0206032Y0230193D01*
X0205824Y0230088D01*
X0205618Y0229978D01*
X0205414Y0229864D01*
X0205214Y0229744D01*
X0205017Y0229619D01*
X0204822Y0229489D01*
X0204631Y0229355D01*
X0204444Y0229216D01*
X0204259Y0229073D01*
X0204079Y0228925D01*
X0204079Y0228924D02*
X0204201Y0229122D01*
X0204317Y0229323D01*
X0204429Y0229527D01*
X0204536Y0229734D01*
X0204637Y0229943D01*
X0204734Y0230154D01*
X0204825Y0230368D01*
X0204911Y0230584D01*
X0204992Y0230802D01*
X0205068Y0231022D01*
X0205138Y0231243D01*
X0205202Y0231467D01*
X0205262Y0231692D01*
X0205315Y0231918D01*
X0205363Y0232145D01*
X0205406Y0232374D01*
X0205443Y0232603D01*
X0205474Y0232834D01*
X0205500Y0233065D01*
X0205520Y0233296D01*
X0205534Y0233528D01*
X0205543Y0233761D01*
X0205546Y0233993D01*
X0205543Y0234226D01*
X0205535Y0234458D01*
X0205521Y0234690D01*
X0205501Y0234922D01*
X0205476Y0235153D01*
X0205445Y0235383D01*
X0205409Y0235613D01*
X0205366Y0235841D01*
X0205319Y0236069D01*
X0205265Y0236295D01*
X0205207Y0236520D01*
X0205142Y0236743D01*
X0205073Y0236965D01*
X0204998Y0237185D01*
X0204917Y0237403D01*
X0204831Y0237619D01*
X0204740Y0237833D01*
X0204644Y0238045D01*
X0204543Y0238254D01*
X0204437Y0238461D01*
X0204325Y0238665D01*
X0204209Y0238866D01*
X0204087Y0239064D01*
X0203961Y0239260D01*
X0203831Y0239452D01*
X0203695Y0239641D01*
X0203555Y0239826D01*
X0203411Y0240008D01*
X0203262Y0240187D01*
X0203108Y0240362D01*
X0202951Y0240533D01*
X0202789Y0240700D01*
X0202624Y0240863D01*
X0202454Y0241022D01*
X0202281Y0241177D01*
X0202104Y0241328D01*
X0201923Y0241474D01*
X0201739Y0241615D01*
X0201551Y0241753D01*
X0201360Y0241885D01*
X0201166Y0242013D01*
X0200969Y0242136D01*
X0200769Y0242254D01*
X0200566Y0242368D01*
X0200360Y0242476D01*
X0200152Y0242579D01*
X0199941Y0242677D01*
X0199728Y0242770D01*
X0199513Y0242858D01*
X0199295Y0242941D01*
X0199076Y0243018D01*
X0198855Y0243090D01*
X0198632Y0243156D01*
X0198408Y0243217D01*
X0198182Y0243272D01*
X0197955Y0243322D01*
X0197727Y0243366D01*
X0197497Y0243405D01*
X0197267Y0243438D01*
X0197036Y0243465D01*
X0196805Y0243487D01*
X0196573Y0243503D01*
X0196341Y0243514D01*
X0196108Y0243519D01*
X0195876Y0243518D01*
X0195644Y0243511D01*
X0195411Y0243499D01*
X0195180Y0243481D01*
X0194948Y0243458D01*
X0194718Y0243428D01*
X0194488Y0243394D01*
X0194259Y0243353D01*
X0194031Y0243307D01*
X0193804Y0243256D01*
X0193579Y0243199D01*
X0193355Y0243136D01*
X0193133Y0243068D01*
X0192912Y0242995D01*
X0192694Y0242916D01*
X0192477Y0242832D01*
X0192262Y0242742D01*
X0192050Y0242648D01*
X0191840Y0242548D01*
X0191632Y0242443D01*
X0191428Y0242333D01*
X0191225Y0242219D01*
X0191026Y0242099D01*
X0190830Y0241974D01*
X0190637Y0241845D01*
X0190447Y0241711D01*
X0190260Y0241572D01*
X0190077Y0241429D01*
X0189897Y0241282D01*
X0189721Y0241130D01*
X0189549Y0240974D01*
X0189381Y0240813D01*
X0189216Y0240649D01*
X0189056Y0240481D01*
X0188900Y0240308D01*
X0188748Y0240132D01*
X0188600Y0239953D01*
X0188457Y0239770D01*
X0188319Y0239583D01*
X0188185Y0239393D01*
X0188055Y0239200D01*
X0188056Y0239199D02*
X0188112Y0239425D01*
X0188164Y0239653D01*
X0188209Y0239881D01*
X0188249Y0240111D01*
X0188284Y0240342D01*
X0188312Y0240573D01*
X0188335Y0240805D01*
X0188353Y0241038D01*
X0188364Y0241271D01*
X0188370Y0241504D01*
X0188370Y0241737D01*
X0188365Y0241970D01*
X0188354Y0242203D01*
X0188337Y0242435D01*
X0188314Y0242667D01*
X0188286Y0242899D01*
X0188252Y0243129D01*
X0188213Y0243359D01*
X0188168Y0243588D01*
X0188117Y0243816D01*
X0188061Y0244042D01*
X0187999Y0244267D01*
X0187932Y0244490D01*
X0187859Y0244711D01*
X0187781Y0244931D01*
X0187697Y0245149D01*
X0187609Y0245364D01*
X0187515Y0245578D01*
X0187415Y0245789D01*
X0187311Y0245997D01*
X0187202Y0246203D01*
X0187087Y0246406D01*
X0186968Y0246607D01*
X0186844Y0246804D01*
X0186715Y0246998D01*
X0186581Y0247189D01*
X0186443Y0247377D01*
X0186300Y0247561D01*
X0186153Y0247742D01*
X0186001Y0247919D01*
X0185845Y0248092D01*
X0185685Y0248261D01*
X0185520Y0248427D01*
X0185352Y0248588D01*
X0185180Y0248745D01*
X0185004Y0248898D01*
X0184824Y0249047D01*
X0184641Y0249191D01*
X0184454Y0249331D01*
X0184264Y0249466D01*
X0184071Y0249596D01*
X0183874Y0249721D01*
X0183675Y0249842D01*
X0183472Y0249958D01*
X0183267Y0250069D01*
X0183059Y0250174D01*
X0182849Y0250275D01*
X0182636Y0250370D01*
X0182421Y0250461D01*
X0182204Y0250545D01*
X0181985Y0250625D01*
X0181764Y0250699D01*
X0181541Y0250768D01*
X0181317Y0250831D01*
X0181091Y0250889D01*
X0180864Y0250941D01*
X0180635Y0250988D01*
X0180406Y0251029D01*
X0180175Y0251064D01*
X0179944Y0251094D01*
X0179712Y0251118D01*
X0179480Y0251137D01*
X0179247Y0251149D01*
X0179014Y0251156D01*
X0178781Y0251158D01*
X0178547Y0251153D01*
X0178315Y0251143D01*
X0178082Y0251128D01*
X0177850Y0251106D01*
X0177618Y0251079D01*
X0177387Y0251046D01*
X0177157Y0251008D01*
X0176928Y0250964D01*
X0176701Y0250914D01*
X0176474Y0250859D01*
X0176249Y0250798D01*
X0176025Y0250732D01*
X0175804Y0250660D01*
X0175584Y0250583D01*
X0175365Y0250501D01*
X0175149Y0250413D01*
X0174936Y0250320D01*
X0174724Y0250222D01*
X0174515Y0250118D01*
X0174309Y0250010D01*
X0174105Y0249897D01*
X0173904Y0249778D01*
X0173706Y0249655D01*
X0173512Y0249527D01*
X0173320Y0249394D01*
X0173132Y0249256D01*
X0172947Y0249114D01*
X0172765Y0248968D01*
X0172588Y0248817D01*
X0172414Y0248662D01*
X0172243Y0248502D01*
X0172077Y0248339D01*
X0171915Y0248171D01*
X0171757Y0248000D01*
X0171603Y0247825D01*
X0171454Y0247646D01*
X0171309Y0247463D01*
X0171169Y0247277D01*
X0171033Y0247087D01*
X0170902Y0246895D01*
X0170775Y0246699D01*
X0170654Y0246500D01*
X0170537Y0246298D01*
X0170425Y0246093D01*
X0170318Y0245886D01*
X0170217Y0245676D01*
X0170120Y0245464D01*
X0170029Y0245249D01*
X0169943Y0245033D01*
X0169863Y0244814D01*
X0169787Y0244593D01*
X0169788Y0244593D02*
X0169780Y0244826D01*
X0169766Y0245058D01*
X0169747Y0245290D01*
X0169722Y0245521D01*
X0169691Y0245752D01*
X0169655Y0245982D01*
X0169613Y0246211D01*
X0169566Y0246439D01*
X0169513Y0246665D01*
X0169454Y0246891D01*
X0169390Y0247114D01*
X0169321Y0247336D01*
X0169246Y0247557D01*
X0169166Y0247775D01*
X0169080Y0247992D01*
X0168990Y0248206D01*
X0168894Y0248418D01*
X0168792Y0248628D01*
X0168686Y0248835D01*
X0168575Y0249039D01*
X0168459Y0249241D01*
X0168338Y0249439D01*
X0168212Y0249635D01*
X0168081Y0249828D01*
X0167946Y0250017D01*
X0167806Y0250203D01*
X0167662Y0250386D01*
X0167513Y0250565D01*
X0167360Y0250740D01*
X0167202Y0250911D01*
X0167041Y0251079D01*
X0166875Y0251242D01*
X0166706Y0251402D01*
X0166533Y0251557D01*
X0166356Y0251708D01*
X0166175Y0251855D01*
X0165991Y0251997D01*
X0165803Y0252135D01*
X0165612Y0252268D01*
X0165418Y0252396D01*
X0165221Y0252519D01*
X0165021Y0252638D01*
X0164818Y0252752D01*
X0164612Y0252861D01*
X0164404Y0252964D01*
X0164193Y0253063D01*
X0163980Y0253156D01*
X0163764Y0253245D01*
X0163547Y0253328D01*
X0163327Y0253405D01*
X0163106Y0253477D01*
X0162883Y0253544D01*
X0162659Y0253605D01*
X0162433Y0253661D01*
X0162206Y0253711D01*
X0161977Y0253756D01*
X0161748Y0253795D01*
X0161518Y0253829D01*
X0161287Y0253857D01*
X0161055Y0253879D01*
X0160823Y0253895D01*
X0160590Y0253906D01*
X0160358Y0253912D01*
X0160125Y0253911D01*
X0159892Y0253905D01*
X0159660Y0253893D01*
X0159428Y0253876D01*
X0159196Y0253852D01*
X0158965Y0253824D01*
X0158735Y0253789D01*
X0158506Y0253749D01*
X0158278Y0253703D01*
X0158051Y0253652D01*
X0157825Y0253595D01*
X0157601Y0253533D01*
X0157378Y0253465D01*
X0157157Y0253392D01*
X0156938Y0253314D01*
X0156721Y0253230D01*
X0156506Y0253141D01*
X0156293Y0253047D01*
X0156083Y0252947D01*
X0155875Y0252843D01*
X0155670Y0252733D01*
X0155467Y0252618D01*
X0155268Y0252499D01*
X0155071Y0252375D01*
X0154877Y0252245D01*
X0154687Y0252112D01*
X0154500Y0251973D01*
X0154316Y0251830D01*
X0154136Y0251683D01*
X0153960Y0251531D01*
X0153787Y0251375D01*
X0153618Y0251215D01*
X0153453Y0251051D01*
X0153293Y0250882D01*
X0153136Y0250710D01*
X0152984Y0250534D01*
X0152836Y0250355D01*
X0152692Y0250172D01*
X0152553Y0249985D01*
X0152418Y0249795D01*
X0152288Y0249602D01*
X0152163Y0249406D01*
X0152043Y0249207D01*
X0151928Y0249005D01*
X0151817Y0248800D01*
X0151712Y0248592D01*
X0151612Y0248382D01*
X0151517Y0248170D01*
X0151427Y0247955D01*
X0151342Y0247738D01*
X0151263Y0247520D01*
X0151189Y0247299D01*
X0151121Y0247077D01*
X0151058Y0246853D01*
X0151000Y0246627D01*
X0150948Y0246400D01*
X0150901Y0246172D01*
X0150861Y0245943D01*
X0150825Y0245713D01*
X0150796Y0245482D01*
X0150772Y0245251D01*
X0150753Y0245019D01*
X0150741Y0244786D01*
X0150734Y0244554D01*
X0150732Y0244554D02*
X0150666Y0244777D01*
X0150594Y0244998D01*
X0150516Y0245218D01*
X0150433Y0245436D01*
X0150345Y0245651D01*
X0150252Y0245864D01*
X0150153Y0246075D01*
X0150050Y0246284D01*
X0149941Y0246490D01*
X0149827Y0246693D01*
X0149708Y0246893D01*
X0149585Y0247090D01*
X0149456Y0247285D01*
X0149323Y0247476D01*
X0149186Y0247663D01*
X0149043Y0247848D01*
X0148897Y0248029D01*
X0148746Y0248206D01*
X0148590Y0248379D01*
X0148431Y0248549D01*
X0148267Y0248714D01*
X0148099Y0248876D01*
X0147928Y0249033D01*
X0147752Y0249186D01*
X0147573Y0249335D01*
X0147391Y0249479D01*
X0147205Y0249619D01*
X0147015Y0249755D01*
X0146822Y0249885D01*
X0146626Y0250011D01*
X0146428Y0250132D01*
X0146226Y0250248D01*
X0146021Y0250359D01*
X0145814Y0250465D01*
X0145604Y0250566D01*
X0145392Y0250662D01*
X0145177Y0250753D01*
X0144961Y0250838D01*
X0144742Y0250918D01*
X0144522Y0250993D01*
X0144299Y0251062D01*
X0144075Y0251126D01*
X0143850Y0251184D01*
X0143623Y0251237D01*
X0143395Y0251284D01*
X0143166Y0251326D01*
X0142936Y0251362D01*
X0142705Y0251392D01*
X0142474Y0251417D01*
X0142242Y0251436D01*
X0142009Y0251449D01*
X0141777Y0251457D01*
X0141544Y0251459D01*
X0141311Y0251455D01*
X0141078Y0251446D01*
X0140846Y0251431D01*
X0140614Y0251410D01*
X0140383Y0251383D01*
X0140152Y0251351D01*
X0139922Y0251314D01*
X0139694Y0251270D01*
X0139466Y0251221D01*
X0139240Y0251167D01*
X0139015Y0251107D01*
X0138791Y0251041D01*
X0138570Y0250970D01*
X0138350Y0250894D01*
X0138132Y0250812D01*
X0137916Y0250725D01*
X0137702Y0250633D01*
X0137490Y0250536D01*
X0137281Y0250433D01*
X0137075Y0250325D01*
X0136871Y0250213D01*
X0136670Y0250095D01*
X0136472Y0249972D01*
X0136277Y0249845D01*
X0136086Y0249713D01*
X0135897Y0249576D01*
X0135712Y0249435D01*
X0135531Y0249289D01*
X0135353Y0249139D01*
X0135179Y0248985D01*
X0135008Y0248826D01*
X0134842Y0248663D01*
X0134679Y0248496D01*
X0134521Y0248326D01*
X0134367Y0248151D01*
X0134217Y0247973D01*
X0134072Y0247791D01*
X0133931Y0247605D01*
X0133795Y0247417D01*
X0133663Y0247225D01*
X0133536Y0247029D01*
X0133414Y0246831D01*
X0133297Y0246630D01*
X0133185Y0246426D01*
X0133078Y0246219D01*
X0132976Y0246010D01*
X0132879Y0245798D01*
X0132787Y0245584D01*
X0132700Y0245368D01*
X0132619Y0245150D01*
X0132543Y0244930D01*
X0132473Y0244708D01*
X0132408Y0244484D01*
X0132349Y0244259D01*
X0132295Y0244033D01*
X0132246Y0243805D01*
X0132203Y0243576D01*
X0132166Y0243346D01*
X0132135Y0243116D01*
X0132109Y0242884D01*
X0132089Y0242652D01*
X0132074Y0242420D01*
X0132065Y0242187D01*
X0132062Y0241954D01*
X0132065Y0241722D01*
X0132073Y0241489D01*
X0132087Y0241256D01*
X0132106Y0241024D01*
X0132131Y0240793D01*
X0132162Y0240562D01*
X0132199Y0240332D01*
X0132241Y0240103D01*
X0132289Y0239875D01*
X0132342Y0239649D01*
X0132401Y0239424D01*
X0132465Y0239200D01*
X0132333Y0239391D01*
X0132197Y0239579D01*
X0132056Y0239764D01*
X0131911Y0239945D01*
X0131761Y0240123D01*
X0131607Y0240297D01*
X0131448Y0240467D01*
X0131286Y0240633D01*
X0131119Y0240796D01*
X0130949Y0240954D01*
X0130775Y0241108D01*
X0130597Y0241257D01*
X0130416Y0241402D01*
X0130231Y0241543D01*
X0130042Y0241679D01*
X0129851Y0241811D01*
X0129656Y0241938D01*
X0129458Y0242060D01*
X0129257Y0242177D01*
X0129054Y0242289D01*
X0128848Y0242396D01*
X0128639Y0242498D01*
X0128428Y0242595D01*
X0128214Y0242687D01*
X0127999Y0242774D01*
X0127781Y0242855D01*
X0127561Y0242931D01*
X0127340Y0243002D01*
X0127117Y0243067D01*
X0126892Y0243127D01*
X0126666Y0243181D01*
X0126439Y0243230D01*
X0126211Y0243273D01*
X0125981Y0243310D01*
X0125751Y0243342D01*
X0125520Y0243368D01*
X0125289Y0243389D01*
X0125057Y0243404D01*
X0124825Y0243413D01*
X0124592Y0243417D01*
X0124360Y0243415D01*
X0124127Y0243407D01*
X0123895Y0243394D01*
X0123664Y0243375D01*
X0123433Y0243350D01*
X0123202Y0243320D01*
X0122973Y0243284D01*
X0122744Y0243242D01*
X0122516Y0243195D01*
X0122290Y0243143D01*
X0122065Y0243085D01*
X0121842Y0243021D01*
X0121620Y0242952D01*
X0121399Y0242877D01*
X0121181Y0242798D01*
X0120965Y0242713D01*
X0120751Y0242622D01*
X0120539Y0242527D01*
X0120330Y0242426D01*
X0120123Y0242320D01*
X0119918Y0242209D01*
X0119717Y0242094D01*
X0119518Y0241973D01*
X0119323Y0241847D01*
X0119130Y0241717D01*
X0118941Y0241582D01*
X0118755Y0241443D01*
X0118572Y0241299D01*
X0118393Y0241151D01*
X0118218Y0240998D01*
X0118047Y0240841D01*
X0117879Y0240680D01*
X0117716Y0240515D01*
X0117556Y0240346D01*
X0117401Y0240173D01*
X0117250Y0239997D01*
X0117103Y0239816D01*
X0116961Y0239633D01*
X0116823Y0239445D01*
X0116690Y0239255D01*
X0116561Y0239061D01*
X0116438Y0238864D01*
X0116319Y0238665D01*
X0116205Y0238462D01*
X0116096Y0238257D01*
X0115992Y0238049D01*
X0115893Y0237839D01*
X0115800Y0237626D01*
X0115711Y0237411D01*
X0115628Y0237194D01*
X0115550Y0236975D01*
X0115478Y0236754D01*
X0115411Y0236532D01*
X0115349Y0236307D01*
X0115293Y0236082D01*
X0115243Y0235855D01*
X0115198Y0235627D01*
X0115158Y0235398D01*
X0115124Y0235168D01*
X0115096Y0234937D01*
X0115073Y0234706D01*
X0115057Y0234474D01*
X0115045Y0234242D01*
X0115040Y0234010D01*
X0115040Y0233778D01*
X0115046Y0233545D01*
X0115057Y0233313D01*
X0115074Y0233081D01*
X0115097Y0232850D01*
X0115125Y0232619D01*
X0115159Y0232389D01*
X0115199Y0232160D01*
X0115244Y0231932D01*
X0115295Y0231706D01*
X0115351Y0231480D01*
X0115413Y0231256D01*
X0115480Y0231034D01*
X0115552Y0230813D01*
X0115630Y0230594D01*
X0115714Y0230377D01*
X0115802Y0230162D01*
X0115896Y0229949D01*
X0115995Y0229739D01*
X0116099Y0229531D01*
X0116208Y0229326D01*
X0116322Y0229124D01*
X0116441Y0228924D01*
X0116442Y0228924D02*
X0116261Y0229072D01*
X0116077Y0229215D01*
X0115889Y0229353D01*
X0115698Y0229487D01*
X0115504Y0229616D01*
X0115307Y0229740D01*
X0115106Y0229859D01*
X0114903Y0229974D01*
X0114697Y0230083D01*
X0114489Y0230188D01*
X0114278Y0230287D01*
X0114064Y0230381D01*
X0113849Y0230470D01*
X0113631Y0230553D01*
X0113411Y0230631D01*
X0113190Y0230704D01*
X0112966Y0230771D01*
X0112741Y0230833D01*
X0112515Y0230889D01*
X0112288Y0230940D01*
X0112059Y0230985D01*
X0111829Y0231025D01*
X0111598Y0231059D01*
X0111367Y0231087D01*
X0111135Y0231110D01*
X0110902Y0231127D01*
X0110669Y0231138D01*
X0110436Y0231143D01*
X0110203Y0231143D01*
X0109970Y0231137D01*
X0109737Y0231126D01*
X0109504Y0231108D01*
X0109272Y0231085D01*
X0109041Y0231057D01*
X0108810Y0231023D01*
X0108580Y0230983D01*
X0108352Y0230937D01*
X0108124Y0230886D01*
X0107898Y0230829D01*
X0107673Y0230767D01*
X0107450Y0230699D01*
X0107228Y0230626D01*
X0107009Y0230548D01*
X0106791Y0230464D01*
X0106576Y0230375D01*
X0106362Y0230280D01*
X0106152Y0230181D01*
X0105943Y0230076D01*
X0105737Y0229966D01*
X0105534Y0229852D01*
X0105334Y0229732D01*
X0105137Y0229607D01*
X0104943Y0229478D01*
X0104752Y0229344D01*
X0104565Y0229205D01*
X0104381Y0229062D01*
X0104200Y0228914D01*
X0104023Y0228762D01*
X0103850Y0228606D01*
X0103681Y0228446D01*
X0103516Y0228281D01*
X0103355Y0228112D01*
X0103198Y0227940D01*
X0103045Y0227764D01*
X0102897Y0227584D01*
X0102753Y0227400D01*
X0102614Y0227213D01*
X0102479Y0227023D01*
X0102349Y0226829D01*
X0102224Y0226632D01*
X0102103Y0226433D01*
X0101988Y0226230D01*
X0101877Y0226025D01*
X0101772Y0225817D01*
X0101672Y0225606D01*
X0101576Y0225393D01*
X0101487Y0225178D01*
X0101402Y0224961D01*
X0101323Y0224742D01*
X0101249Y0224520D01*
X0101180Y0224297D01*
X0101117Y0224073D01*
X0101060Y0223847D01*
X0101008Y0223620D01*
X0100962Y0223391D01*
X0100921Y0223161D01*
X0100886Y0222931D01*
X0100856Y0222699D01*
X0100833Y0222467D01*
X0100814Y0222235D01*
X0100802Y0222002D01*
X0100795Y0221769D01*
X0100794Y0221536D01*
X0100799Y0221303D01*
X0100809Y0221070D01*
X0100825Y0220837D01*
X0100847Y0220605D01*
X0100875Y0220373D01*
X0100908Y0220142D01*
X0100947Y0219912D01*
X0100991Y0219683D01*
X0101041Y0219456D01*
X0101096Y0219229D01*
X0101157Y0219004D01*
X0101224Y0218781D01*
X0101296Y0218559D01*
X0101373Y0218339D01*
X0101456Y0218121D01*
X0101544Y0217905D01*
X0101637Y0217691D01*
X0101736Y0217480D01*
X0101839Y0217271D01*
X0101948Y0217064D01*
X0102062Y0216861D01*
X0102180Y0216660D01*
X0102304Y0216462D01*
X0102432Y0216268D01*
X0102565Y0216076D01*
X0102703Y0215888D01*
X0102845Y0215703D01*
X0102992Y0215522D01*
X0103143Y0215344D01*
X0103299Y0215170D01*
X0103458Y0215000D01*
X0103622Y0214834D01*
X0103790Y0214672D01*
X0103962Y0214515D01*
X0103961Y0214515D02*
X0103747Y0214609D01*
X0103531Y0214697D01*
X0103313Y0214781D01*
X0103094Y0214859D01*
X0102872Y0214931D01*
X0102648Y0214999D01*
X0102423Y0215060D01*
X0102197Y0215116D01*
X0101969Y0215167D01*
X0101740Y0215212D01*
X0101510Y0215251D01*
X0101279Y0215285D01*
X0101047Y0215313D01*
X0100815Y0215336D01*
X0100582Y0215352D01*
X0100349Y0215363D01*
X0100116Y0215368D01*
X0099883Y0215368D01*
X0099649Y0215362D01*
X0099416Y0215350D01*
X0099183Y0215332D01*
X0098951Y0215309D01*
X0098720Y0215280D01*
X0098489Y0215246D01*
X0098259Y0215205D01*
X0098030Y0215160D01*
X0097803Y0215108D01*
X0097576Y0215051D01*
X0097352Y0214989D01*
X0097128Y0214921D01*
X0096907Y0214847D01*
X0096687Y0214768D01*
X0096470Y0214684D01*
X0096254Y0214595D01*
X0096041Y0214500D01*
X0095830Y0214400D01*
X0095622Y0214295D01*
X0095416Y0214185D01*
X0095213Y0214070D01*
X0095013Y0213950D01*
X0094816Y0213825D01*
X0094622Y0213695D01*
X0094431Y0213560D01*
X0094244Y0213421D01*
X0094060Y0213278D01*
X0093879Y0213130D01*
X0093703Y0212977D01*
X0093530Y0212820D01*
X0093361Y0212660D01*
X0093196Y0212495D01*
X0093035Y0212326D01*
X0092878Y0212153D01*
X0092726Y0211976D01*
X0092577Y0211796D01*
X0092434Y0211612D01*
X0092295Y0211424D01*
X0092160Y0211234D01*
X0092031Y0211040D01*
X0091906Y0210843D01*
X0091786Y0210642D01*
X0091670Y0210440D01*
X0091560Y0210234D01*
X0091455Y0210025D01*
X0091355Y0209815D01*
X0091260Y0209601D01*
X0091171Y0209386D01*
X0091087Y0209168D01*
X0091008Y0208949D01*
X0090934Y0208727D01*
X0090866Y0208504D01*
X0090804Y0208279D01*
X0090747Y0208053D01*
X0090695Y0207825D01*
X0090650Y0207596D01*
X0090609Y0207366D01*
X0090575Y0207136D01*
X0090546Y0206904D01*
X0090523Y0206672D01*
X0090505Y0206439D01*
X0090493Y0206206D01*
X0090487Y0205973D01*
X0090487Y0205739D01*
X0090492Y0205506D01*
X0090503Y0205273D01*
X0090519Y0205040D01*
X0090542Y0204808D01*
X0090570Y0204576D01*
X0090604Y0204345D01*
X0090643Y0204115D01*
X0090688Y0203886D01*
X0090739Y0203659D01*
X0090795Y0203432D01*
X0090856Y0203207D01*
X0090923Y0202984D01*
X0090996Y0202762D01*
X0091074Y0202542D01*
X0091157Y0202324D01*
X0091246Y0202108D01*
X0091340Y0201894D01*
X0091439Y0201683D01*
X0091544Y0201474D01*
X0091653Y0201268D01*
X0091767Y0201065D01*
X0091887Y0200864D01*
X0092011Y0200667D01*
X0092140Y0200472D01*
X0092274Y0200281D01*
X0092412Y0200093D01*
X0092555Y0199909D01*
X0092702Y0199728D01*
X0092854Y0199551D01*
X0093010Y0199377D01*
X0093170Y0199207D01*
X0093335Y0199042D01*
X0093503Y0198880D01*
X0093675Y0198723D01*
X0093852Y0198570D01*
X0094031Y0198421D01*
X0094215Y0198277D01*
X0094402Y0198137D01*
X0094592Y0198002D01*
X0094785Y0197871D01*
X0094982Y0197746D01*
X0095182Y0197625D01*
X0095384Y0197509D01*
X0095589Y0197398D01*
X0095797Y0197292D01*
X0096008Y0197191D01*
X0096008Y0197192D02*
X0095776Y0197215D01*
X0095544Y0197232D01*
X0095311Y0197244D01*
X0095078Y0197250D01*
X0094845Y0197250D01*
X0094612Y0197245D01*
X0094379Y0197234D01*
X0094146Y0197217D01*
X0093914Y0197195D01*
X0093683Y0197167D01*
X0093452Y0197133D01*
X0093222Y0197094D01*
X0092994Y0197049D01*
X0092766Y0196998D01*
X0092540Y0196942D01*
X0092315Y0196880D01*
X0092092Y0196813D01*
X0091870Y0196741D01*
X0091651Y0196663D01*
X0091433Y0196579D01*
X0091217Y0196491D01*
X0091004Y0196397D01*
X0090793Y0196298D01*
X0090584Y0196194D01*
X0090379Y0196084D01*
X0090175Y0195970D01*
X0089975Y0195851D01*
X0089778Y0195727D01*
X0089583Y0195598D01*
X0089392Y0195464D01*
X0089205Y0195326D01*
X0089020Y0195183D01*
X0088840Y0195036D01*
X0088663Y0194885D01*
X0088489Y0194729D01*
X0088320Y0194569D01*
X0088154Y0194404D01*
X0087993Y0194236D01*
X0087836Y0194064D01*
X0087683Y0193888D01*
X0087534Y0193709D01*
X0087390Y0193526D01*
X0087250Y0193339D01*
X0087115Y0193149D01*
X0086985Y0192956D01*
X0086859Y0192759D01*
X0086738Y0192560D01*
X0086622Y0192358D01*
X0086511Y0192153D01*
X0086406Y0191945D01*
X0086305Y0191735D01*
X0086209Y0191522D01*
X0086119Y0191307D01*
X0086034Y0191090D01*
X0085954Y0190871D01*
X0085880Y0190650D01*
X0085811Y0190428D01*
X0085747Y0190203D01*
X0085690Y0189978D01*
X0085637Y0189750D01*
X0085590Y0189522D01*
X0085549Y0189293D01*
X0085514Y0189062D01*
X0085484Y0188831D01*
X0085459Y0188599D01*
X0085441Y0188367D01*
X0085428Y0188134D01*
X0085421Y0187901D01*
X0085419Y0187668D01*
X0085423Y0187435D01*
X0085433Y0187202D01*
X0085449Y0186969D01*
X0085470Y0186737D01*
X0085497Y0186506D01*
X0085530Y0186275D01*
X0085568Y0186045D01*
X0085612Y0185816D01*
X0085661Y0185588D01*
X0085716Y0185362D01*
X0085777Y0185137D01*
X0085843Y0184913D01*
X0085914Y0184691D01*
X0085991Y0184471D01*
X0086073Y0184253D01*
X0086161Y0184037D01*
X0086254Y0183823D01*
X0086352Y0183612D01*
X0086455Y0183403D01*
X0086563Y0183196D01*
X0086676Y0182992D01*
X0086795Y0182791D01*
X0086918Y0182593D01*
X0087046Y0182399D01*
X0087178Y0182207D01*
X0087315Y0182018D01*
X0087457Y0181833D01*
X0087604Y0181652D01*
X0087754Y0181474D01*
X0087909Y0181300D01*
X0088069Y0181130D01*
X0088232Y0180964D01*
X0088399Y0180801D01*
X0088571Y0180643D01*
X0088746Y0180489D01*
X0088925Y0180340D01*
X0089107Y0180195D01*
X0089293Y0180054D01*
X0089482Y0179918D01*
X0089675Y0179787D01*
X0089870Y0179660D01*
X0090069Y0179538D01*
X0090271Y0179421D01*
X0090475Y0179309D01*
X0090683Y0179203D01*
X0090892Y0179101D01*
X0091104Y0179004D01*
X0091319Y0178913D01*
X0091536Y0178827D01*
X0091754Y0178746D01*
X0091975Y0178670D01*
X0092197Y0178600D01*
X0092421Y0178536D01*
X0092647Y0178477D01*
X0092873Y0178423D01*
X0093102Y0178375D01*
X0093331Y0178333D01*
X0093100Y0178296D01*
X0092871Y0178254D01*
X0092642Y0178207D01*
X0092415Y0178153D01*
X0092189Y0178094D01*
X0091964Y0178030D01*
X0091741Y0177960D01*
X0091520Y0177885D01*
X0091301Y0177804D01*
X0091084Y0177718D01*
X0090869Y0177627D01*
X0090656Y0177530D01*
X0090446Y0177428D01*
X0090238Y0177321D01*
X0090033Y0177209D01*
X0089831Y0177092D01*
X0089632Y0176970D01*
X0089435Y0176844D01*
X0089242Y0176712D01*
X0089052Y0176576D01*
X0088866Y0176435D01*
X0088683Y0176290D01*
X0088504Y0176140D01*
X0088328Y0175986D01*
X0088157Y0175827D01*
X0087989Y0175665D01*
X0087825Y0175498D01*
X0087666Y0175328D01*
X0087510Y0175153D01*
X0087359Y0174975D01*
X0087213Y0174793D01*
X0087071Y0174608D01*
X0086933Y0174419D01*
X0086800Y0174227D01*
X0086672Y0174031D01*
X0086549Y0173833D01*
X0086431Y0173631D01*
X0086317Y0173427D01*
X0086209Y0173220D01*
X0086106Y0173011D01*
X0086008Y0172799D01*
X0085915Y0172584D01*
X0085827Y0172368D01*
X0085745Y0172149D01*
X0085668Y0171928D01*
X0085597Y0171706D01*
X0085531Y0171482D01*
X0085470Y0171256D01*
X0085416Y0171029D01*
X0085366Y0170801D01*
X0085323Y0170571D01*
X0085285Y0170341D01*
X0085252Y0170110D01*
X0085226Y0169878D01*
X0085205Y0169645D01*
X0085189Y0169412D01*
X0085180Y0169178D01*
X0085176Y0168945D01*
X0085178Y0168711D01*
X0085186Y0168478D01*
X0085199Y0168244D01*
X0085218Y0168012D01*
X0085243Y0167779D01*
X0085273Y0167548D01*
X0085309Y0167317D01*
X0085351Y0167087D01*
X0085399Y0166858D01*
X0085452Y0166631D01*
X0085510Y0166405D01*
X0085574Y0166180D01*
X0085644Y0165957D01*
X0085719Y0165736D01*
X0085799Y0165517D01*
X0085885Y0165299D01*
X0085976Y0165084D01*
X0086073Y0164871D01*
X0086174Y0164661D01*
X0086281Y0164453D01*
X0086392Y0164248D01*
X0086509Y0164046D01*
X0086631Y0163846D01*
X0086757Y0163650D01*
X0086889Y0163457D01*
X0087025Y0163267D01*
X0087165Y0163080D01*
X0087310Y0162897D01*
X0087460Y0162718D01*
X0087614Y0162542D01*
X0087772Y0162370D01*
X0087934Y0162202D01*
X0088101Y0162038D01*
X0088271Y0161878D01*
X0088445Y0161723D01*
X0088623Y0161572D01*
X0088805Y0161425D01*
X0088990Y0161282D01*
X0089179Y0161145D01*
X0089371Y0161011D01*
X0089566Y0160883D01*
X0089764Y0160760D01*
X0089966Y0160641D01*
X0090170Y0160527D01*
X0090376Y0160419D01*
X0090586Y0160315D01*
X0090798Y0160217D01*
X0091012Y0160124D01*
X0091228Y0160036D01*
X0091447Y0159953D01*
X0091667Y0159876D01*
X0091890Y0159805D01*
X0092114Y0159738D01*
X0092339Y0159678D01*
X0092566Y0159622D01*
X0092795Y0159573D01*
X0093024Y0159529D01*
X0093254Y0159491D01*
X0093486Y0159458D01*
X0093718Y0159431D01*
X0093950Y0159410D01*
X0094184Y0159394D01*
X0094417Y0159384D01*
X0094650Y0159380D01*
X0094884Y0159382D01*
X0095118Y0159389D01*
X0095351Y0159402D01*
X0095584Y0159421D01*
X0095816Y0159445D01*
X0096048Y0159476D01*
X0096048Y0159475D02*
X0095837Y0159374D01*
X0095629Y0159269D01*
X0095423Y0159159D01*
X0095220Y0159044D01*
X0095020Y0158924D01*
X0094823Y0158798D01*
X0094629Y0158669D01*
X0094439Y0158534D01*
X0094251Y0158395D01*
X0094067Y0158251D01*
X0093887Y0158103D01*
X0093711Y0157950D01*
X0093538Y0157793D01*
X0093369Y0157632D01*
X0093204Y0157467D01*
X0093043Y0157298D01*
X0092887Y0157125D01*
X0092735Y0156948D01*
X0092587Y0156768D01*
X0092443Y0156584D01*
X0092304Y0156396D01*
X0092170Y0156205D01*
X0092041Y0156011D01*
X0091916Y0155814D01*
X0091796Y0155614D01*
X0091681Y0155411D01*
X0091571Y0155205D01*
X0091466Y0154997D01*
X0091367Y0154786D01*
X0091272Y0154572D01*
X0091183Y0154357D01*
X0091099Y0154139D01*
X0091020Y0153919D01*
X0090947Y0153698D01*
X0090880Y0153474D01*
X0090817Y0153249D01*
X0090761Y0153023D01*
X0090710Y0152795D01*
X0090664Y0152567D01*
X0090624Y0152337D01*
X0090590Y0152106D01*
X0090561Y0151874D01*
X0090538Y0151642D01*
X0090521Y0151409D01*
X0090510Y0151176D01*
X0090504Y0150943D01*
X0090504Y0150710D01*
X0090509Y0150476D01*
X0090521Y0150243D01*
X0090538Y0150011D01*
X0090560Y0149778D01*
X0090589Y0149547D01*
X0090623Y0149316D01*
X0090663Y0149086D01*
X0090708Y0148857D01*
X0090759Y0148629D01*
X0090816Y0148403D01*
X0090878Y0148178D01*
X0090945Y0147955D01*
X0091018Y0147733D01*
X0091097Y0147513D01*
X0091180Y0147296D01*
X0091270Y0147080D01*
X0091364Y0146866D01*
X0091463Y0146655D01*
X0091568Y0146447D01*
X0091678Y0146241D01*
X0091793Y0146038D01*
X0091912Y0145838D01*
X0092037Y0145640D01*
X0092166Y0145446D01*
X0092301Y0145255D01*
X0092439Y0145068D01*
X0092583Y0144883D01*
X0092730Y0144703D01*
X0092883Y0144526D01*
X0093039Y0144353D01*
X0093200Y0144184D01*
X0093364Y0144018D01*
X0093533Y0143857D01*
X0093706Y0143700D01*
X0093882Y0143547D01*
X0094062Y0143399D01*
X0094246Y0143255D01*
X0094433Y0143116D01*
X0094624Y0142981D01*
X0094817Y0142851D01*
X0095014Y0142726D01*
X0095214Y0142606D01*
X0095417Y0142490D01*
X0095623Y0142380D01*
X0095831Y0142274D01*
X0096042Y0142174D01*
X0096255Y0142079D01*
X0096470Y0141989D01*
X0096688Y0141905D01*
X0096907Y0141826D01*
X0097129Y0141752D01*
X0097352Y0141684D01*
X0097576Y0141621D01*
X0097803Y0141564D01*
X0098030Y0141512D01*
X0098259Y0141466D01*
X0098489Y0141426D01*
X0098719Y0141391D01*
X0098951Y0141362D01*
X0099183Y0141338D01*
X0099416Y0141321D01*
X0099649Y0141308D01*
X0099882Y0141302D01*
X0100115Y0141301D01*
X0100349Y0141307D01*
X0100582Y0141317D01*
X0100815Y0141334D01*
X0101047Y0141356D01*
X0101279Y0141384D01*
X0101509Y0141417D01*
X0101739Y0141457D01*
X0101968Y0141501D01*
X0102196Y0141552D01*
X0102423Y0141608D01*
X0102648Y0141669D01*
X0102871Y0141736D01*
X0103093Y0141809D01*
X0103313Y0141887D01*
X0103531Y0141970D01*
X0103747Y0142059D01*
X0103961Y0142152D01*
X0103789Y0141995D01*
X0103620Y0141833D01*
X0103456Y0141667D01*
X0103296Y0141497D01*
X0103140Y0141323D01*
X0102989Y0141146D01*
X0102842Y0140964D01*
X0102699Y0140780D01*
X0102561Y0140591D01*
X0102427Y0140400D01*
X0102299Y0140205D01*
X0102175Y0140007D01*
X0102056Y0139807D01*
X0101942Y0139603D01*
X0101833Y0139397D01*
X0101729Y0139187D01*
X0101630Y0138976D01*
X0101536Y0138762D01*
X0101448Y0138546D01*
X0101365Y0138328D01*
X0101287Y0138108D01*
X0101215Y0137886D01*
X0101148Y0137662D01*
X0101087Y0137437D01*
X0101031Y0137210D01*
X0100981Y0136982D01*
X0100936Y0136753D01*
X0100897Y0136523D01*
X0100864Y0136292D01*
X0100836Y0136060D01*
X0100814Y0135828D01*
X0100798Y0135595D01*
X0100787Y0135362D01*
X0100782Y0135128D01*
X0100783Y0134895D01*
X0100790Y0134661D01*
X0100802Y0134428D01*
X0100820Y0134196D01*
X0100844Y0133963D01*
X0100873Y0133732D01*
X0100908Y0133501D01*
X0100949Y0133271D01*
X0100995Y0133042D01*
X0101047Y0132815D01*
X0101104Y0132588D01*
X0101167Y0132364D01*
X0101236Y0132140D01*
X0101309Y0131919D01*
X0101389Y0131699D01*
X0101473Y0131482D01*
X0101563Y0131266D01*
X0101658Y0131053D01*
X0101759Y0130842D01*
X0101864Y0130634D01*
X0101975Y0130429D01*
X0102090Y0130226D01*
X0102211Y0130026D01*
X0102336Y0129829D01*
X0102466Y0129635D01*
X0102601Y0129445D01*
X0102741Y0129257D01*
X0102885Y0129074D01*
X0103033Y0128893D01*
X0103186Y0128717D01*
X0103343Y0128544D01*
X0103504Y0128376D01*
X0103670Y0128211D01*
X0103839Y0128050D01*
X0104012Y0127894D01*
X0104189Y0127742D01*
X0104370Y0127594D01*
X0104554Y0127450D01*
X0104742Y0127312D01*
X0104933Y0127177D01*
X0105127Y0127048D01*
X0105325Y0126923D01*
X0105525Y0126804D01*
X0105728Y0126689D01*
X0105934Y0126579D01*
X0106143Y0126474D01*
X0106354Y0126375D01*
X0106568Y0126280D01*
X0106783Y0126191D01*
X0107001Y0126107D01*
X0107221Y0126029D01*
X0107443Y0125956D01*
X0107666Y0125888D01*
X0107891Y0125826D01*
X0108118Y0125770D01*
X0108346Y0125719D01*
X0108575Y0125673D01*
X0108805Y0125633D01*
X0109036Y0125599D01*
X0109267Y0125571D01*
X0109500Y0125548D01*
X0109732Y0125531D01*
X0109966Y0125519D01*
X0110199Y0125514D01*
X0110432Y0125514D01*
X0110666Y0125519D01*
X0110899Y0125531D01*
X0111132Y0125548D01*
X0111364Y0125571D01*
X0111596Y0125599D01*
X0111827Y0125634D01*
X0112057Y0125673D01*
X0112286Y0125719D01*
X0112513Y0125770D01*
X0112740Y0125827D01*
X0112965Y0125889D01*
X0113188Y0125956D01*
X0113410Y0126029D01*
X0113630Y0126108D01*
X0113848Y0126192D01*
X0114064Y0126281D01*
X0114277Y0126375D01*
X0114488Y0126475D01*
X0114697Y0126580D01*
X0114903Y0126690D01*
X0115106Y0126804D01*
X0115306Y0126924D01*
X0115504Y0127049D01*
X0115698Y0127178D01*
X0115889Y0127312D01*
X0116077Y0127451D01*
X0116261Y0127595D01*
X0116442Y0127742D01*
D11*
X0071437Y0178333D02*
X0071464Y0180513D01*
X0071544Y0182691D01*
X0071678Y0184867D01*
X0071865Y0187039D01*
X0072105Y0189206D01*
X0072398Y0191366D01*
X0072745Y0193518D01*
X0073144Y0195662D01*
X0073595Y0197794D01*
X0074099Y0199915D01*
X0074655Y0202023D01*
X0075262Y0204117D01*
X0075920Y0206195D01*
X0076629Y0208257D01*
X0077389Y0210300D01*
X0078198Y0212324D01*
X0079057Y0214328D01*
X0079965Y0216310D01*
X0080921Y0218269D01*
X0081925Y0220204D01*
X0082976Y0222114D01*
X0084074Y0223997D01*
X0085218Y0225853D01*
X0086406Y0227680D01*
X0087640Y0229478D01*
X0088917Y0231245D01*
X0090237Y0232980D01*
X0091599Y0234682D01*
X0093002Y0236350D01*
X0094446Y0237983D01*
X0095930Y0239580D01*
X0097453Y0241140D01*
X0099013Y0242663D01*
X0100610Y0244147D01*
X0102243Y0245591D01*
X0103911Y0246994D01*
X0105613Y0248356D01*
X0107348Y0249676D01*
X0109115Y0250953D01*
X0110913Y0252187D01*
X0112740Y0253375D01*
X0114596Y0254519D01*
X0116479Y0255617D01*
X0118389Y0256668D01*
X0120324Y0257672D01*
X0122283Y0258628D01*
X0124265Y0259536D01*
X0126269Y0260395D01*
X0128293Y0261204D01*
X0130336Y0261964D01*
X0132398Y0262673D01*
X0134476Y0263331D01*
X0136570Y0263938D01*
X0138678Y0264494D01*
X0140799Y0264998D01*
X0142931Y0265449D01*
X0145075Y0265848D01*
X0147227Y0266195D01*
X0149387Y0266488D01*
X0151554Y0266728D01*
X0153726Y0266915D01*
X0155902Y0267049D01*
X0158080Y0267129D01*
X0160260Y0267156D01*
X0162440Y0267129D01*
X0164618Y0267049D01*
X0166794Y0266915D01*
X0168966Y0266728D01*
X0171133Y0266488D01*
X0173293Y0266195D01*
X0175445Y0265848D01*
X0177589Y0265449D01*
X0179721Y0264998D01*
X0181842Y0264494D01*
X0183950Y0263938D01*
X0186044Y0263331D01*
X0188122Y0262673D01*
X0190184Y0261964D01*
X0192227Y0261204D01*
X0194251Y0260395D01*
X0196255Y0259536D01*
X0198237Y0258628D01*
X0200196Y0257672D01*
X0202131Y0256668D01*
X0204041Y0255617D01*
X0205924Y0254519D01*
X0207780Y0253375D01*
X0209607Y0252187D01*
X0211405Y0250953D01*
X0213172Y0249676D01*
X0214907Y0248356D01*
X0216609Y0246994D01*
X0218277Y0245591D01*
X0219910Y0244147D01*
X0221507Y0242663D01*
X0223067Y0241140D01*
X0224590Y0239580D01*
X0226074Y0237983D01*
X0227518Y0236350D01*
X0228921Y0234682D01*
X0230283Y0232980D01*
X0231603Y0231245D01*
X0232880Y0229478D01*
X0234114Y0227680D01*
X0235302Y0225853D01*
X0236446Y0223997D01*
X0237544Y0222114D01*
X0238595Y0220204D01*
X0239599Y0218269D01*
X0240555Y0216310D01*
X0241463Y0214328D01*
X0242322Y0212324D01*
X0243131Y0210300D01*
X0243891Y0208257D01*
X0244600Y0206195D01*
X0245258Y0204117D01*
X0245865Y0202023D01*
X0246421Y0199915D01*
X0246925Y0197794D01*
X0247376Y0195662D01*
X0247775Y0193518D01*
X0248122Y0191366D01*
X0248415Y0189206D01*
X0248655Y0187039D01*
X0248842Y0184867D01*
X0248976Y0182691D01*
X0249056Y0180513D01*
X0249083Y0178333D01*
X0249056Y0176153D01*
X0248976Y0173975D01*
X0248842Y0171799D01*
X0248655Y0169627D01*
X0248415Y0167460D01*
X0248122Y0165300D01*
X0247775Y0163148D01*
X0247376Y0161004D01*
X0246925Y0158872D01*
X0246421Y0156751D01*
X0245865Y0154643D01*
X0245258Y0152549D01*
X0244600Y0150471D01*
X0243891Y0148409D01*
X0243131Y0146366D01*
X0242322Y0144342D01*
X0241463Y0142338D01*
X0240555Y0140356D01*
X0239599Y0138397D01*
X0238595Y0136462D01*
X0237544Y0134552D01*
X0236446Y0132669D01*
X0235302Y0130813D01*
X0234114Y0128986D01*
X0232880Y0127188D01*
X0231603Y0125421D01*
X0230283Y0123686D01*
X0228921Y0121984D01*
X0227518Y0120316D01*
X0226074Y0118683D01*
X0224590Y0117086D01*
X0223067Y0115526D01*
X0221507Y0114003D01*
X0219910Y0112519D01*
X0218277Y0111075D01*
X0216609Y0109672D01*
X0214907Y0108310D01*
X0213172Y0106990D01*
X0211405Y0105713D01*
X0209607Y0104479D01*
X0207780Y0103291D01*
X0205924Y0102147D01*
X0204041Y0101049D01*
X0202131Y0099998D01*
X0200196Y0098994D01*
X0198237Y0098038D01*
X0196255Y0097130D01*
X0194251Y0096271D01*
X0192227Y0095462D01*
X0190184Y0094702D01*
X0188122Y0093993D01*
X0186044Y0093335D01*
X0183950Y0092728D01*
X0181842Y0092172D01*
X0179721Y0091668D01*
X0177589Y0091217D01*
X0175445Y0090818D01*
X0173293Y0090471D01*
X0171133Y0090178D01*
X0168966Y0089938D01*
X0166794Y0089751D01*
X0164618Y0089617D01*
X0162440Y0089537D01*
X0160260Y0089510D01*
X0158080Y0089537D01*
X0155902Y0089617D01*
X0153726Y0089751D01*
X0151554Y0089938D01*
X0149387Y0090178D01*
X0147227Y0090471D01*
X0145075Y0090818D01*
X0142931Y0091217D01*
X0140799Y0091668D01*
X0138678Y0092172D01*
X0136570Y0092728D01*
X0134476Y0093335D01*
X0132398Y0093993D01*
X0130336Y0094702D01*
X0128293Y0095462D01*
X0126269Y0096271D01*
X0124265Y0097130D01*
X0122283Y0098038D01*
X0120324Y0098994D01*
X0118389Y0099998D01*
X0116479Y0101049D01*
X0114596Y0102147D01*
X0112740Y0103291D01*
X0110913Y0104479D01*
X0109115Y0105713D01*
X0107348Y0106990D01*
X0105613Y0108310D01*
X0103911Y0109672D01*
X0102243Y0111075D01*
X0100610Y0112519D01*
X0099013Y0114003D01*
X0097453Y0115526D01*
X0095930Y0117086D01*
X0094446Y0118683D01*
X0093002Y0120316D01*
X0091599Y0121984D01*
X0090237Y0123686D01*
X0088917Y0125421D01*
X0087640Y0127188D01*
X0086406Y0128986D01*
X0085218Y0130813D01*
X0084074Y0132669D01*
X0082976Y0134552D01*
X0081925Y0136462D01*
X0080921Y0138397D01*
X0079965Y0140356D01*
X0079057Y0142338D01*
X0078198Y0144342D01*
X0077389Y0146366D01*
X0076629Y0148409D01*
X0075920Y0150471D01*
X0075262Y0152549D01*
X0074655Y0154643D01*
X0074099Y0156751D01*
X0073595Y0158872D01*
X0073144Y0161004D01*
X0072745Y0163148D01*
X0072398Y0165300D01*
X0072105Y0167460D01*
X0071865Y0169627D01*
X0071678Y0171799D01*
X0071544Y0173975D01*
X0071464Y0176153D01*
X0071437Y0178333D01*
D12*
X0085457Y0178333D02*
X0090182Y0178333D01*
X0087032Y0175971D01*
X0085457Y0173215D01*
X0085457Y0183058D01*
X0090182Y0178333D01*
X0088215Y0180300D02*
X0085457Y0180300D01*
X0085457Y0182267D02*
X0086248Y0182267D01*
X0085457Y0176366D02*
X0087559Y0176366D01*
X0086134Y0174399D02*
X0085457Y0174399D01*
X0087032Y0161798D02*
X0093331Y0158648D01*
X0090575Y0155499D01*
X0089788Y0151562D01*
X0087032Y0161798D01*
X0087346Y0160630D02*
X0089367Y0160630D01*
X0087876Y0158663D02*
X0093302Y0158663D01*
X0091623Y0156696D02*
X0088406Y0156696D01*
X0088935Y0154729D02*
X0090421Y0154729D01*
X0090028Y0152762D02*
X0089465Y0152762D01*
X0093331Y0142507D02*
X0099237Y0140538D01*
X0101599Y0140538D01*
X0100024Y0136207D01*
X0100418Y0131483D01*
X0093331Y0142507D01*
X0094325Y0140960D02*
X0097971Y0140960D01*
X0095590Y0138993D02*
X0101037Y0138993D01*
X0100322Y0137026D02*
X0096854Y0137026D01*
X0098119Y0135059D02*
X0100120Y0135059D01*
X0100284Y0133092D02*
X0099384Y0133092D01*
X0105142Y0125577D02*
X0110654Y0124790D01*
X0114591Y0125184D01*
X0114197Y0120853D01*
X0116166Y0116522D01*
X0105142Y0125577D01*
X0105573Y0125224D02*
X0107617Y0125224D01*
X0107967Y0123257D02*
X0114416Y0123257D01*
X0114237Y0121290D02*
X0110362Y0121290D01*
X0112757Y0119323D02*
X0114893Y0119323D01*
X0115151Y0117356D02*
X0115787Y0117356D01*
X0123253Y0112192D02*
X0131127Y0114160D01*
X0133882Y0107467D01*
X0123253Y0112192D01*
X0124910Y0111455D02*
X0132240Y0111455D01*
X0131431Y0113422D02*
X0128173Y0113422D01*
X0129336Y0109488D02*
X0133050Y0109488D01*
X0133762Y0107521D02*
X0133860Y0107521D01*
X0144906Y0104711D02*
X0150418Y0108648D01*
X0154749Y0103530D01*
X0144906Y0104711D01*
X0146086Y0105554D02*
X0153036Y0105554D01*
X0154277Y0103587D02*
X0154701Y0103587D01*
X0151372Y0107521D02*
X0148839Y0107521D01*
X0166166Y0103530D02*
X0170103Y0108648D01*
X0175615Y0104711D01*
X0166166Y0103530D01*
X0166209Y0103587D02*
X0166618Y0103587D01*
X0167723Y0105554D02*
X0174435Y0105554D01*
X0171681Y0107521D02*
X0169236Y0107521D01*
X0186638Y0107467D02*
X0189394Y0114160D01*
X0197662Y0112192D01*
X0186638Y0107467D01*
X0186660Y0107521D02*
X0186763Y0107521D01*
X0187470Y0109488D02*
X0191353Y0109488D01*
X0188280Y0111455D02*
X0195943Y0111455D01*
X0192495Y0113422D02*
X0189090Y0113422D01*
X0204749Y0116916D02*
X0206717Y0122034D01*
X0206323Y0125184D01*
X0211048Y0124790D01*
X0215379Y0125971D01*
X0204749Y0116916D01*
X0204918Y0117356D02*
X0205265Y0117356D01*
X0205674Y0119323D02*
X0207574Y0119323D01*
X0206431Y0121290D02*
X0209883Y0121290D01*
X0212192Y0123257D02*
X0206564Y0123257D01*
X0212639Y0125224D02*
X0214501Y0125224D01*
X0230733Y0151562D02*
X0227977Y0158648D01*
X0233882Y0162192D01*
X0230733Y0151562D01*
X0231089Y0152762D02*
X0230266Y0152762D01*
X0229501Y0154729D02*
X0231671Y0154729D01*
X0232254Y0156696D02*
X0228736Y0156696D01*
X0228002Y0158663D02*
X0232837Y0158663D01*
X0233420Y0160630D02*
X0231280Y0160630D01*
X0235064Y0174003D02*
X0230339Y0178333D01*
X0235064Y0178333D01*
X0235064Y0176366D02*
X0232485Y0176366D01*
X0234631Y0174399D02*
X0235064Y0174399D01*
X0235064Y0174003D02*
X0235064Y0183058D01*
X0230339Y0178333D01*
X0232306Y0180300D02*
X0235064Y0180300D01*
X0235064Y0182267D02*
X0234273Y0182267D01*
X0233489Y0194869D02*
X0227977Y0198412D01*
X0230339Y0202349D01*
X0230733Y0205105D01*
X0233489Y0194869D01*
X0233174Y0196036D02*
X0231672Y0196036D01*
X0232645Y0198003D02*
X0228613Y0198003D01*
X0228912Y0199970D02*
X0232115Y0199970D01*
X0231586Y0201938D02*
X0230092Y0201938D01*
X0230561Y0203905D02*
X0231056Y0203905D01*
X0227190Y0214160D02*
X0219316Y0216522D01*
X0220497Y0220066D01*
X0220103Y0225184D01*
X0227190Y0214160D01*
X0226195Y0215707D02*
X0222034Y0215707D01*
X0219699Y0217674D02*
X0224931Y0217674D01*
X0223666Y0219641D02*
X0220355Y0219641D01*
X0220378Y0221608D02*
X0222402Y0221608D01*
X0221137Y0223575D02*
X0220227Y0223575D01*
X0214985Y0231089D02*
X0208292Y0232270D01*
X0206323Y0231483D01*
X0206323Y0235814D01*
X0204749Y0240144D01*
X0214985Y0231089D01*
X0214585Y0231443D02*
X0212982Y0231443D01*
X0212362Y0233410D02*
X0206323Y0233410D01*
X0206323Y0235377D02*
X0210138Y0235377D01*
X0207914Y0237344D02*
X0205767Y0237344D01*
X0205691Y0239311D02*
X0205052Y0239311D01*
X0197268Y0244475D02*
X0189394Y0242507D01*
X0186245Y0249199D01*
X0197268Y0244475D01*
X0195549Y0245212D02*
X0188121Y0245212D01*
X0187196Y0247179D02*
X0190959Y0247179D01*
X0192347Y0243245D02*
X0189047Y0243245D01*
X0186370Y0249146D02*
X0186270Y0249146D01*
X0154355Y0253136D02*
X0150418Y0248412D01*
X0144512Y0251955D01*
X0154355Y0253136D01*
X0154308Y0253080D02*
X0153883Y0253080D01*
X0152669Y0251113D02*
X0145917Y0251113D01*
X0149195Y0249146D02*
X0151029Y0249146D01*
X0115772Y0239751D02*
X0114197Y0234633D01*
X0114591Y0231089D01*
X0110654Y0232270D01*
X0105142Y0230696D01*
X0115772Y0239751D01*
X0115637Y0239311D02*
X0115256Y0239311D01*
X0115032Y0237344D02*
X0112947Y0237344D01*
X0114426Y0235377D02*
X0110638Y0235377D01*
X0108329Y0233410D02*
X0114333Y0233410D01*
X0114552Y0231443D02*
X0113413Y0231443D01*
X0107758Y0231443D02*
X0106019Y0231443D01*
X0100418Y0225184D02*
X0100024Y0219672D01*
X0101599Y0216129D01*
X0098056Y0216129D01*
X0093331Y0213766D01*
X0100418Y0225184D01*
X0100303Y0223575D02*
X0099419Y0223575D01*
X0100162Y0221608D02*
X0098198Y0221608D01*
X0096977Y0219641D02*
X0100038Y0219641D01*
X0100912Y0217674D02*
X0095756Y0217674D01*
X0094536Y0215707D02*
X0097212Y0215707D01*
X0089788Y0204711D02*
X0091363Y0199987D01*
X0092938Y0198018D01*
X0086638Y0194475D01*
X0089788Y0204711D01*
X0089540Y0203905D02*
X0090057Y0203905D01*
X0090713Y0201938D02*
X0088934Y0201938D01*
X0088329Y0199970D02*
X0091376Y0199970D01*
X0092911Y0198003D02*
X0087724Y0198003D01*
X0087119Y0196036D02*
X0089414Y0196036D01*
D13*
X0122465Y0244081D02*
X0127977Y0243688D01*
X0131127Y0242113D01*
X0131520Y0245656D01*
X0134276Y0249199D01*
X0122465Y0244081D01*
X0125720Y0245492D02*
X0131502Y0245492D01*
X0131255Y0247890D02*
X0133258Y0247890D01*
X0131235Y0243093D02*
X0129166Y0243093D01*
X0165772Y0253136D02*
X0168922Y0250381D01*
X0170103Y0247231D01*
X0172071Y0249593D01*
X0176402Y0251955D01*
X0165772Y0253136D01*
X0166286Y0252687D02*
X0169816Y0252687D01*
X0168956Y0250289D02*
X0173347Y0250289D01*
X0170652Y0247890D02*
X0169856Y0247890D01*
X0219316Y0140538D02*
X0223646Y0140932D01*
X0227190Y0143294D01*
X0219709Y0131089D01*
X0220497Y0136995D01*
X0219316Y0140538D01*
X0219509Y0139957D02*
X0225144Y0139957D01*
X0225782Y0142356D02*
X0226614Y0142356D01*
X0223674Y0137559D02*
X0220309Y0137559D01*
X0220252Y0135160D02*
X0222204Y0135160D01*
X0220734Y0132762D02*
X0219932Y0132762D01*
D14*
X0177160Y0167310D03*
X0177160Y0170459D03*
X0177160Y0173609D03*
X0177160Y0176759D03*
X0177160Y0179908D03*
X0177160Y0183058D03*
X0177160Y0186207D03*
X0177160Y0189357D03*
X0143360Y0189357D03*
X0143360Y0186207D03*
X0143360Y0183058D03*
X0143360Y0179908D03*
X0143360Y0176759D03*
X0143360Y0173609D03*
X0143360Y0170459D03*
X0143360Y0167310D03*
D15*
X0149237Y0161433D03*
X0152386Y0161433D03*
X0155536Y0161433D03*
X0158686Y0161433D03*
X0161835Y0161433D03*
X0164985Y0161433D03*
X0168134Y0161433D03*
X0171284Y0161433D03*
X0171284Y0195233D03*
X0168134Y0195233D03*
X0164985Y0195233D03*
X0161835Y0195233D03*
X0158686Y0195233D03*
X0155536Y0195233D03*
X0152386Y0195233D03*
X0149237Y0195233D03*
D16*
X0095783Y0234201D03*
X0114143Y0250124D03*
X0136160Y0260464D03*
X0160260Y0263648D03*
X0184282Y0260228D03*
X0206417Y0250124D03*
X0224738Y0234201D03*
X0237988Y0213875D03*
X0244710Y0190482D03*
X0244710Y0166185D03*
X0237869Y0142870D03*
X0224738Y0122466D03*
X0206496Y0106464D03*
X0184282Y0096439D03*
X0160260Y0093018D03*
X0136238Y0096439D03*
X0114104Y0106543D03*
X0095783Y0122466D03*
X0082533Y0142831D03*
X0075653Y0166145D03*
X0075810Y0190482D03*
X0082533Y0213836D03*
D17*
X0106237Y0097684D02*
X0119698Y0097684D01*
X0119428Y0097415D02*
X0120544Y0098528D01*
X0121472Y0099801D01*
X0127992Y0114329D01*
X0126601Y0113884D01*
X0125158Y0113666D01*
X0123698Y0113681D01*
X0122260Y0113929D01*
X0120879Y0114403D01*
X0119591Y0115091D01*
X0118430Y0115975D01*
X0117424Y0117033D01*
X0116600Y0118238D01*
X0115979Y0119559D01*
X0115576Y0120962D01*
X0115402Y0122412D01*
X0104907Y0110436D01*
X0104135Y0109062D01*
X0103588Y0107584D01*
X0103278Y0106039D01*
X0103215Y0104465D01*
X0103398Y0102900D01*
X0103824Y0101383D01*
X0104481Y0099951D01*
X0105355Y0098640D01*
X0106423Y0097482D01*
X0107659Y0096504D01*
X0109062Y0095787D01*
X0110560Y0095299D01*
X0112116Y0095050D01*
X0113692Y0095048D01*
X0115248Y0095292D01*
X0116747Y0095777D01*
X0118152Y0096491D01*
X0119428Y0097415D01*
X0118697Y0096885D02*
X0107177Y0096885D01*
X0108477Y0096087D02*
X0117357Y0096087D01*
X0115221Y0095288D02*
X0110625Y0095288D01*
X0105500Y0098482D02*
X0120498Y0098482D01*
X0121093Y0099281D02*
X0104928Y0099281D01*
X0104423Y0100079D02*
X0121597Y0100079D01*
X0121955Y0100878D02*
X0104056Y0100878D01*
X0103741Y0101676D02*
X0122313Y0101676D01*
X0122672Y0102475D02*
X0103517Y0102475D01*
X0103354Y0103273D02*
X0123030Y0103273D01*
X0123388Y0104072D02*
X0103261Y0104072D01*
X0103231Y0104870D02*
X0123747Y0104870D01*
X0124105Y0105669D02*
X0103263Y0105669D01*
X0103364Y0106467D02*
X0124463Y0106467D01*
X0124822Y0107266D02*
X0103524Y0107266D01*
X0103766Y0108064D02*
X0125180Y0108064D01*
X0125538Y0108863D02*
X0104061Y0108863D01*
X0104472Y0109661D02*
X0125897Y0109661D01*
X0126255Y0110460D02*
X0104928Y0110460D01*
X0105628Y0111258D02*
X0126613Y0111258D01*
X0126972Y0112057D02*
X0106327Y0112057D01*
X0107027Y0112855D02*
X0127330Y0112855D01*
X0127689Y0113654D02*
X0107727Y0113654D01*
X0108427Y0114452D02*
X0120786Y0114452D01*
X0119381Y0115251D02*
X0109127Y0115251D01*
X0109826Y0116049D02*
X0118359Y0116049D01*
X0117600Y0116848D02*
X0110526Y0116848D01*
X0111226Y0117646D02*
X0117005Y0117646D01*
X0116503Y0118445D02*
X0111926Y0118445D01*
X0112626Y0119243D02*
X0116127Y0119243D01*
X0115840Y0120042D02*
X0113325Y0120042D01*
X0114025Y0120841D02*
X0115611Y0120841D01*
X0115495Y0121639D02*
X0114725Y0121639D01*
X0110293Y0124833D02*
X0085186Y0124833D01*
X0085256Y0125039D02*
X0084750Y0123547D01*
X0084484Y0121994D01*
X0084464Y0120418D01*
X0084691Y0118859D01*
X0085159Y0117354D01*
X0085856Y0115942D01*
X0086766Y0114655D01*
X0087910Y0113571D01*
X0089208Y0112679D01*
X0090631Y0112002D01*
X0092142Y0111555D01*
X0093704Y0111350D01*
X0095279Y0111392D01*
X0096828Y0111679D01*
X0098313Y0112206D01*
X0099698Y0112958D01*
X0100947Y0113918D01*
X0111304Y0126014D01*
X0109845Y0125980D01*
X0108398Y0126178D01*
X0107002Y0126605D01*
X0105692Y0127248D01*
X0104501Y0128093D01*
X0103460Y0129116D01*
X0102596Y0130293D01*
X0101930Y0131592D01*
X0101480Y0132980D01*
X0101257Y0134423D01*
X0101266Y0135883D01*
X0101509Y0137322D01*
X0088059Y0128797D01*
X0086931Y0127697D01*
X0085989Y0126434D01*
X0085256Y0125039D01*
X0085567Y0125632D02*
X0110976Y0125632D01*
X0109609Y0124035D02*
X0084915Y0124035D01*
X0084697Y0123236D02*
X0108925Y0123236D01*
X0108242Y0122438D02*
X0084560Y0122438D01*
X0084479Y0121639D02*
X0107558Y0121639D01*
X0106874Y0120841D02*
X0084469Y0120841D01*
X0084519Y0120042D02*
X0106191Y0120042D01*
X0105507Y0119243D02*
X0084635Y0119243D01*
X0084819Y0118445D02*
X0104823Y0118445D01*
X0104140Y0117646D02*
X0085068Y0117646D01*
X0085409Y0116848D02*
X0103456Y0116848D01*
X0102772Y0116049D02*
X0085803Y0116049D01*
X0086345Y0115251D02*
X0102089Y0115251D01*
X0101405Y0114452D02*
X0086980Y0114452D01*
X0087822Y0113654D02*
X0100604Y0113654D01*
X0099508Y0112855D02*
X0088952Y0112855D01*
X0090515Y0112057D02*
X0097893Y0112057D01*
X0105733Y0127229D02*
X0086582Y0127229D01*
X0085987Y0126430D02*
X0107574Y0126430D01*
X0104594Y0128027D02*
X0087270Y0128027D01*
X0088104Y0128826D02*
X0103756Y0128826D01*
X0103087Y0129624D02*
X0089364Y0129624D01*
X0090624Y0130423D02*
X0102529Y0130423D01*
X0102120Y0131221D02*
X0091884Y0131221D01*
X0093143Y0132020D02*
X0101791Y0132020D01*
X0101532Y0132818D02*
X0094403Y0132818D01*
X0095663Y0133617D02*
X0101381Y0133617D01*
X0101258Y0134415D02*
X0096922Y0134415D01*
X0098182Y0135214D02*
X0101262Y0135214D01*
X0101288Y0136012D02*
X0099442Y0136012D01*
X0100702Y0136811D02*
X0101423Y0136811D01*
X0095582Y0140005D02*
X0071059Y0140005D01*
X0071168Y0139375D02*
X0071678Y0137884D01*
X0072469Y0136521D01*
X0073463Y0135299D01*
X0074637Y0134247D01*
X0075960Y0133392D01*
X0077401Y0132754D01*
X0078923Y0132350D01*
X0080491Y0132188D01*
X0082064Y0132274D01*
X0083605Y0132605D01*
X0085074Y0133173D01*
X0098425Y0141853D01*
X0097015Y0142232D01*
X0095684Y0142831D01*
X0094465Y0143634D01*
X0093390Y0144621D01*
X0092486Y0145768D01*
X0091776Y0147043D01*
X0091279Y0148416D01*
X0091007Y0149850D01*
X0090967Y0151309D01*
X0091160Y0152756D01*
X0091582Y0154154D01*
X0092221Y0155466D01*
X0076911Y0151085D01*
X0075518Y0150349D01*
X0074258Y0149403D01*
X0073161Y0148272D01*
X0072254Y0146983D01*
X0071561Y0145569D01*
X0071097Y0144063D01*
X0070874Y0142503D01*
X0070898Y0140927D01*
X0071168Y0139375D01*
X0071226Y0139206D02*
X0094354Y0139206D01*
X0093126Y0138408D02*
X0071499Y0138408D01*
X0071838Y0137609D02*
X0091898Y0137609D01*
X0090670Y0136811D02*
X0072301Y0136811D01*
X0072883Y0136012D02*
X0089442Y0136012D01*
X0088213Y0135214D02*
X0073559Y0135214D01*
X0074449Y0134415D02*
X0086985Y0134415D01*
X0085757Y0133617D02*
X0075612Y0133617D01*
X0077256Y0132818D02*
X0084156Y0132818D01*
X0094069Y0143997D02*
X0071087Y0143997D01*
X0070974Y0143199D02*
X0095125Y0143199D01*
X0096640Y0142400D02*
X0070876Y0142400D01*
X0070888Y0141602D02*
X0098039Y0141602D01*
X0096811Y0140803D02*
X0070920Y0140803D01*
X0071323Y0144796D02*
X0093252Y0144796D01*
X0092622Y0145594D02*
X0071573Y0145594D01*
X0071965Y0146393D02*
X0092138Y0146393D01*
X0091722Y0147191D02*
X0072401Y0147191D01*
X0072963Y0147990D02*
X0091433Y0147990D01*
X0091208Y0148788D02*
X0073662Y0148788D01*
X0074503Y0149587D02*
X0091057Y0149587D01*
X0090992Y0150385D02*
X0075588Y0150385D01*
X0077255Y0151184D02*
X0090970Y0151184D01*
X0091057Y0151982D02*
X0080046Y0151982D01*
X0082836Y0152781D02*
X0091168Y0152781D01*
X0091409Y0153579D02*
X0085627Y0153579D01*
X0088417Y0154378D02*
X0091691Y0154378D01*
X0092080Y0155177D02*
X0091207Y0155177D01*
X0090631Y0160746D02*
X0075381Y0156162D01*
X0073811Y0156030D01*
X0072240Y0156145D01*
X0070705Y0156504D01*
X0069246Y0157099D01*
X0067898Y0157914D01*
X0066694Y0158931D01*
X0065664Y0160123D01*
X0064834Y0161462D01*
X0064222Y0162914D01*
X0063846Y0164444D01*
X0063775Y0166018D01*
X0063951Y0167584D01*
X0064370Y0169103D01*
X0065022Y0170537D01*
X0065890Y0171852D01*
X0066953Y0173016D01*
X0068184Y0173998D01*
X0069555Y0174776D01*
X0071030Y0175330D01*
X0072573Y0175646D01*
X0088497Y0175554D01*
X0087516Y0174473D01*
X0086719Y0173250D01*
X0086127Y0171916D01*
X0085756Y0170504D01*
X0085614Y0169051D01*
X0085706Y0167594D01*
X0086030Y0166171D01*
X0086576Y0164817D01*
X0087330Y0163567D01*
X0088275Y0162454D01*
X0089384Y0161506D01*
X0090631Y0160746D01*
X0090599Y0160766D02*
X0065265Y0160766D01*
X0064790Y0161565D02*
X0089315Y0161565D01*
X0088381Y0162363D02*
X0064454Y0162363D01*
X0064161Y0163162D02*
X0087674Y0163162D01*
X0087093Y0163960D02*
X0063965Y0163960D01*
X0063832Y0164759D02*
X0086611Y0164759D01*
X0086277Y0165557D02*
X0063796Y0165557D01*
X0063813Y0166356D02*
X0085988Y0166356D01*
X0085806Y0167154D02*
X0063903Y0167154D01*
X0064053Y0167953D02*
X0085684Y0167953D01*
X0085633Y0168751D02*
X0064273Y0168751D01*
X0064573Y0169550D02*
X0085663Y0169550D01*
X0085741Y0170348D02*
X0064936Y0170348D01*
X0065424Y0171147D02*
X0085925Y0171147D01*
X0086140Y0171945D02*
X0065975Y0171945D01*
X0066704Y0172744D02*
X0086494Y0172744D01*
X0086909Y0173542D02*
X0067613Y0173542D01*
X0068788Y0174341D02*
X0087429Y0174341D01*
X0088121Y0175139D02*
X0070523Y0175139D01*
X0071187Y0181298D02*
X0069712Y0181852D01*
X0068342Y0182629D01*
X0067110Y0183612D01*
X0066047Y0184775D01*
X0065179Y0186090D01*
X0064528Y0187525D01*
X0064109Y0189044D01*
X0063932Y0190609D01*
X0064003Y0192183D01*
X0064380Y0193713D01*
X0064991Y0195166D01*
X0065822Y0196504D01*
X0066852Y0197697D01*
X0068056Y0198713D01*
X0069404Y0199529D01*
X0070863Y0200124D01*
X0072397Y0200483D01*
X0073969Y0200598D01*
X0075539Y0200465D01*
X0090789Y0195881D01*
X0089542Y0195122D01*
X0088432Y0194173D01*
X0087488Y0193060D01*
X0086733Y0191811D01*
X0086187Y0190457D01*
X0085864Y0189033D01*
X0085772Y0187576D01*
X0085913Y0186123D01*
X0086285Y0184711D01*
X0086876Y0183377D01*
X0087673Y0182154D01*
X0088655Y0181073D01*
X0072731Y0180981D01*
X0071187Y0181298D01*
X0070576Y0181527D02*
X0088242Y0181527D01*
X0087561Y0182326D02*
X0068877Y0182326D01*
X0067721Y0183124D02*
X0087041Y0183124D01*
X0086634Y0183923D02*
X0066826Y0183923D01*
X0066096Y0184721D02*
X0086282Y0184721D01*
X0086072Y0185520D02*
X0065556Y0185520D01*
X0065076Y0186318D02*
X0085894Y0186318D01*
X0085817Y0187117D02*
X0064713Y0187117D01*
X0064420Y0187915D02*
X0085793Y0187915D01*
X0085844Y0188714D02*
X0064200Y0188714D01*
X0064056Y0189512D02*
X0085973Y0189512D01*
X0086154Y0190311D02*
X0063966Y0190311D01*
X0063955Y0191110D02*
X0086450Y0191110D01*
X0086792Y0191908D02*
X0063991Y0191908D01*
X0064132Y0192707D02*
X0087274Y0192707D01*
X0087865Y0193505D02*
X0064328Y0193505D01*
X0064628Y0194304D02*
X0088585Y0194304D01*
X0089519Y0195102D02*
X0064964Y0195102D01*
X0065447Y0195901D02*
X0090724Y0195901D01*
X0088067Y0196699D02*
X0065990Y0196699D01*
X0066680Y0197498D02*
X0085411Y0197498D01*
X0082754Y0198296D02*
X0067562Y0198296D01*
X0068686Y0199095D02*
X0080098Y0199095D01*
X0077442Y0199893D02*
X0070298Y0199893D01*
X0075518Y0206318D02*
X0076911Y0205581D01*
X0092221Y0201200D01*
X0091582Y0202513D01*
X0091160Y0203910D01*
X0090967Y0205357D01*
X0091007Y0206817D01*
X0091279Y0208251D01*
X0091776Y0209623D01*
X0092486Y0210899D01*
X0093390Y0212045D01*
X0094465Y0213033D01*
X0095684Y0213836D01*
X0097015Y0214435D01*
X0098425Y0214814D01*
X0085074Y0223494D01*
X0083605Y0224062D01*
X0082064Y0224393D01*
X0080491Y0224478D01*
X0078923Y0224317D01*
X0077401Y0223912D01*
X0075960Y0223275D01*
X0074636Y0222419D01*
X0073463Y0221368D01*
X0072469Y0220145D01*
X0071678Y0218782D01*
X0071169Y0217292D01*
X0070898Y0215739D01*
X0070874Y0214164D01*
X0071097Y0212604D01*
X0071561Y0211098D01*
X0072255Y0209684D01*
X0073161Y0208395D01*
X0074258Y0207264D01*
X0075518Y0206318D01*
X0075588Y0206281D02*
X0090992Y0206281D01*
X0090970Y0205483D02*
X0077255Y0205483D01*
X0080046Y0204684D02*
X0091057Y0204684D01*
X0091168Y0203886D02*
X0082836Y0203886D01*
X0085627Y0203087D02*
X0091409Y0203087D01*
X0091691Y0202289D02*
X0088417Y0202289D01*
X0091207Y0201490D02*
X0092080Y0201490D01*
X0091057Y0207080D02*
X0074503Y0207080D01*
X0073662Y0207878D02*
X0091208Y0207878D01*
X0091433Y0208677D02*
X0072963Y0208677D01*
X0072401Y0209475D02*
X0091722Y0209475D01*
X0092138Y0210274D02*
X0071965Y0210274D01*
X0071574Y0211072D02*
X0092622Y0211072D01*
X0093252Y0211871D02*
X0071323Y0211871D01*
X0071088Y0212669D02*
X0094069Y0212669D01*
X0095125Y0213468D02*
X0070974Y0213468D01*
X0070876Y0214266D02*
X0096640Y0214266D01*
X0096811Y0215863D02*
X0070920Y0215863D01*
X0070888Y0215065D02*
X0098039Y0215065D01*
X0095582Y0216662D02*
X0071059Y0216662D01*
X0071226Y0217460D02*
X0094354Y0217460D01*
X0093126Y0218259D02*
X0071499Y0218259D01*
X0071838Y0219057D02*
X0091898Y0219057D01*
X0090670Y0219856D02*
X0072301Y0219856D01*
X0072883Y0220654D02*
X0089442Y0220654D01*
X0088213Y0221453D02*
X0073558Y0221453D01*
X0074449Y0222251D02*
X0086985Y0222251D01*
X0085757Y0223050D02*
X0075612Y0223050D01*
X0077256Y0223848D02*
X0084156Y0223848D01*
X0088059Y0227870D02*
X0101509Y0219344D01*
X0101266Y0220784D01*
X0101257Y0222244D01*
X0101480Y0223686D01*
X0101930Y0225075D01*
X0102596Y0226374D01*
X0103460Y0227550D01*
X0104501Y0228574D01*
X0105692Y0229418D01*
X0107002Y0230062D01*
X0108398Y0230488D01*
X0109845Y0230687D01*
X0111304Y0230652D01*
X0100947Y0242749D01*
X0099698Y0243708D01*
X0098313Y0244461D01*
X0096828Y0244987D01*
X0095279Y0245275D01*
X0093704Y0245317D01*
X0092142Y0245112D01*
X0090631Y0244665D01*
X0089208Y0243987D01*
X0087909Y0243095D01*
X0086766Y0242011D01*
X0085856Y0240725D01*
X0085159Y0239312D01*
X0084691Y0237808D01*
X0084464Y0236248D01*
X0084484Y0234673D01*
X0084750Y0233120D01*
X0085256Y0231628D01*
X0085989Y0230233D01*
X0086931Y0228970D01*
X0088059Y0227870D01*
X0088104Y0227841D02*
X0103756Y0227841D01*
X0103087Y0227043D02*
X0089364Y0227043D01*
X0090624Y0226244D02*
X0102529Y0226244D01*
X0102120Y0225445D02*
X0091883Y0225445D01*
X0093143Y0224647D02*
X0101791Y0224647D01*
X0101532Y0223848D02*
X0094403Y0223848D01*
X0095663Y0223050D02*
X0101381Y0223050D01*
X0101258Y0222251D02*
X0096922Y0222251D01*
X0098182Y0221453D02*
X0101262Y0221453D01*
X0101288Y0220654D02*
X0099442Y0220654D01*
X0100702Y0219856D02*
X0101423Y0219856D01*
X0104594Y0228640D02*
X0087270Y0228640D01*
X0086582Y0229438D02*
X0105733Y0229438D01*
X0107574Y0230237D02*
X0085987Y0230237D01*
X0085567Y0231035D02*
X0110976Y0231035D01*
X0110293Y0231834D02*
X0085186Y0231834D01*
X0084915Y0232632D02*
X0109609Y0232632D01*
X0108925Y0233431D02*
X0084697Y0233431D01*
X0084560Y0234229D02*
X0108242Y0234229D01*
X0107558Y0235028D02*
X0084479Y0235028D01*
X0084469Y0235826D02*
X0106874Y0235826D01*
X0106191Y0236625D02*
X0084519Y0236625D01*
X0084635Y0237423D02*
X0105507Y0237423D01*
X0104823Y0238222D02*
X0084820Y0238222D01*
X0085068Y0239020D02*
X0104140Y0239020D01*
X0103456Y0239819D02*
X0085409Y0239819D01*
X0085803Y0240617D02*
X0102772Y0240617D01*
X0102089Y0241416D02*
X0086345Y0241416D01*
X0086980Y0242214D02*
X0101405Y0242214D01*
X0100604Y0243013D02*
X0087822Y0243013D01*
X0088952Y0243811D02*
X0099509Y0243811D01*
X0097893Y0244610D02*
X0090515Y0244610D01*
X0103627Y0249082D02*
X0104174Y0247605D01*
X0104946Y0246231D01*
X0115441Y0234255D01*
X0115615Y0235704D01*
X0116018Y0237108D01*
X0116640Y0238429D01*
X0117464Y0239634D01*
X0118469Y0240692D01*
X0119631Y0241576D01*
X0120918Y0242264D01*
X0122299Y0242738D01*
X0123738Y0242985D01*
X0125197Y0243000D01*
X0126641Y0242783D01*
X0128031Y0242337D01*
X0121511Y0256866D01*
X0120583Y0258139D01*
X0119468Y0259252D01*
X0118192Y0260176D01*
X0116787Y0260890D01*
X0115288Y0261374D01*
X0113731Y0261619D01*
X0112155Y0261617D01*
X0110599Y0261368D01*
X0109101Y0260879D01*
X0107699Y0260162D01*
X0106462Y0259185D01*
X0105394Y0258027D01*
X0104521Y0256715D01*
X0103863Y0255284D01*
X0103437Y0253767D01*
X0103254Y0252202D01*
X0103318Y0250627D01*
X0103627Y0249082D01*
X0103563Y0249401D02*
X0124861Y0249401D01*
X0124503Y0250199D02*
X0103404Y0250199D01*
X0103303Y0250998D02*
X0124144Y0250998D01*
X0123786Y0251796D02*
X0103271Y0251796D01*
X0103300Y0252595D02*
X0123428Y0252595D01*
X0123069Y0253393D02*
X0103394Y0253393D01*
X0103557Y0254192D02*
X0122711Y0254192D01*
X0122353Y0254990D02*
X0103781Y0254990D01*
X0104095Y0255789D02*
X0121994Y0255789D01*
X0121636Y0256587D02*
X0104462Y0256587D01*
X0104968Y0257386D02*
X0121132Y0257386D01*
X0120538Y0258184D02*
X0105540Y0258184D01*
X0106276Y0258983D02*
X0119737Y0258983D01*
X0118736Y0259781D02*
X0107217Y0259781D01*
X0108516Y0260580D02*
X0117396Y0260580D01*
X0115262Y0261379D02*
X0110664Y0261379D01*
X0103805Y0248602D02*
X0125219Y0248602D01*
X0125578Y0247804D02*
X0104101Y0247804D01*
X0104511Y0247005D02*
X0125936Y0247005D01*
X0126295Y0246207D02*
X0104967Y0246207D01*
X0105667Y0245408D02*
X0126653Y0245408D01*
X0127011Y0244610D02*
X0106367Y0244610D01*
X0107067Y0243811D02*
X0127370Y0243811D01*
X0127728Y0243013D02*
X0107766Y0243013D01*
X0108466Y0242214D02*
X0120825Y0242214D01*
X0119420Y0241416D02*
X0109166Y0241416D01*
X0109866Y0240617D02*
X0118398Y0240617D01*
X0117640Y0239819D02*
X0110566Y0239819D01*
X0111265Y0239020D02*
X0117044Y0239020D01*
X0116542Y0238222D02*
X0111965Y0238222D01*
X0112665Y0237423D02*
X0116167Y0237423D01*
X0115880Y0236625D02*
X0113365Y0236625D01*
X0114065Y0235826D02*
X0115650Y0235826D01*
X0115534Y0235028D02*
X0114764Y0235028D01*
X0131939Y0247005D02*
X0134002Y0247005D01*
X0134283Y0247448D02*
X0135253Y0248540D01*
X0136383Y0249463D01*
X0137647Y0250194D01*
X0139011Y0250715D01*
X0140440Y0251011D01*
X0141898Y0251076D01*
X0143348Y0250907D01*
X0144753Y0250510D01*
X0146076Y0249893D01*
X0147284Y0249073D01*
X0145131Y0264851D01*
X0144601Y0266335D01*
X0143845Y0267717D01*
X0142882Y0268964D01*
X0141735Y0270045D01*
X0140434Y0270934D01*
X0139010Y0271608D01*
X0137498Y0272051D01*
X0135935Y0272252D01*
X0134360Y0272206D01*
X0132812Y0271914D01*
X0131350Y0271325D01*
X0129998Y0270516D01*
X0128790Y0269504D01*
X0127755Y0268317D01*
X0126918Y0266981D01*
X0126300Y0265532D01*
X0125917Y0264004D01*
X0125778Y0262434D01*
X0125885Y0260862D01*
X0126238Y0259326D01*
X0132925Y0244874D01*
X0133501Y0246216D01*
X0134283Y0247448D01*
X0134599Y0247804D02*
X0131569Y0247804D01*
X0131200Y0248602D02*
X0135329Y0248602D01*
X0136307Y0249401D02*
X0130830Y0249401D01*
X0130461Y0250199D02*
X0137660Y0250199D01*
X0140375Y0250998D02*
X0130091Y0250998D01*
X0129722Y0251796D02*
X0146913Y0251796D01*
X0147022Y0250998D02*
X0142569Y0250998D01*
X0145419Y0250199D02*
X0147131Y0250199D01*
X0147239Y0249401D02*
X0146801Y0249401D01*
X0146804Y0252595D02*
X0129352Y0252595D01*
X0128983Y0253393D02*
X0146695Y0253393D01*
X0146586Y0254192D02*
X0128613Y0254192D01*
X0128244Y0254990D02*
X0146477Y0254990D01*
X0146368Y0255789D02*
X0127875Y0255789D01*
X0127505Y0256587D02*
X0146259Y0256587D01*
X0146150Y0257386D02*
X0127136Y0257386D01*
X0126766Y0258184D02*
X0146041Y0258184D01*
X0145932Y0258983D02*
X0126397Y0258983D01*
X0126133Y0259781D02*
X0145823Y0259781D01*
X0145714Y0260580D02*
X0125950Y0260580D01*
X0125850Y0261379D02*
X0145605Y0261379D01*
X0145496Y0262177D02*
X0125795Y0262177D01*
X0125826Y0262976D02*
X0145387Y0262976D01*
X0145278Y0263774D02*
X0125897Y0263774D01*
X0126060Y0264573D02*
X0145170Y0264573D01*
X0144946Y0265371D02*
X0126260Y0265371D01*
X0126572Y0266170D02*
X0144660Y0266170D01*
X0144255Y0266968D02*
X0126912Y0266968D01*
X0127410Y0267767D02*
X0143807Y0267767D01*
X0143190Y0268565D02*
X0127971Y0268565D01*
X0128667Y0269364D02*
X0142458Y0269364D01*
X0141565Y0270162D02*
X0129576Y0270162D01*
X0130741Y0270961D02*
X0140378Y0270961D01*
X0138493Y0271759D02*
X0132428Y0271759D01*
X0150698Y0267767D02*
X0169823Y0267767D01*
X0169672Y0268453D02*
X0169098Y0269920D01*
X0168301Y0271280D01*
X0167302Y0272498D01*
X0166124Y0273544D01*
X0164797Y0274394D01*
X0163353Y0275025D01*
X0161828Y0275423D01*
X0160260Y0275577D01*
X0158692Y0275423D01*
X0157168Y0275025D01*
X0155724Y0274394D01*
X0154397Y0273544D01*
X0153219Y0272498D01*
X0152220Y0271280D01*
X0151423Y0269920D01*
X0150849Y0268453D01*
X0150511Y0266914D01*
X0150418Y0265341D01*
X0152780Y0249593D01*
X0153709Y0250719D01*
X0154806Y0251682D01*
X0156043Y0252458D01*
X0157387Y0253027D01*
X0158805Y0253374D01*
X0160260Y0253491D01*
X0161716Y0253374D01*
X0163133Y0253027D01*
X0164478Y0252458D01*
X0165714Y0251682D01*
X0166811Y0250719D01*
X0167741Y0249593D01*
X0170103Y0265341D01*
X0170010Y0266914D01*
X0169672Y0268453D01*
X0169628Y0268565D02*
X0150892Y0268565D01*
X0151205Y0269364D02*
X0169316Y0269364D01*
X0168956Y0270162D02*
X0151565Y0270162D01*
X0152033Y0270961D02*
X0168488Y0270961D01*
X0167908Y0271759D02*
X0152613Y0271759D01*
X0153287Y0272558D02*
X0167234Y0272558D01*
X0166335Y0273356D02*
X0154186Y0273356D01*
X0155351Y0274155D02*
X0165170Y0274155D01*
X0163518Y0274953D02*
X0157004Y0274953D01*
X0150523Y0266968D02*
X0169998Y0266968D01*
X0170054Y0266170D02*
X0150467Y0266170D01*
X0150420Y0265371D02*
X0170101Y0265371D01*
X0169988Y0264573D02*
X0150533Y0264573D01*
X0150653Y0263774D02*
X0169868Y0263774D01*
X0169748Y0262976D02*
X0150773Y0262976D01*
X0150893Y0262177D02*
X0169628Y0262177D01*
X0169509Y0261379D02*
X0151012Y0261379D01*
X0151132Y0260580D02*
X0169389Y0260580D01*
X0169269Y0259781D02*
X0151252Y0259781D01*
X0151372Y0258983D02*
X0169149Y0258983D01*
X0169029Y0258184D02*
X0151491Y0258184D01*
X0151611Y0257386D02*
X0168910Y0257386D01*
X0168790Y0256587D02*
X0151731Y0256587D01*
X0151851Y0255789D02*
X0168670Y0255789D01*
X0168550Y0254990D02*
X0151970Y0254990D01*
X0152090Y0254192D02*
X0168431Y0254192D01*
X0168311Y0253393D02*
X0161475Y0253393D01*
X0159046Y0253393D02*
X0152210Y0253393D01*
X0152330Y0252595D02*
X0156366Y0252595D01*
X0154989Y0251796D02*
X0152450Y0251796D01*
X0152569Y0250998D02*
X0154027Y0250998D01*
X0153281Y0250199D02*
X0152689Y0250199D01*
X0164154Y0252595D02*
X0168191Y0252595D01*
X0168071Y0251796D02*
X0165532Y0251796D01*
X0166494Y0250998D02*
X0167951Y0250998D01*
X0167832Y0250199D02*
X0167240Y0250199D01*
X0173235Y0249401D02*
X0173989Y0249401D01*
X0174366Y0249657D02*
X0175689Y0250273D01*
X0177094Y0250671D01*
X0178544Y0250840D01*
X0180002Y0250775D01*
X0181432Y0250479D01*
X0182795Y0249958D01*
X0184059Y0249227D01*
X0185190Y0248304D01*
X0186159Y0247212D01*
X0186941Y0245980D01*
X0187517Y0244638D01*
X0194204Y0259090D01*
X0194557Y0260626D01*
X0194665Y0262198D01*
X0194525Y0263767D01*
X0194142Y0265296D01*
X0193524Y0266745D01*
X0192687Y0268080D01*
X0191652Y0269268D01*
X0190444Y0270279D01*
X0189092Y0271089D01*
X0187630Y0271677D01*
X0186082Y0271969D01*
X0184507Y0272015D01*
X0182944Y0271814D01*
X0181432Y0271372D01*
X0180008Y0270698D01*
X0178707Y0269809D01*
X0177560Y0268728D01*
X0176597Y0267481D01*
X0175841Y0266099D01*
X0175311Y0264615D01*
X0173158Y0248837D01*
X0174366Y0249657D01*
X0173344Y0250199D02*
X0175530Y0250199D01*
X0173453Y0250998D02*
X0190460Y0250998D01*
X0190829Y0251796D02*
X0173562Y0251796D01*
X0173671Y0252595D02*
X0191199Y0252595D01*
X0191568Y0253393D02*
X0173780Y0253393D01*
X0173889Y0254192D02*
X0191938Y0254192D01*
X0192307Y0254990D02*
X0173997Y0254990D01*
X0174106Y0255789D02*
X0192677Y0255789D01*
X0193046Y0256587D02*
X0174215Y0256587D01*
X0174324Y0257386D02*
X0193416Y0257386D01*
X0193785Y0258184D02*
X0174433Y0258184D01*
X0174542Y0258983D02*
X0194155Y0258983D01*
X0194363Y0259781D02*
X0174651Y0259781D01*
X0174760Y0260580D02*
X0194546Y0260580D01*
X0194608Y0261379D02*
X0174869Y0261379D01*
X0174978Y0262177D02*
X0194663Y0262177D01*
X0194595Y0262976D02*
X0175087Y0262976D01*
X0175196Y0263774D02*
X0194523Y0263774D01*
X0194323Y0264573D02*
X0175305Y0264573D01*
X0175581Y0265371D02*
X0194110Y0265371D01*
X0193770Y0266170D02*
X0175880Y0266170D01*
X0176317Y0266968D02*
X0193385Y0266968D01*
X0192884Y0267767D02*
X0176818Y0267767D01*
X0177435Y0268565D02*
X0192265Y0268565D01*
X0191538Y0269364D02*
X0178234Y0269364D01*
X0179224Y0270162D02*
X0190584Y0270162D01*
X0189307Y0270961D02*
X0180564Y0270961D01*
X0182756Y0271759D02*
X0187197Y0271759D01*
X0200023Y0258184D02*
X0215020Y0258184D01*
X0215166Y0258027D02*
X0214098Y0259185D01*
X0212862Y0260162D01*
X0211459Y0260879D01*
X0209961Y0261368D01*
X0208405Y0261617D01*
X0206829Y0261619D01*
X0205273Y0261374D01*
X0203774Y0260889D01*
X0202369Y0260176D01*
X0201093Y0259252D01*
X0199977Y0258139D01*
X0199049Y0256866D01*
X0192529Y0242337D01*
X0193919Y0242783D01*
X0195363Y0243000D01*
X0196823Y0242985D01*
X0198261Y0242738D01*
X0199642Y0242264D01*
X0200930Y0241576D01*
X0202091Y0240692D01*
X0203097Y0239634D01*
X0203921Y0238429D01*
X0204542Y0237108D01*
X0204945Y0235704D01*
X0205119Y0234255D01*
X0215614Y0246231D01*
X0216386Y0247605D01*
X0216933Y0249082D01*
X0217242Y0250627D01*
X0217306Y0252202D01*
X0217123Y0253767D01*
X0216697Y0255284D01*
X0216039Y0256715D01*
X0215166Y0258027D01*
X0215593Y0257386D02*
X0199428Y0257386D01*
X0198924Y0256587D02*
X0216098Y0256587D01*
X0216465Y0255789D02*
X0198566Y0255789D01*
X0198208Y0254990D02*
X0216780Y0254990D01*
X0217004Y0254192D02*
X0197849Y0254192D01*
X0197491Y0253393D02*
X0217167Y0253393D01*
X0217260Y0252595D02*
X0197132Y0252595D01*
X0196774Y0251796D02*
X0217290Y0251796D01*
X0217257Y0250998D02*
X0196416Y0250998D01*
X0196057Y0250199D02*
X0217157Y0250199D01*
X0216997Y0249401D02*
X0195699Y0249401D01*
X0195341Y0248602D02*
X0216755Y0248602D01*
X0216460Y0247804D02*
X0194982Y0247804D01*
X0194624Y0247005D02*
X0216049Y0247005D01*
X0215593Y0246207D02*
X0194266Y0246207D01*
X0193907Y0245408D02*
X0214893Y0245408D01*
X0214193Y0244610D02*
X0193549Y0244610D01*
X0193191Y0243811D02*
X0213494Y0243811D01*
X0212794Y0243013D02*
X0192832Y0243013D01*
X0187874Y0245408D02*
X0187186Y0245408D01*
X0186797Y0246207D02*
X0188243Y0246207D01*
X0188613Y0247005D02*
X0186290Y0247005D01*
X0185633Y0247804D02*
X0188982Y0247804D01*
X0189351Y0248602D02*
X0184824Y0248602D01*
X0183758Y0249401D02*
X0189721Y0249401D01*
X0190090Y0250199D02*
X0182164Y0250199D01*
X0199735Y0242214D02*
X0212094Y0242214D01*
X0211394Y0241416D02*
X0201140Y0241416D01*
X0202162Y0240617D02*
X0210694Y0240617D01*
X0209995Y0239819D02*
X0202921Y0239819D01*
X0203516Y0239020D02*
X0209295Y0239020D01*
X0208595Y0238222D02*
X0204018Y0238222D01*
X0204394Y0237423D02*
X0207895Y0237423D01*
X0207195Y0236625D02*
X0204681Y0236625D01*
X0204910Y0235826D02*
X0206496Y0235826D01*
X0205796Y0235028D02*
X0205026Y0235028D01*
X0209544Y0231035D02*
X0234954Y0231035D01*
X0235265Y0231628D02*
X0235771Y0233120D01*
X0236037Y0234673D01*
X0236057Y0236248D01*
X0235830Y0237808D01*
X0235362Y0239312D01*
X0234665Y0240725D01*
X0233755Y0242011D01*
X0232611Y0243095D01*
X0231312Y0243987D01*
X0229890Y0244665D01*
X0228379Y0245112D01*
X0226817Y0245317D01*
X0225242Y0245275D01*
X0223693Y0244987D01*
X0222207Y0244461D01*
X0220823Y0243708D01*
X0219573Y0242749D01*
X0209217Y0230652D01*
X0210676Y0230687D01*
X0212122Y0230488D01*
X0213519Y0230062D01*
X0214829Y0229418D01*
X0216020Y0228574D01*
X0217061Y0227550D01*
X0217925Y0226374D01*
X0218591Y0225075D01*
X0219041Y0223686D01*
X0219264Y0222244D01*
X0219254Y0220784D01*
X0219012Y0219344D01*
X0232462Y0227870D01*
X0233590Y0228970D01*
X0234532Y0230233D01*
X0235265Y0231628D01*
X0235335Y0231834D02*
X0210228Y0231834D01*
X0210912Y0232632D02*
X0235606Y0232632D01*
X0235824Y0233431D02*
X0211595Y0233431D01*
X0212279Y0234229D02*
X0235961Y0234229D01*
X0236041Y0235028D02*
X0212963Y0235028D01*
X0213646Y0235826D02*
X0236052Y0235826D01*
X0236002Y0236625D02*
X0214330Y0236625D01*
X0215014Y0237423D02*
X0235886Y0237423D01*
X0235701Y0238222D02*
X0215697Y0238222D01*
X0216381Y0239020D02*
X0235453Y0239020D01*
X0235112Y0239819D02*
X0217065Y0239819D01*
X0217748Y0240617D02*
X0234718Y0240617D01*
X0234176Y0241416D02*
X0218432Y0241416D01*
X0219116Y0242214D02*
X0233541Y0242214D01*
X0232698Y0243013D02*
X0219917Y0243013D01*
X0221012Y0243811D02*
X0231569Y0243811D01*
X0230006Y0244610D02*
X0222628Y0244610D01*
X0212947Y0230237D02*
X0234534Y0230237D01*
X0233939Y0229438D02*
X0214788Y0229438D01*
X0215927Y0228640D02*
X0233251Y0228640D01*
X0232417Y0227841D02*
X0216765Y0227841D01*
X0217434Y0227043D02*
X0231157Y0227043D01*
X0229897Y0226244D02*
X0217992Y0226244D01*
X0218401Y0225445D02*
X0228637Y0225445D01*
X0227378Y0224647D02*
X0218730Y0224647D01*
X0218989Y0223848D02*
X0226118Y0223848D01*
X0224858Y0223050D02*
X0219140Y0223050D01*
X0219263Y0222251D02*
X0223598Y0222251D01*
X0222339Y0221453D02*
X0219259Y0221453D01*
X0219233Y0220654D02*
X0221079Y0220654D01*
X0219819Y0219856D02*
X0219098Y0219856D01*
X0222422Y0215065D02*
X0249633Y0215065D01*
X0249623Y0215779D02*
X0249352Y0217331D01*
X0248843Y0218822D01*
X0248052Y0220185D01*
X0247058Y0221407D01*
X0245884Y0222459D01*
X0244561Y0223314D01*
X0243120Y0223952D01*
X0241597Y0224356D01*
X0240030Y0224518D01*
X0238457Y0224432D01*
X0236916Y0224101D01*
X0235446Y0223533D01*
X0222096Y0214853D01*
X0223506Y0214474D01*
X0224837Y0213875D01*
X0226056Y0213072D01*
X0227131Y0212085D01*
X0228035Y0210938D01*
X0228745Y0209663D01*
X0229242Y0208290D01*
X0229514Y0206856D01*
X0229554Y0205397D01*
X0229360Y0203950D01*
X0228939Y0202552D01*
X0228300Y0201240D01*
X0243610Y0205621D01*
X0245002Y0206357D01*
X0246263Y0207303D01*
X0247360Y0208434D01*
X0248266Y0209723D01*
X0248960Y0211138D01*
X0249424Y0212643D01*
X0249647Y0214203D01*
X0249623Y0215779D01*
X0249608Y0215863D02*
X0223650Y0215863D01*
X0224878Y0216662D02*
X0249469Y0216662D01*
X0249308Y0217460D02*
X0226106Y0217460D01*
X0227334Y0218259D02*
X0249035Y0218259D01*
X0248706Y0219057D02*
X0228562Y0219057D01*
X0229791Y0219856D02*
X0248243Y0219856D01*
X0247670Y0220654D02*
X0231019Y0220654D01*
X0232247Y0221453D02*
X0247006Y0221453D01*
X0246115Y0222251D02*
X0233475Y0222251D01*
X0234703Y0223050D02*
X0244969Y0223050D01*
X0243353Y0223848D02*
X0236263Y0223848D01*
X0226494Y0212669D02*
X0249428Y0212669D01*
X0249542Y0213468D02*
X0225455Y0213468D01*
X0223968Y0214266D02*
X0249646Y0214266D01*
X0249186Y0211871D02*
X0227300Y0211871D01*
X0227929Y0211072D02*
X0248928Y0211072D01*
X0248536Y0210274D02*
X0228405Y0210274D01*
X0228813Y0209475D02*
X0248092Y0209475D01*
X0247530Y0208677D02*
X0229102Y0208677D01*
X0229320Y0207878D02*
X0246821Y0207878D01*
X0245965Y0207080D02*
X0229471Y0207080D01*
X0229530Y0206281D02*
X0244858Y0206281D01*
X0243128Y0205483D02*
X0229551Y0205483D01*
X0229459Y0204684D02*
X0240337Y0204684D01*
X0237547Y0203886D02*
X0229341Y0203886D01*
X0229100Y0203087D02*
X0234757Y0203087D01*
X0231966Y0202289D02*
X0228811Y0202289D01*
X0229176Y0201490D02*
X0228422Y0201490D01*
X0229797Y0195901D02*
X0255074Y0195901D01*
X0254699Y0196504D02*
X0253669Y0197697D01*
X0252465Y0198713D01*
X0251117Y0199529D01*
X0249658Y0200123D01*
X0248124Y0200483D01*
X0246552Y0200598D01*
X0244982Y0200465D01*
X0229732Y0195881D01*
X0230979Y0195122D01*
X0232089Y0194173D01*
X0233033Y0193060D01*
X0233788Y0191811D01*
X0234334Y0190457D01*
X0234657Y0189033D01*
X0234749Y0187576D01*
X0234607Y0186123D01*
X0234236Y0184711D01*
X0233644Y0183377D01*
X0232848Y0182154D01*
X0231866Y0181073D01*
X0247790Y0180981D01*
X0249333Y0181298D01*
X0250809Y0181851D01*
X0252179Y0182629D01*
X0253411Y0183612D01*
X0254474Y0184775D01*
X0255341Y0186090D01*
X0255993Y0187525D01*
X0256412Y0189043D01*
X0256588Y0190609D01*
X0256518Y0192183D01*
X0256141Y0193713D01*
X0255530Y0195165D01*
X0254699Y0196504D01*
X0254531Y0196699D02*
X0232454Y0196699D01*
X0231002Y0195102D02*
X0255556Y0195102D01*
X0255893Y0194304D02*
X0231936Y0194304D01*
X0232656Y0193505D02*
X0256192Y0193505D01*
X0256389Y0192707D02*
X0233247Y0192707D01*
X0233729Y0191908D02*
X0256530Y0191908D01*
X0256566Y0191110D02*
X0234071Y0191110D01*
X0234367Y0190311D02*
X0256555Y0190311D01*
X0256465Y0189512D02*
X0234548Y0189512D01*
X0234677Y0188714D02*
X0256321Y0188714D01*
X0256101Y0187915D02*
X0234727Y0187915D01*
X0234704Y0187117D02*
X0255808Y0187117D01*
X0255445Y0186318D02*
X0234626Y0186318D01*
X0234449Y0185520D02*
X0254965Y0185520D01*
X0254425Y0184721D02*
X0234239Y0184721D01*
X0233886Y0183923D02*
X0253695Y0183923D01*
X0252800Y0183124D02*
X0233480Y0183124D01*
X0232960Y0182326D02*
X0251644Y0182326D01*
X0249945Y0181527D02*
X0232278Y0181527D01*
X0231866Y0175593D02*
X0247790Y0175685D01*
X0249333Y0175369D01*
X0250809Y0174815D01*
X0252179Y0174037D01*
X0253411Y0173055D01*
X0254473Y0171892D01*
X0255341Y0170577D01*
X0255993Y0169142D01*
X0256412Y0167623D01*
X0256588Y0166057D01*
X0256518Y0164483D01*
X0256141Y0162953D01*
X0255530Y0161501D01*
X0254699Y0160162D01*
X0253669Y0158970D01*
X0252465Y0157953D01*
X0251117Y0157138D01*
X0249658Y0156543D01*
X0248124Y0156184D01*
X0246552Y0156069D01*
X0244982Y0156201D01*
X0229732Y0160786D01*
X0230979Y0161545D01*
X0232089Y0162493D01*
X0233033Y0163607D01*
X0233788Y0164856D01*
X0234334Y0166210D01*
X0234657Y0167634D01*
X0234749Y0169090D01*
X0234607Y0170543D01*
X0234236Y0171955D01*
X0233644Y0173290D01*
X0232848Y0174513D01*
X0231866Y0175593D01*
X0232278Y0175139D02*
X0249945Y0175139D01*
X0251644Y0174341D02*
X0232960Y0174341D01*
X0233480Y0173542D02*
X0252799Y0173542D01*
X0253695Y0172744D02*
X0233886Y0172744D01*
X0234239Y0171945D02*
X0254425Y0171945D01*
X0254965Y0171147D02*
X0234449Y0171147D01*
X0234626Y0170348D02*
X0255445Y0170348D01*
X0255808Y0169550D02*
X0234704Y0169550D01*
X0234727Y0168751D02*
X0256101Y0168751D01*
X0256321Y0167953D02*
X0234677Y0167953D01*
X0234548Y0167154D02*
X0256465Y0167154D01*
X0256555Y0166356D02*
X0234367Y0166356D01*
X0234071Y0165557D02*
X0256566Y0165557D01*
X0256530Y0164759D02*
X0233729Y0164759D01*
X0233247Y0163960D02*
X0256389Y0163960D01*
X0256192Y0163162D02*
X0232656Y0163162D01*
X0231936Y0162363D02*
X0255893Y0162363D01*
X0255557Y0161565D02*
X0231002Y0161565D01*
X0229797Y0160766D02*
X0255074Y0160766D01*
X0254531Y0159968D02*
X0232454Y0159968D01*
X0235110Y0159169D02*
X0253841Y0159169D01*
X0252959Y0158371D02*
X0237766Y0158371D01*
X0240423Y0157572D02*
X0251835Y0157572D01*
X0250223Y0156774D02*
X0243079Y0156774D01*
X0237704Y0152781D02*
X0229244Y0152781D01*
X0229242Y0152796D02*
X0229436Y0151349D01*
X0229396Y0149889D01*
X0229124Y0148455D01*
X0228627Y0147083D01*
X0227917Y0145807D01*
X0227013Y0144661D01*
X0225938Y0143673D01*
X0224719Y0142870D01*
X0223388Y0142271D01*
X0221978Y0141892D01*
X0235328Y0133212D01*
X0236798Y0132644D01*
X0238339Y0132313D01*
X0239912Y0132228D01*
X0241479Y0132389D01*
X0243002Y0132794D01*
X0244443Y0133431D01*
X0245766Y0134287D01*
X0246939Y0135338D01*
X0247934Y0136561D01*
X0248725Y0137924D01*
X0249234Y0139414D01*
X0249504Y0140967D01*
X0249528Y0142542D01*
X0249306Y0144102D01*
X0248842Y0145608D01*
X0248148Y0147023D01*
X0247242Y0148311D01*
X0246145Y0149442D01*
X0244884Y0150388D01*
X0243492Y0151125D01*
X0228182Y0155506D01*
X0228821Y0154193D01*
X0229242Y0152796D01*
X0229006Y0153579D02*
X0234914Y0153579D01*
X0232123Y0154378D02*
X0228731Y0154378D01*
X0228342Y0155177D02*
X0229333Y0155177D01*
X0229351Y0151982D02*
X0240494Y0151982D01*
X0243285Y0151184D02*
X0229431Y0151184D01*
X0229409Y0150385D02*
X0244888Y0150385D01*
X0245952Y0149587D02*
X0229338Y0149587D01*
X0229187Y0148788D02*
X0246779Y0148788D01*
X0247468Y0147990D02*
X0228955Y0147990D01*
X0228666Y0147191D02*
X0248029Y0147191D01*
X0248457Y0146393D02*
X0228243Y0146393D01*
X0227749Y0145594D02*
X0248846Y0145594D01*
X0249092Y0144796D02*
X0227119Y0144796D01*
X0226291Y0143997D02*
X0249321Y0143997D01*
X0249435Y0143199D02*
X0225218Y0143199D01*
X0223675Y0142400D02*
X0249526Y0142400D01*
X0249514Y0141602D02*
X0222425Y0141602D01*
X0223653Y0140803D02*
X0249476Y0140803D01*
X0249337Y0140005D02*
X0224881Y0140005D01*
X0226109Y0139206D02*
X0249163Y0139206D01*
X0248890Y0138408D02*
X0227337Y0138408D01*
X0228565Y0137609D02*
X0248542Y0137609D01*
X0248079Y0136811D02*
X0229793Y0136811D01*
X0231022Y0136012D02*
X0247488Y0136012D01*
X0246800Y0135214D02*
X0232250Y0135214D01*
X0233478Y0134415D02*
X0245910Y0134415D01*
X0244730Y0133617D02*
X0234706Y0133617D01*
X0236348Y0132818D02*
X0243058Y0132818D01*
X0234532Y0126434D02*
X0233590Y0127697D01*
X0232462Y0128797D01*
X0219012Y0137322D01*
X0219254Y0135883D01*
X0219264Y0134423D01*
X0219041Y0132980D01*
X0218591Y0131592D01*
X0217925Y0130293D01*
X0217061Y0129116D01*
X0216020Y0128093D01*
X0214829Y0127248D01*
X0213519Y0126605D01*
X0212122Y0126178D01*
X0210676Y0125980D01*
X0209217Y0126014D01*
X0219573Y0113918D01*
X0220823Y0112958D01*
X0222207Y0112206D01*
X0223693Y0111679D01*
X0225242Y0111392D01*
X0226817Y0111350D01*
X0228379Y0111555D01*
X0229890Y0112002D01*
X0231312Y0112679D01*
X0232611Y0113571D01*
X0233755Y0114655D01*
X0234665Y0115942D01*
X0235362Y0117355D01*
X0235830Y0118859D01*
X0236057Y0120418D01*
X0236037Y0121994D01*
X0235771Y0123547D01*
X0235265Y0125039D01*
X0234532Y0126434D01*
X0234534Y0126430D02*
X0212947Y0126430D01*
X0214788Y0127229D02*
X0233939Y0127229D01*
X0233251Y0128027D02*
X0215927Y0128027D01*
X0216765Y0128826D02*
X0232417Y0128826D01*
X0231157Y0129624D02*
X0217434Y0129624D01*
X0217992Y0130423D02*
X0229897Y0130423D01*
X0228637Y0131221D02*
X0218401Y0131221D01*
X0218730Y0132020D02*
X0227378Y0132020D01*
X0226118Y0132818D02*
X0218989Y0132818D01*
X0219140Y0133617D02*
X0224858Y0133617D01*
X0223598Y0134415D02*
X0219263Y0134415D01*
X0219259Y0135214D02*
X0222339Y0135214D01*
X0221079Y0136012D02*
X0219233Y0136012D01*
X0219098Y0136811D02*
X0219819Y0136811D01*
X0209544Y0125632D02*
X0234954Y0125632D01*
X0235335Y0124833D02*
X0210228Y0124833D01*
X0210912Y0124035D02*
X0235605Y0124035D01*
X0235824Y0123236D02*
X0211595Y0123236D01*
X0212279Y0122438D02*
X0235961Y0122438D01*
X0236041Y0121639D02*
X0212963Y0121639D01*
X0213646Y0120841D02*
X0236051Y0120841D01*
X0236002Y0120042D02*
X0214330Y0120042D01*
X0215014Y0119243D02*
X0235886Y0119243D01*
X0235701Y0118445D02*
X0215697Y0118445D01*
X0216381Y0117646D02*
X0235453Y0117646D01*
X0235112Y0116848D02*
X0217065Y0116848D01*
X0217748Y0116049D02*
X0234718Y0116049D01*
X0234176Y0115251D02*
X0218432Y0115251D01*
X0219116Y0114452D02*
X0233541Y0114452D01*
X0232699Y0113654D02*
X0219917Y0113654D01*
X0221012Y0112855D02*
X0231569Y0112855D01*
X0230006Y0112057D02*
X0222628Y0112057D01*
X0216465Y0108983D02*
X0217012Y0107506D01*
X0217321Y0105961D01*
X0217385Y0104386D01*
X0217202Y0102821D01*
X0216776Y0101304D01*
X0216118Y0099873D01*
X0215244Y0098561D01*
X0214176Y0097403D01*
X0212940Y0096426D01*
X0211537Y0095709D01*
X0210040Y0095220D01*
X0208484Y0094971D01*
X0206908Y0094969D01*
X0205351Y0095213D01*
X0203852Y0095698D01*
X0202447Y0096412D01*
X0201171Y0097336D01*
X0200056Y0098449D01*
X0199128Y0099722D01*
X0192608Y0114251D01*
X0193998Y0113805D01*
X0195442Y0113587D01*
X0196901Y0113603D01*
X0198340Y0113850D01*
X0199721Y0114324D01*
X0201008Y0115012D01*
X0202170Y0115896D01*
X0203175Y0116954D01*
X0203999Y0118159D01*
X0204621Y0119480D01*
X0205023Y0120884D01*
X0205197Y0122333D01*
X0215693Y0110357D01*
X0216465Y0108983D01*
X0216509Y0108863D02*
X0195026Y0108863D01*
X0194667Y0109661D02*
X0216084Y0109661D01*
X0215603Y0110460D02*
X0194309Y0110460D01*
X0193951Y0111258D02*
X0214903Y0111258D01*
X0214203Y0112057D02*
X0193592Y0112057D01*
X0193234Y0112855D02*
X0213503Y0112855D01*
X0212804Y0113654D02*
X0197200Y0113654D01*
X0195001Y0113654D02*
X0192876Y0113654D01*
X0187874Y0111258D02*
X0187186Y0111258D01*
X0186941Y0110687D02*
X0186159Y0109455D01*
X0185190Y0108363D01*
X0184059Y0107440D01*
X0182795Y0106708D01*
X0181432Y0106188D01*
X0180002Y0105892D01*
X0178544Y0105827D01*
X0177094Y0105996D01*
X0175689Y0106393D01*
X0174366Y0107010D01*
X0173158Y0107830D01*
X0175311Y0092051D01*
X0175841Y0090568D01*
X0176597Y0089185D01*
X0177560Y0087938D01*
X0178707Y0086857D01*
X0180008Y0085969D01*
X0181432Y0085295D01*
X0182944Y0084852D01*
X0184507Y0084651D01*
X0186082Y0084697D01*
X0187630Y0084989D01*
X0189092Y0085578D01*
X0190444Y0086387D01*
X0191652Y0087399D01*
X0192687Y0088586D01*
X0193524Y0089921D01*
X0194142Y0091371D01*
X0194525Y0092899D01*
X0194664Y0094469D01*
X0194557Y0096041D01*
X0194204Y0097576D01*
X0187517Y0112028D01*
X0186941Y0110687D01*
X0186797Y0110460D02*
X0188243Y0110460D01*
X0188613Y0109661D02*
X0186290Y0109661D01*
X0185633Y0108863D02*
X0188982Y0108863D01*
X0189351Y0108064D02*
X0184824Y0108064D01*
X0183758Y0107266D02*
X0189721Y0107266D01*
X0190090Y0106467D02*
X0182164Y0106467D01*
X0175530Y0106467D02*
X0173344Y0106467D01*
X0173453Y0105669D02*
X0190460Y0105669D01*
X0190829Y0104870D02*
X0173562Y0104870D01*
X0173671Y0104072D02*
X0191199Y0104072D01*
X0191568Y0103273D02*
X0173780Y0103273D01*
X0173888Y0102475D02*
X0191938Y0102475D01*
X0192307Y0101676D02*
X0173997Y0101676D01*
X0174106Y0100878D02*
X0192677Y0100878D01*
X0193046Y0100079D02*
X0174215Y0100079D01*
X0174324Y0099281D02*
X0193416Y0099281D01*
X0193785Y0098482D02*
X0174433Y0098482D01*
X0174542Y0097684D02*
X0194155Y0097684D01*
X0194363Y0096885D02*
X0174651Y0096885D01*
X0174760Y0096087D02*
X0194546Y0096087D01*
X0194608Y0095288D02*
X0174869Y0095288D01*
X0174978Y0094490D02*
X0194663Y0094490D01*
X0194595Y0093691D02*
X0175087Y0093691D01*
X0175196Y0092893D02*
X0194523Y0092893D01*
X0194323Y0092094D02*
X0175305Y0092094D01*
X0175581Y0091296D02*
X0194110Y0091296D01*
X0193769Y0090497D02*
X0175880Y0090497D01*
X0176317Y0089699D02*
X0193384Y0089699D01*
X0192884Y0088900D02*
X0176818Y0088900D01*
X0177434Y0088102D02*
X0192265Y0088102D01*
X0191538Y0087303D02*
X0178234Y0087303D01*
X0179223Y0086505D02*
X0190584Y0086505D01*
X0189307Y0085706D02*
X0180564Y0085706D01*
X0182755Y0084908D02*
X0187197Y0084908D01*
X0200823Y0097684D02*
X0214435Y0097684D01*
X0215172Y0098482D02*
X0200031Y0098482D01*
X0199450Y0099281D02*
X0215724Y0099281D01*
X0216213Y0100079D02*
X0198968Y0100079D01*
X0198609Y0100878D02*
X0216580Y0100878D01*
X0216880Y0101676D02*
X0198251Y0101676D01*
X0197893Y0102475D02*
X0217104Y0102475D01*
X0217255Y0103273D02*
X0197534Y0103273D01*
X0197176Y0104072D02*
X0217348Y0104072D01*
X0217365Y0104870D02*
X0196818Y0104870D01*
X0196459Y0105669D02*
X0217333Y0105669D01*
X0217220Y0106467D02*
X0196101Y0106467D01*
X0195742Y0107266D02*
X0217060Y0107266D01*
X0216805Y0108064D02*
X0195384Y0108064D01*
X0199961Y0114452D02*
X0212104Y0114452D01*
X0211404Y0115251D02*
X0201322Y0115251D01*
X0202315Y0116049D02*
X0210704Y0116049D01*
X0210004Y0116848D02*
X0203074Y0116848D01*
X0203649Y0117646D02*
X0209305Y0117646D01*
X0208605Y0118445D02*
X0204134Y0118445D01*
X0204509Y0119243D02*
X0207905Y0119243D01*
X0207205Y0120042D02*
X0204782Y0120042D01*
X0205011Y0120841D02*
X0206505Y0120841D01*
X0205806Y0121639D02*
X0205114Y0121639D01*
X0201794Y0096885D02*
X0213522Y0096885D01*
X0212277Y0096087D02*
X0203088Y0096087D01*
X0205120Y0095288D02*
X0210249Y0095288D01*
X0173989Y0107266D02*
X0173235Y0107266D01*
X0167832Y0106467D02*
X0167240Y0106467D01*
X0166811Y0105948D02*
X0165714Y0104985D01*
X0164478Y0104209D01*
X0163133Y0103640D01*
X0161716Y0103293D01*
X0160260Y0103176D01*
X0158805Y0103293D01*
X0157387Y0103640D01*
X0156043Y0104209D01*
X0154806Y0104985D01*
X0153709Y0105948D01*
X0152780Y0107073D01*
X0150418Y0091325D01*
X0150511Y0089753D01*
X0150849Y0088214D01*
X0151423Y0086746D01*
X0152220Y0085387D01*
X0153219Y0084169D01*
X0154397Y0083122D01*
X0155724Y0082273D01*
X0157168Y0081642D01*
X0158692Y0081244D01*
X0160260Y0081089D01*
X0161828Y0081244D01*
X0163353Y0081642D01*
X0164797Y0082273D01*
X0166124Y0083123D01*
X0167301Y0084169D01*
X0168301Y0085387D01*
X0169098Y0086746D01*
X0169672Y0088214D01*
X0170010Y0089753D01*
X0170103Y0091325D01*
X0167741Y0107073D01*
X0166811Y0105948D01*
X0166494Y0105669D02*
X0167951Y0105669D01*
X0168071Y0104870D02*
X0165532Y0104870D01*
X0164154Y0104072D02*
X0168191Y0104072D01*
X0168311Y0103273D02*
X0161475Y0103273D01*
X0159046Y0103273D02*
X0152210Y0103273D01*
X0152090Y0102475D02*
X0168431Y0102475D01*
X0168550Y0101676D02*
X0151971Y0101676D01*
X0151851Y0100878D02*
X0168670Y0100878D01*
X0168790Y0100079D02*
X0151731Y0100079D01*
X0151611Y0099281D02*
X0168910Y0099281D01*
X0169029Y0098482D02*
X0151491Y0098482D01*
X0151372Y0097684D02*
X0169149Y0097684D01*
X0169269Y0096885D02*
X0151252Y0096885D01*
X0151132Y0096087D02*
X0169389Y0096087D01*
X0169509Y0095288D02*
X0151012Y0095288D01*
X0150893Y0094490D02*
X0169628Y0094490D01*
X0169748Y0093691D02*
X0150773Y0093691D01*
X0150653Y0092893D02*
X0169868Y0092893D01*
X0169988Y0092094D02*
X0150533Y0092094D01*
X0150420Y0091296D02*
X0170101Y0091296D01*
X0170054Y0090497D02*
X0150467Y0090497D01*
X0150523Y0089699D02*
X0169998Y0089699D01*
X0169823Y0088900D02*
X0150698Y0088900D01*
X0150892Y0088102D02*
X0169628Y0088102D01*
X0169316Y0087303D02*
X0151205Y0087303D01*
X0151565Y0086505D02*
X0168956Y0086505D01*
X0168488Y0085706D02*
X0152033Y0085706D01*
X0152613Y0084908D02*
X0167907Y0084908D01*
X0167234Y0084109D02*
X0153287Y0084109D01*
X0154185Y0083310D02*
X0166335Y0083310D01*
X0165170Y0082512D02*
X0155351Y0082512D01*
X0157003Y0081713D02*
X0163517Y0081713D01*
X0145761Y0096087D02*
X0125975Y0096087D01*
X0125964Y0096041D02*
X0125856Y0094469D01*
X0125996Y0092899D01*
X0126379Y0091371D01*
X0126997Y0089921D01*
X0127833Y0088586D01*
X0128869Y0087398D01*
X0130077Y0086387D01*
X0131429Y0085578D01*
X0132890Y0084989D01*
X0134439Y0084697D01*
X0136014Y0084651D01*
X0137576Y0084852D01*
X0139089Y0085295D01*
X0140513Y0085969D01*
X0141814Y0086858D01*
X0142960Y0087939D01*
X0143923Y0089186D01*
X0144680Y0090568D01*
X0145210Y0092051D01*
X0147363Y0107830D01*
X0146155Y0107010D01*
X0144832Y0106393D01*
X0143427Y0105996D01*
X0141977Y0105827D01*
X0140519Y0105892D01*
X0139089Y0106188D01*
X0137725Y0106708D01*
X0136462Y0107440D01*
X0135331Y0108363D01*
X0134362Y0109455D01*
X0133580Y0110687D01*
X0133004Y0112028D01*
X0126316Y0097576D01*
X0125964Y0096041D01*
X0125912Y0095288D02*
X0145652Y0095288D01*
X0145543Y0094490D02*
X0125858Y0094490D01*
X0125925Y0093691D02*
X0145434Y0093691D01*
X0145325Y0092893D02*
X0125997Y0092893D01*
X0126198Y0092094D02*
X0145216Y0092094D01*
X0144940Y0091296D02*
X0126411Y0091296D01*
X0126751Y0090497D02*
X0144641Y0090497D01*
X0144204Y0089699D02*
X0127136Y0089699D01*
X0127637Y0088900D02*
X0143703Y0088900D01*
X0143086Y0088102D02*
X0128256Y0088102D01*
X0128983Y0087303D02*
X0142286Y0087303D01*
X0141297Y0086505D02*
X0129937Y0086505D01*
X0131214Y0085706D02*
X0139957Y0085706D01*
X0137765Y0084908D02*
X0133324Y0084908D01*
X0126158Y0096885D02*
X0145870Y0096885D01*
X0145979Y0097684D02*
X0126366Y0097684D01*
X0126736Y0098482D02*
X0146088Y0098482D01*
X0146197Y0099281D02*
X0127105Y0099281D01*
X0127474Y0100079D02*
X0146305Y0100079D01*
X0146414Y0100878D02*
X0127844Y0100878D01*
X0128213Y0101676D02*
X0146523Y0101676D01*
X0146632Y0102475D02*
X0128583Y0102475D01*
X0128952Y0103273D02*
X0146741Y0103273D01*
X0146850Y0104072D02*
X0129322Y0104072D01*
X0129691Y0104870D02*
X0146959Y0104870D01*
X0147068Y0105669D02*
X0130061Y0105669D01*
X0130430Y0106467D02*
X0138357Y0106467D01*
X0136762Y0107266D02*
X0130800Y0107266D01*
X0131169Y0108064D02*
X0135697Y0108064D01*
X0134888Y0108863D02*
X0131539Y0108863D01*
X0131908Y0109661D02*
X0134231Y0109661D01*
X0133724Y0110460D02*
X0132278Y0110460D01*
X0132647Y0111258D02*
X0133334Y0111258D01*
X0144990Y0106467D02*
X0147177Y0106467D01*
X0147286Y0107266D02*
X0146532Y0107266D01*
X0152450Y0104870D02*
X0154989Y0104870D01*
X0154027Y0105669D02*
X0152569Y0105669D01*
X0152689Y0106467D02*
X0153281Y0106467D01*
X0152330Y0104072D02*
X0156366Y0104072D01*
X0088041Y0159968D02*
X0065799Y0159968D01*
X0066489Y0159169D02*
X0085384Y0159169D01*
X0082728Y0158371D02*
X0067358Y0158371D01*
X0068464Y0157572D02*
X0080072Y0157572D01*
X0077415Y0156774D02*
X0070044Y0156774D01*
X0132678Y0245408D02*
X0133154Y0245408D01*
X0133497Y0246207D02*
X0132308Y0246207D01*
X0200823Y0258983D02*
X0214284Y0258983D01*
X0213343Y0259781D02*
X0201824Y0259781D01*
X0203164Y0260580D02*
X0212044Y0260580D01*
X0209896Y0261379D02*
X0205300Y0261379D01*
X0235110Y0197498D02*
X0253841Y0197498D01*
X0252959Y0198296D02*
X0237766Y0198296D01*
X0240423Y0199095D02*
X0251834Y0199095D01*
X0250223Y0199893D02*
X0243079Y0199893D01*
D18*
X0193414Y0148011D02*
X0190098Y0148011D01*
X0193414Y0148011D02*
X0193414Y0144695D01*
X0190098Y0144695D01*
X0190098Y0148011D01*
X0190098Y0146115D02*
X0193414Y0146115D01*
X0193414Y0147535D02*
X0190098Y0147535D01*
X0190098Y0141106D02*
X0193414Y0141106D01*
X0193414Y0137790D01*
X0190098Y0137790D01*
X0190098Y0141106D01*
X0190098Y0139210D02*
X0193414Y0139210D01*
X0193414Y0140630D02*
X0190098Y0140630D01*
D19*
X0191756Y0151365D03*
X0191756Y0158058D03*
X0187819Y0171050D03*
X0187819Y0177743D03*
X0195693Y0202546D03*
X0195693Y0209239D03*
X0113016Y0165932D03*
X0113016Y0159239D03*
X0105142Y0159239D03*
X0105142Y0165932D03*
D20*
X0212505Y0164396D03*
D21*
X0212505Y0174396D03*
X0212505Y0184396D03*
X0202505Y0184396D03*
X0202505Y0174396D03*
X0202505Y0164396D03*
D22*
X0124827Y0165144D03*
X0124827Y0152152D03*
D23*
X0134274Y0153924D02*
X0140002Y0153924D01*
X0140002Y0158648D02*
X0134274Y0158648D01*
X0134274Y0163373D02*
X0140002Y0163373D01*
D24*
X0137128Y0158658D03*
D25*
X0135260Y0205892D03*
X0145260Y0205892D03*
X0155260Y0205892D03*
X0165260Y0205892D03*
X0175260Y0205892D03*
X0185260Y0205892D03*
D26*
X0180260Y0225577D03*
X0140260Y0225577D03*
D27*
X0121260Y0190833D03*
X0121260Y0175833D03*
X0099260Y0175833D03*
X0099260Y0190833D03*
D28*
X0115260Y0223333D03*
X0185260Y0123333D03*
M02*
