G75*
%MOIN*%
%OFA0B0*%
%FSLAX25Y25*%
%IPPOS*%
%LPD*%
%AMOC8*
5,1,8,0,0,1.08239X$1,22.5*
%
%ADD10C,0.00800*%
%ADD11R,0.05000X0.02200*%
%ADD12R,0.02200X0.05000*%
%ADD13C,0.16000*%
%ADD14C,0.01181*%
%ADD15R,0.03937X0.04331*%
%ADD16R,0.07400X0.07400*%
%ADD17OC8,0.07400*%
%ADD18R,0.09843X0.04724*%
%ADD19C,0.01772*%
%ADD20C,0.01000*%
%ADD21R,0.03937X0.11811*%
%ADD22C,0.00000*%
%ADD23R,0.06000X0.03000*%
%ADD24C,0.02500*%
%ADD25C,0.01600*%
%ADD26C,0.01200*%
%ADD27C,0.04000*%
D10*
X0106237Y0097684D02*
X0119698Y0097684D01*
X0119428Y0097415D02*
X0120544Y0098528D01*
X0121472Y0099801D01*
X0127992Y0114329D01*
X0126601Y0113884D01*
X0125158Y0113666D01*
X0123698Y0113681D01*
X0122260Y0113929D01*
X0120879Y0114403D01*
X0119591Y0115091D01*
X0118430Y0115975D01*
X0117424Y0117033D01*
X0116600Y0118238D01*
X0115979Y0119559D01*
X0115576Y0120962D01*
X0115402Y0122412D01*
X0104907Y0110436D01*
X0104135Y0109062D01*
X0103588Y0107584D01*
X0103278Y0106039D01*
X0103215Y0104465D01*
X0103398Y0102900D01*
X0103824Y0101383D01*
X0104481Y0099951D01*
X0105355Y0098640D01*
X0106423Y0097482D01*
X0107659Y0096504D01*
X0109062Y0095787D01*
X0110560Y0095299D01*
X0112116Y0095050D01*
X0113692Y0095048D01*
X0115248Y0095292D01*
X0116747Y0095777D01*
X0118152Y0096491D01*
X0119428Y0097415D01*
X0118697Y0096885D02*
X0107177Y0096885D01*
X0108477Y0096087D02*
X0117357Y0096087D01*
X0115221Y0095288D02*
X0110625Y0095288D01*
X0105500Y0098482D02*
X0120498Y0098482D01*
X0121093Y0099281D02*
X0104928Y0099281D01*
X0104423Y0100079D02*
X0121597Y0100079D01*
X0121955Y0100878D02*
X0104056Y0100878D01*
X0103741Y0101676D02*
X0122313Y0101676D01*
X0122672Y0102475D02*
X0103517Y0102475D01*
X0103354Y0103273D02*
X0123030Y0103273D01*
X0123388Y0104072D02*
X0103261Y0104072D01*
X0103231Y0104870D02*
X0123747Y0104870D01*
X0124105Y0105669D02*
X0103263Y0105669D01*
X0103364Y0106467D02*
X0124463Y0106467D01*
X0124822Y0107266D02*
X0103524Y0107266D01*
X0103766Y0108064D02*
X0125180Y0108064D01*
X0125538Y0108863D02*
X0104061Y0108863D01*
X0104472Y0109661D02*
X0125897Y0109661D01*
X0126255Y0110460D02*
X0104928Y0110460D01*
X0105628Y0111258D02*
X0126613Y0111258D01*
X0126972Y0112057D02*
X0106327Y0112057D01*
X0107027Y0112855D02*
X0127330Y0112855D01*
X0127689Y0113654D02*
X0107727Y0113654D01*
X0108427Y0114452D02*
X0120786Y0114452D01*
X0119381Y0115251D02*
X0109127Y0115251D01*
X0109826Y0116049D02*
X0118359Y0116049D01*
X0117600Y0116848D02*
X0110526Y0116848D01*
X0111226Y0117646D02*
X0117005Y0117646D01*
X0116503Y0118445D02*
X0111926Y0118445D01*
X0112626Y0119243D02*
X0116127Y0119243D01*
X0115840Y0120042D02*
X0113325Y0120042D01*
X0114025Y0120841D02*
X0115611Y0120841D01*
X0115495Y0121639D02*
X0114725Y0121639D01*
X0110293Y0124833D02*
X0085186Y0124833D01*
X0085256Y0125039D02*
X0084750Y0123547D01*
X0084484Y0121994D01*
X0084464Y0120418D01*
X0084691Y0118859D01*
X0085159Y0117354D01*
X0085856Y0115942D01*
X0086766Y0114655D01*
X0087910Y0113571D01*
X0089208Y0112679D01*
X0090631Y0112002D01*
X0092142Y0111555D01*
X0093704Y0111350D01*
X0095279Y0111392D01*
X0096828Y0111679D01*
X0098313Y0112206D01*
X0099698Y0112958D01*
X0100947Y0113918D01*
X0111304Y0126014D01*
X0109845Y0125980D01*
X0108398Y0126178D01*
X0107002Y0126605D01*
X0105692Y0127248D01*
X0104501Y0128093D01*
X0103460Y0129116D01*
X0102596Y0130293D01*
X0101930Y0131592D01*
X0101480Y0132980D01*
X0101257Y0134423D01*
X0101266Y0135883D01*
X0101509Y0137322D01*
X0088059Y0128797D01*
X0086931Y0127697D01*
X0085989Y0126434D01*
X0085256Y0125039D01*
X0085567Y0125632D02*
X0110976Y0125632D01*
X0109609Y0124035D02*
X0084915Y0124035D01*
X0084697Y0123236D02*
X0108925Y0123236D01*
X0108242Y0122438D02*
X0084560Y0122438D01*
X0084479Y0121639D02*
X0107558Y0121639D01*
X0106874Y0120841D02*
X0084469Y0120841D01*
X0084519Y0120042D02*
X0106191Y0120042D01*
X0105507Y0119243D02*
X0084635Y0119243D01*
X0084819Y0118445D02*
X0104823Y0118445D01*
X0104140Y0117646D02*
X0085068Y0117646D01*
X0085409Y0116848D02*
X0103456Y0116848D01*
X0102772Y0116049D02*
X0085803Y0116049D01*
X0086345Y0115251D02*
X0102089Y0115251D01*
X0101405Y0114452D02*
X0086980Y0114452D01*
X0087822Y0113654D02*
X0100604Y0113654D01*
X0099508Y0112855D02*
X0088952Y0112855D01*
X0090515Y0112057D02*
X0097893Y0112057D01*
X0105733Y0127229D02*
X0086582Y0127229D01*
X0085987Y0126430D02*
X0107574Y0126430D01*
X0104594Y0128027D02*
X0087270Y0128027D01*
X0088104Y0128826D02*
X0103756Y0128826D01*
X0103087Y0129624D02*
X0089364Y0129624D01*
X0090624Y0130423D02*
X0102529Y0130423D01*
X0102120Y0131221D02*
X0091884Y0131221D01*
X0093143Y0132020D02*
X0101791Y0132020D01*
X0101532Y0132818D02*
X0094403Y0132818D01*
X0095663Y0133617D02*
X0101381Y0133617D01*
X0101258Y0134415D02*
X0096922Y0134415D01*
X0098182Y0135214D02*
X0101262Y0135214D01*
X0101288Y0136012D02*
X0099442Y0136012D01*
X0100702Y0136811D02*
X0101423Y0136811D01*
X0095582Y0140005D02*
X0071059Y0140005D01*
X0071168Y0139375D02*
X0071678Y0137884D01*
X0072469Y0136521D01*
X0073463Y0135299D01*
X0074637Y0134247D01*
X0075960Y0133392D01*
X0077401Y0132754D01*
X0078923Y0132350D01*
X0080491Y0132188D01*
X0082064Y0132274D01*
X0083605Y0132605D01*
X0085074Y0133173D01*
X0098425Y0141853D01*
X0097015Y0142232D01*
X0095684Y0142831D01*
X0094465Y0143634D01*
X0093390Y0144621D01*
X0092486Y0145768D01*
X0091776Y0147043D01*
X0091279Y0148416D01*
X0091007Y0149850D01*
X0090967Y0151309D01*
X0091160Y0152756D01*
X0091582Y0154154D01*
X0092221Y0155466D01*
X0076911Y0151085D01*
X0075518Y0150349D01*
X0074258Y0149403D01*
X0073161Y0148272D01*
X0072254Y0146983D01*
X0071561Y0145569D01*
X0071097Y0144063D01*
X0070874Y0142503D01*
X0070898Y0140927D01*
X0071168Y0139375D01*
X0071226Y0139206D02*
X0094354Y0139206D01*
X0093126Y0138408D02*
X0071499Y0138408D01*
X0071838Y0137609D02*
X0091898Y0137609D01*
X0090670Y0136811D02*
X0072301Y0136811D01*
X0072883Y0136012D02*
X0089442Y0136012D01*
X0088213Y0135214D02*
X0073559Y0135214D01*
X0074449Y0134415D02*
X0086985Y0134415D01*
X0085757Y0133617D02*
X0075612Y0133617D01*
X0077256Y0132818D02*
X0084156Y0132818D01*
X0094069Y0143997D02*
X0071087Y0143997D01*
X0070974Y0143199D02*
X0095125Y0143199D01*
X0096640Y0142400D02*
X0070876Y0142400D01*
X0070888Y0141602D02*
X0098039Y0141602D01*
X0096811Y0140803D02*
X0070920Y0140803D01*
X0071323Y0144796D02*
X0093252Y0144796D01*
X0092622Y0145594D02*
X0071573Y0145594D01*
X0071965Y0146393D02*
X0092138Y0146393D01*
X0091722Y0147191D02*
X0072401Y0147191D01*
X0072963Y0147990D02*
X0091433Y0147990D01*
X0091208Y0148788D02*
X0073662Y0148788D01*
X0074503Y0149587D02*
X0091057Y0149587D01*
X0090992Y0150385D02*
X0075588Y0150385D01*
X0077255Y0151184D02*
X0090970Y0151184D01*
X0091057Y0151982D02*
X0080046Y0151982D01*
X0082836Y0152781D02*
X0091168Y0152781D01*
X0091409Y0153579D02*
X0085627Y0153579D01*
X0088417Y0154378D02*
X0091691Y0154378D01*
X0092080Y0155177D02*
X0091207Y0155177D01*
X0090631Y0160746D02*
X0075381Y0156162D01*
X0073811Y0156030D01*
X0072240Y0156145D01*
X0070705Y0156504D01*
X0069246Y0157099D01*
X0067898Y0157914D01*
X0066694Y0158931D01*
X0065664Y0160123D01*
X0064834Y0161462D01*
X0064222Y0162914D01*
X0063846Y0164444D01*
X0063775Y0166018D01*
X0063951Y0167584D01*
X0064370Y0169103D01*
X0065022Y0170537D01*
X0065890Y0171852D01*
X0066953Y0173016D01*
X0068184Y0173998D01*
X0069555Y0174776D01*
X0071030Y0175330D01*
X0072573Y0175646D01*
X0088497Y0175554D01*
X0087516Y0174473D01*
X0086719Y0173250D01*
X0086127Y0171916D01*
X0085756Y0170504D01*
X0085614Y0169051D01*
X0085706Y0167594D01*
X0086030Y0166171D01*
X0086576Y0164817D01*
X0087330Y0163567D01*
X0088275Y0162454D01*
X0089384Y0161506D01*
X0090631Y0160746D01*
X0090599Y0160766D02*
X0065265Y0160766D01*
X0064790Y0161565D02*
X0089315Y0161565D01*
X0088381Y0162363D02*
X0064454Y0162363D01*
X0064161Y0163162D02*
X0087674Y0163162D01*
X0087093Y0163960D02*
X0063965Y0163960D01*
X0063832Y0164759D02*
X0086611Y0164759D01*
X0086277Y0165557D02*
X0063796Y0165557D01*
X0063813Y0166356D02*
X0085988Y0166356D01*
X0085806Y0167154D02*
X0063903Y0167154D01*
X0064053Y0167953D02*
X0085684Y0167953D01*
X0085633Y0168751D02*
X0064273Y0168751D01*
X0064573Y0169550D02*
X0085663Y0169550D01*
X0085741Y0170348D02*
X0064936Y0170348D01*
X0065424Y0171147D02*
X0085925Y0171147D01*
X0086140Y0171945D02*
X0065975Y0171945D01*
X0066704Y0172744D02*
X0086494Y0172744D01*
X0086909Y0173542D02*
X0067613Y0173542D01*
X0068788Y0174341D02*
X0087429Y0174341D01*
X0088121Y0175139D02*
X0070523Y0175139D01*
X0071187Y0181298D02*
X0069712Y0181852D01*
X0068342Y0182629D01*
X0067110Y0183612D01*
X0066047Y0184775D01*
X0065179Y0186090D01*
X0064528Y0187525D01*
X0064109Y0189044D01*
X0063932Y0190609D01*
X0064003Y0192183D01*
X0064380Y0193713D01*
X0064991Y0195166D01*
X0065822Y0196504D01*
X0066852Y0197697D01*
X0068056Y0198713D01*
X0069404Y0199529D01*
X0070863Y0200124D01*
X0072397Y0200483D01*
X0073969Y0200598D01*
X0075539Y0200465D01*
X0090789Y0195881D01*
X0089542Y0195122D01*
X0088432Y0194173D01*
X0087488Y0193060D01*
X0086733Y0191811D01*
X0086187Y0190457D01*
X0085864Y0189033D01*
X0085772Y0187576D01*
X0085913Y0186123D01*
X0086285Y0184711D01*
X0086876Y0183377D01*
X0087673Y0182154D01*
X0088655Y0181073D01*
X0072731Y0180981D01*
X0071187Y0181298D01*
X0070576Y0181527D02*
X0088242Y0181527D01*
X0087561Y0182326D02*
X0068877Y0182326D01*
X0067721Y0183124D02*
X0087041Y0183124D01*
X0086634Y0183923D02*
X0066826Y0183923D01*
X0066096Y0184721D02*
X0086282Y0184721D01*
X0086072Y0185520D02*
X0065556Y0185520D01*
X0065076Y0186318D02*
X0085894Y0186318D01*
X0085817Y0187117D02*
X0064713Y0187117D01*
X0064420Y0187915D02*
X0085793Y0187915D01*
X0085844Y0188714D02*
X0064200Y0188714D01*
X0064056Y0189512D02*
X0085973Y0189512D01*
X0086154Y0190311D02*
X0063966Y0190311D01*
X0063955Y0191110D02*
X0086450Y0191110D01*
X0086792Y0191908D02*
X0063991Y0191908D01*
X0064132Y0192707D02*
X0087274Y0192707D01*
X0087865Y0193505D02*
X0064328Y0193505D01*
X0064628Y0194304D02*
X0088585Y0194304D01*
X0089519Y0195102D02*
X0064964Y0195102D01*
X0065447Y0195901D02*
X0090724Y0195901D01*
X0088067Y0196699D02*
X0065990Y0196699D01*
X0066680Y0197498D02*
X0085411Y0197498D01*
X0082754Y0198296D02*
X0067562Y0198296D01*
X0068686Y0199095D02*
X0080098Y0199095D01*
X0077442Y0199893D02*
X0070298Y0199893D01*
X0075518Y0206318D02*
X0076911Y0205581D01*
X0092221Y0201200D01*
X0091582Y0202513D01*
X0091160Y0203910D01*
X0090967Y0205357D01*
X0091007Y0206817D01*
X0091279Y0208251D01*
X0091776Y0209623D01*
X0092486Y0210899D01*
X0093390Y0212045D01*
X0094465Y0213033D01*
X0095684Y0213836D01*
X0097015Y0214435D01*
X0098425Y0214814D01*
X0085074Y0223494D01*
X0083605Y0224062D01*
X0082064Y0224393D01*
X0080491Y0224478D01*
X0078923Y0224317D01*
X0077401Y0223912D01*
X0075960Y0223275D01*
X0074636Y0222419D01*
X0073463Y0221368D01*
X0072469Y0220145D01*
X0071678Y0218782D01*
X0071169Y0217292D01*
X0070898Y0215739D01*
X0070874Y0214164D01*
X0071097Y0212604D01*
X0071561Y0211098D01*
X0072255Y0209684D01*
X0073161Y0208395D01*
X0074258Y0207264D01*
X0075518Y0206318D01*
X0075588Y0206281D02*
X0090992Y0206281D01*
X0090970Y0205483D02*
X0077255Y0205483D01*
X0080046Y0204684D02*
X0091057Y0204684D01*
X0091168Y0203886D02*
X0082836Y0203886D01*
X0085627Y0203087D02*
X0091409Y0203087D01*
X0091691Y0202289D02*
X0088417Y0202289D01*
X0091207Y0201490D02*
X0092080Y0201490D01*
X0091057Y0207080D02*
X0074503Y0207080D01*
X0073662Y0207878D02*
X0091208Y0207878D01*
X0091433Y0208677D02*
X0072963Y0208677D01*
X0072401Y0209475D02*
X0091722Y0209475D01*
X0092138Y0210274D02*
X0071965Y0210274D01*
X0071574Y0211072D02*
X0092622Y0211072D01*
X0093252Y0211871D02*
X0071323Y0211871D01*
X0071088Y0212669D02*
X0094069Y0212669D01*
X0095125Y0213468D02*
X0070974Y0213468D01*
X0070876Y0214266D02*
X0096640Y0214266D01*
X0096811Y0215863D02*
X0070920Y0215863D01*
X0070888Y0215065D02*
X0098039Y0215065D01*
X0095582Y0216662D02*
X0071059Y0216662D01*
X0071226Y0217460D02*
X0094354Y0217460D01*
X0093126Y0218259D02*
X0071499Y0218259D01*
X0071838Y0219057D02*
X0091898Y0219057D01*
X0090670Y0219856D02*
X0072301Y0219856D01*
X0072883Y0220654D02*
X0089442Y0220654D01*
X0088213Y0221453D02*
X0073558Y0221453D01*
X0074449Y0222251D02*
X0086985Y0222251D01*
X0085757Y0223050D02*
X0075612Y0223050D01*
X0077256Y0223848D02*
X0084156Y0223848D01*
X0088059Y0227870D02*
X0101509Y0219344D01*
X0101266Y0220784D01*
X0101257Y0222244D01*
X0101480Y0223686D01*
X0101930Y0225075D01*
X0102596Y0226374D01*
X0103460Y0227550D01*
X0104501Y0228574D01*
X0105692Y0229418D01*
X0107002Y0230062D01*
X0108398Y0230488D01*
X0109845Y0230687D01*
X0111304Y0230652D01*
X0100947Y0242749D01*
X0099698Y0243708D01*
X0098313Y0244461D01*
X0096828Y0244987D01*
X0095279Y0245275D01*
X0093704Y0245317D01*
X0092142Y0245112D01*
X0090631Y0244665D01*
X0089208Y0243987D01*
X0087909Y0243095D01*
X0086766Y0242011D01*
X0085856Y0240725D01*
X0085159Y0239312D01*
X0084691Y0237808D01*
X0084464Y0236248D01*
X0084484Y0234673D01*
X0084750Y0233120D01*
X0085256Y0231628D01*
X0085989Y0230233D01*
X0086931Y0228970D01*
X0088059Y0227870D01*
X0088104Y0227841D02*
X0103756Y0227841D01*
X0103087Y0227043D02*
X0089364Y0227043D01*
X0090624Y0226244D02*
X0102529Y0226244D01*
X0102120Y0225445D02*
X0091883Y0225445D01*
X0093143Y0224647D02*
X0101791Y0224647D01*
X0101532Y0223848D02*
X0094403Y0223848D01*
X0095663Y0223050D02*
X0101381Y0223050D01*
X0101258Y0222251D02*
X0096922Y0222251D01*
X0098182Y0221453D02*
X0101262Y0221453D01*
X0101288Y0220654D02*
X0099442Y0220654D01*
X0100702Y0219856D02*
X0101423Y0219856D01*
X0104594Y0228640D02*
X0087270Y0228640D01*
X0086582Y0229438D02*
X0105733Y0229438D01*
X0107574Y0230237D02*
X0085987Y0230237D01*
X0085567Y0231035D02*
X0110976Y0231035D01*
X0110293Y0231834D02*
X0085186Y0231834D01*
X0084915Y0232632D02*
X0109609Y0232632D01*
X0108925Y0233431D02*
X0084697Y0233431D01*
X0084560Y0234229D02*
X0108242Y0234229D01*
X0107558Y0235028D02*
X0084479Y0235028D01*
X0084469Y0235826D02*
X0106874Y0235826D01*
X0106191Y0236625D02*
X0084519Y0236625D01*
X0084635Y0237423D02*
X0105507Y0237423D01*
X0104823Y0238222D02*
X0084820Y0238222D01*
X0085068Y0239020D02*
X0104140Y0239020D01*
X0103456Y0239819D02*
X0085409Y0239819D01*
X0085803Y0240617D02*
X0102772Y0240617D01*
X0102089Y0241416D02*
X0086345Y0241416D01*
X0086980Y0242214D02*
X0101405Y0242214D01*
X0100604Y0243013D02*
X0087822Y0243013D01*
X0088952Y0243811D02*
X0099509Y0243811D01*
X0097893Y0244610D02*
X0090515Y0244610D01*
X0103627Y0249082D02*
X0104174Y0247605D01*
X0104946Y0246231D01*
X0115441Y0234255D01*
X0115615Y0235704D01*
X0116018Y0237108D01*
X0116640Y0238429D01*
X0117464Y0239634D01*
X0118469Y0240692D01*
X0119631Y0241576D01*
X0120918Y0242264D01*
X0122299Y0242738D01*
X0123738Y0242985D01*
X0125197Y0243000D01*
X0126641Y0242783D01*
X0128031Y0242337D01*
X0121511Y0256866D01*
X0120583Y0258139D01*
X0119468Y0259252D01*
X0118192Y0260176D01*
X0116787Y0260890D01*
X0115288Y0261374D01*
X0113731Y0261619D01*
X0112155Y0261617D01*
X0110599Y0261368D01*
X0109101Y0260879D01*
X0107699Y0260162D01*
X0106462Y0259185D01*
X0105394Y0258027D01*
X0104521Y0256715D01*
X0103863Y0255284D01*
X0103437Y0253767D01*
X0103254Y0252202D01*
X0103318Y0250627D01*
X0103627Y0249082D01*
X0103563Y0249401D02*
X0124861Y0249401D01*
X0124503Y0250199D02*
X0103404Y0250199D01*
X0103303Y0250998D02*
X0124144Y0250998D01*
X0123786Y0251796D02*
X0103271Y0251796D01*
X0103300Y0252595D02*
X0123428Y0252595D01*
X0123069Y0253393D02*
X0103394Y0253393D01*
X0103557Y0254192D02*
X0122711Y0254192D01*
X0122353Y0254990D02*
X0103781Y0254990D01*
X0104095Y0255789D02*
X0121994Y0255789D01*
X0121636Y0256587D02*
X0104462Y0256587D01*
X0104968Y0257386D02*
X0121132Y0257386D01*
X0120538Y0258184D02*
X0105540Y0258184D01*
X0106276Y0258983D02*
X0119737Y0258983D01*
X0118736Y0259781D02*
X0107217Y0259781D01*
X0108516Y0260580D02*
X0117396Y0260580D01*
X0115262Y0261379D02*
X0110664Y0261379D01*
X0103805Y0248602D02*
X0125219Y0248602D01*
X0125578Y0247804D02*
X0104101Y0247804D01*
X0104511Y0247005D02*
X0125936Y0247005D01*
X0126295Y0246207D02*
X0104967Y0246207D01*
X0105667Y0245408D02*
X0126653Y0245408D01*
X0127011Y0244610D02*
X0106367Y0244610D01*
X0107067Y0243811D02*
X0127370Y0243811D01*
X0127728Y0243013D02*
X0107766Y0243013D01*
X0108466Y0242214D02*
X0120825Y0242214D01*
X0119420Y0241416D02*
X0109166Y0241416D01*
X0109866Y0240617D02*
X0118398Y0240617D01*
X0117640Y0239819D02*
X0110566Y0239819D01*
X0111265Y0239020D02*
X0117044Y0239020D01*
X0116542Y0238222D02*
X0111965Y0238222D01*
X0112665Y0237423D02*
X0116167Y0237423D01*
X0115880Y0236625D02*
X0113365Y0236625D01*
X0114065Y0235826D02*
X0115650Y0235826D01*
X0115534Y0235028D02*
X0114764Y0235028D01*
X0131939Y0247005D02*
X0134002Y0247005D01*
X0134283Y0247448D02*
X0135253Y0248540D01*
X0136383Y0249463D01*
X0137647Y0250194D01*
X0139011Y0250715D01*
X0140440Y0251011D01*
X0141898Y0251076D01*
X0143348Y0250907D01*
X0144753Y0250510D01*
X0146076Y0249893D01*
X0147284Y0249073D01*
X0145131Y0264851D01*
X0144601Y0266335D01*
X0143845Y0267717D01*
X0142882Y0268964D01*
X0141735Y0270045D01*
X0140434Y0270934D01*
X0139010Y0271608D01*
X0137498Y0272051D01*
X0135935Y0272252D01*
X0134360Y0272206D01*
X0132812Y0271914D01*
X0131350Y0271325D01*
X0129998Y0270516D01*
X0128790Y0269504D01*
X0127755Y0268317D01*
X0126918Y0266981D01*
X0126300Y0265532D01*
X0125917Y0264004D01*
X0125778Y0262434D01*
X0125885Y0260862D01*
X0126238Y0259326D01*
X0132925Y0244874D01*
X0133501Y0246216D01*
X0134283Y0247448D01*
X0134599Y0247804D02*
X0131569Y0247804D01*
X0131200Y0248602D02*
X0135329Y0248602D01*
X0136307Y0249401D02*
X0130830Y0249401D01*
X0130461Y0250199D02*
X0137660Y0250199D01*
X0140375Y0250998D02*
X0130091Y0250998D01*
X0129722Y0251796D02*
X0146913Y0251796D01*
X0147022Y0250998D02*
X0142569Y0250998D01*
X0145419Y0250199D02*
X0147131Y0250199D01*
X0147239Y0249401D02*
X0146801Y0249401D01*
X0146804Y0252595D02*
X0129352Y0252595D01*
X0128983Y0253393D02*
X0146695Y0253393D01*
X0146586Y0254192D02*
X0128613Y0254192D01*
X0128244Y0254990D02*
X0146477Y0254990D01*
X0146368Y0255789D02*
X0127875Y0255789D01*
X0127505Y0256587D02*
X0146259Y0256587D01*
X0146150Y0257386D02*
X0127136Y0257386D01*
X0126766Y0258184D02*
X0146041Y0258184D01*
X0145932Y0258983D02*
X0126397Y0258983D01*
X0126133Y0259781D02*
X0145823Y0259781D01*
X0145714Y0260580D02*
X0125950Y0260580D01*
X0125850Y0261379D02*
X0145605Y0261379D01*
X0145496Y0262177D02*
X0125795Y0262177D01*
X0125826Y0262976D02*
X0145387Y0262976D01*
X0145278Y0263774D02*
X0125897Y0263774D01*
X0126060Y0264573D02*
X0145170Y0264573D01*
X0144946Y0265371D02*
X0126260Y0265371D01*
X0126572Y0266170D02*
X0144660Y0266170D01*
X0144255Y0266968D02*
X0126912Y0266968D01*
X0127410Y0267767D02*
X0143807Y0267767D01*
X0143190Y0268565D02*
X0127971Y0268565D01*
X0128667Y0269364D02*
X0142458Y0269364D01*
X0141565Y0270162D02*
X0129576Y0270162D01*
X0130741Y0270961D02*
X0140378Y0270961D01*
X0138493Y0271759D02*
X0132428Y0271759D01*
X0150698Y0267767D02*
X0169823Y0267767D01*
X0169672Y0268453D02*
X0169098Y0269920D01*
X0168301Y0271280D01*
X0167302Y0272498D01*
X0166124Y0273544D01*
X0164797Y0274394D01*
X0163353Y0275025D01*
X0161828Y0275423D01*
X0160260Y0275577D01*
X0158692Y0275423D01*
X0157168Y0275025D01*
X0155724Y0274394D01*
X0154397Y0273544D01*
X0153219Y0272498D01*
X0152220Y0271280D01*
X0151423Y0269920D01*
X0150849Y0268453D01*
X0150511Y0266914D01*
X0150418Y0265341D01*
X0152780Y0249593D01*
X0153709Y0250719D01*
X0154806Y0251682D01*
X0156043Y0252458D01*
X0157387Y0253027D01*
X0158805Y0253374D01*
X0160260Y0253491D01*
X0161716Y0253374D01*
X0163133Y0253027D01*
X0164478Y0252458D01*
X0165714Y0251682D01*
X0166811Y0250719D01*
X0167741Y0249593D01*
X0170103Y0265341D01*
X0170010Y0266914D01*
X0169672Y0268453D01*
X0169628Y0268565D02*
X0150892Y0268565D01*
X0151205Y0269364D02*
X0169316Y0269364D01*
X0168956Y0270162D02*
X0151565Y0270162D01*
X0152033Y0270961D02*
X0168488Y0270961D01*
X0167908Y0271759D02*
X0152613Y0271759D01*
X0153287Y0272558D02*
X0167234Y0272558D01*
X0166335Y0273356D02*
X0154186Y0273356D01*
X0155351Y0274155D02*
X0165170Y0274155D01*
X0163518Y0274953D02*
X0157004Y0274953D01*
X0150523Y0266968D02*
X0169998Y0266968D01*
X0170054Y0266170D02*
X0150467Y0266170D01*
X0150420Y0265371D02*
X0170101Y0265371D01*
X0169988Y0264573D02*
X0150533Y0264573D01*
X0150653Y0263774D02*
X0169868Y0263774D01*
X0169748Y0262976D02*
X0150773Y0262976D01*
X0150893Y0262177D02*
X0169628Y0262177D01*
X0169509Y0261379D02*
X0151012Y0261379D01*
X0151132Y0260580D02*
X0169389Y0260580D01*
X0169269Y0259781D02*
X0151252Y0259781D01*
X0151372Y0258983D02*
X0169149Y0258983D01*
X0169029Y0258184D02*
X0151491Y0258184D01*
X0151611Y0257386D02*
X0168910Y0257386D01*
X0168790Y0256587D02*
X0151731Y0256587D01*
X0151851Y0255789D02*
X0168670Y0255789D01*
X0168550Y0254990D02*
X0151970Y0254990D01*
X0152090Y0254192D02*
X0168431Y0254192D01*
X0168311Y0253393D02*
X0161475Y0253393D01*
X0159046Y0253393D02*
X0152210Y0253393D01*
X0152330Y0252595D02*
X0156366Y0252595D01*
X0154989Y0251796D02*
X0152450Y0251796D01*
X0152569Y0250998D02*
X0154027Y0250998D01*
X0153281Y0250199D02*
X0152689Y0250199D01*
X0164154Y0252595D02*
X0168191Y0252595D01*
X0168071Y0251796D02*
X0165532Y0251796D01*
X0166494Y0250998D02*
X0167951Y0250998D01*
X0167832Y0250199D02*
X0167240Y0250199D01*
X0173235Y0249401D02*
X0173989Y0249401D01*
X0174366Y0249657D02*
X0175689Y0250273D01*
X0177094Y0250671D01*
X0178544Y0250840D01*
X0180002Y0250775D01*
X0181432Y0250479D01*
X0182795Y0249958D01*
X0184059Y0249227D01*
X0185190Y0248304D01*
X0186159Y0247212D01*
X0186941Y0245980D01*
X0187517Y0244638D01*
X0194204Y0259090D01*
X0194557Y0260626D01*
X0194665Y0262198D01*
X0194525Y0263767D01*
X0194142Y0265296D01*
X0193524Y0266745D01*
X0192687Y0268080D01*
X0191652Y0269268D01*
X0190444Y0270279D01*
X0189092Y0271089D01*
X0187630Y0271677D01*
X0186082Y0271969D01*
X0184507Y0272015D01*
X0182944Y0271814D01*
X0181432Y0271372D01*
X0180008Y0270698D01*
X0178707Y0269809D01*
X0177560Y0268728D01*
X0176597Y0267481D01*
X0175841Y0266099D01*
X0175311Y0264615D01*
X0173158Y0248837D01*
X0174366Y0249657D01*
X0173344Y0250199D02*
X0175530Y0250199D01*
X0173453Y0250998D02*
X0190460Y0250998D01*
X0190829Y0251796D02*
X0173562Y0251796D01*
X0173671Y0252595D02*
X0191199Y0252595D01*
X0191568Y0253393D02*
X0173780Y0253393D01*
X0173889Y0254192D02*
X0191938Y0254192D01*
X0192307Y0254990D02*
X0173997Y0254990D01*
X0174106Y0255789D02*
X0192677Y0255789D01*
X0193046Y0256587D02*
X0174215Y0256587D01*
X0174324Y0257386D02*
X0193416Y0257386D01*
X0193785Y0258184D02*
X0174433Y0258184D01*
X0174542Y0258983D02*
X0194155Y0258983D01*
X0194363Y0259781D02*
X0174651Y0259781D01*
X0174760Y0260580D02*
X0194546Y0260580D01*
X0194608Y0261379D02*
X0174869Y0261379D01*
X0174978Y0262177D02*
X0194663Y0262177D01*
X0194595Y0262976D02*
X0175087Y0262976D01*
X0175196Y0263774D02*
X0194523Y0263774D01*
X0194323Y0264573D02*
X0175305Y0264573D01*
X0175581Y0265371D02*
X0194110Y0265371D01*
X0193770Y0266170D02*
X0175880Y0266170D01*
X0176317Y0266968D02*
X0193385Y0266968D01*
X0192884Y0267767D02*
X0176818Y0267767D01*
X0177435Y0268565D02*
X0192265Y0268565D01*
X0191538Y0269364D02*
X0178234Y0269364D01*
X0179224Y0270162D02*
X0190584Y0270162D01*
X0189307Y0270961D02*
X0180564Y0270961D01*
X0182756Y0271759D02*
X0187197Y0271759D01*
X0200023Y0258184D02*
X0215020Y0258184D01*
X0215166Y0258027D02*
X0214098Y0259185D01*
X0212862Y0260162D01*
X0211459Y0260879D01*
X0209961Y0261368D01*
X0208405Y0261617D01*
X0206829Y0261619D01*
X0205273Y0261374D01*
X0203774Y0260889D01*
X0202369Y0260176D01*
X0201093Y0259252D01*
X0199977Y0258139D01*
X0199049Y0256866D01*
X0192529Y0242337D01*
X0193919Y0242783D01*
X0195363Y0243000D01*
X0196823Y0242985D01*
X0198261Y0242738D01*
X0199642Y0242264D01*
X0200930Y0241576D01*
X0202091Y0240692D01*
X0203097Y0239634D01*
X0203921Y0238429D01*
X0204542Y0237108D01*
X0204945Y0235704D01*
X0205119Y0234255D01*
X0215614Y0246231D01*
X0216386Y0247605D01*
X0216933Y0249082D01*
X0217242Y0250627D01*
X0217306Y0252202D01*
X0217123Y0253767D01*
X0216697Y0255284D01*
X0216039Y0256715D01*
X0215166Y0258027D01*
X0215593Y0257386D02*
X0199428Y0257386D01*
X0198924Y0256587D02*
X0216098Y0256587D01*
X0216465Y0255789D02*
X0198566Y0255789D01*
X0198208Y0254990D02*
X0216780Y0254990D01*
X0217004Y0254192D02*
X0197849Y0254192D01*
X0197491Y0253393D02*
X0217167Y0253393D01*
X0217260Y0252595D02*
X0197132Y0252595D01*
X0196774Y0251796D02*
X0217290Y0251796D01*
X0217257Y0250998D02*
X0196416Y0250998D01*
X0196057Y0250199D02*
X0217157Y0250199D01*
X0216997Y0249401D02*
X0195699Y0249401D01*
X0195341Y0248602D02*
X0216755Y0248602D01*
X0216460Y0247804D02*
X0194982Y0247804D01*
X0194624Y0247005D02*
X0216049Y0247005D01*
X0215593Y0246207D02*
X0194266Y0246207D01*
X0193907Y0245408D02*
X0214893Y0245408D01*
X0214193Y0244610D02*
X0193549Y0244610D01*
X0193191Y0243811D02*
X0213494Y0243811D01*
X0212794Y0243013D02*
X0192832Y0243013D01*
X0187874Y0245408D02*
X0187186Y0245408D01*
X0186797Y0246207D02*
X0188243Y0246207D01*
X0188613Y0247005D02*
X0186290Y0247005D01*
X0185633Y0247804D02*
X0188982Y0247804D01*
X0189351Y0248602D02*
X0184824Y0248602D01*
X0183758Y0249401D02*
X0189721Y0249401D01*
X0190090Y0250199D02*
X0182164Y0250199D01*
X0199735Y0242214D02*
X0212094Y0242214D01*
X0211394Y0241416D02*
X0201140Y0241416D01*
X0202162Y0240617D02*
X0210694Y0240617D01*
X0209995Y0239819D02*
X0202921Y0239819D01*
X0203516Y0239020D02*
X0209295Y0239020D01*
X0208595Y0238222D02*
X0204018Y0238222D01*
X0204394Y0237423D02*
X0207895Y0237423D01*
X0207195Y0236625D02*
X0204681Y0236625D01*
X0204910Y0235826D02*
X0206496Y0235826D01*
X0205796Y0235028D02*
X0205026Y0235028D01*
X0209544Y0231035D02*
X0234954Y0231035D01*
X0235265Y0231628D02*
X0235771Y0233120D01*
X0236037Y0234673D01*
X0236057Y0236248D01*
X0235830Y0237808D01*
X0235362Y0239312D01*
X0234665Y0240725D01*
X0233755Y0242011D01*
X0232611Y0243095D01*
X0231312Y0243987D01*
X0229890Y0244665D01*
X0228379Y0245112D01*
X0226817Y0245317D01*
X0225242Y0245275D01*
X0223693Y0244987D01*
X0222207Y0244461D01*
X0220823Y0243708D01*
X0219573Y0242749D01*
X0209217Y0230652D01*
X0210676Y0230687D01*
X0212122Y0230488D01*
X0213519Y0230062D01*
X0214829Y0229418D01*
X0216020Y0228574D01*
X0217061Y0227550D01*
X0217925Y0226374D01*
X0218591Y0225075D01*
X0219041Y0223686D01*
X0219264Y0222244D01*
X0219254Y0220784D01*
X0219012Y0219344D01*
X0232462Y0227870D01*
X0233590Y0228970D01*
X0234532Y0230233D01*
X0235265Y0231628D01*
X0235335Y0231834D02*
X0210228Y0231834D01*
X0210912Y0232632D02*
X0235606Y0232632D01*
X0235824Y0233431D02*
X0211595Y0233431D01*
X0212279Y0234229D02*
X0235961Y0234229D01*
X0236041Y0235028D02*
X0212963Y0235028D01*
X0213646Y0235826D02*
X0236052Y0235826D01*
X0236002Y0236625D02*
X0214330Y0236625D01*
X0215014Y0237423D02*
X0235886Y0237423D01*
X0235701Y0238222D02*
X0215697Y0238222D01*
X0216381Y0239020D02*
X0235453Y0239020D01*
X0235112Y0239819D02*
X0217065Y0239819D01*
X0217748Y0240617D02*
X0234718Y0240617D01*
X0234176Y0241416D02*
X0218432Y0241416D01*
X0219116Y0242214D02*
X0233541Y0242214D01*
X0232698Y0243013D02*
X0219917Y0243013D01*
X0221012Y0243811D02*
X0231569Y0243811D01*
X0230006Y0244610D02*
X0222628Y0244610D01*
X0212947Y0230237D02*
X0234534Y0230237D01*
X0233939Y0229438D02*
X0214788Y0229438D01*
X0215927Y0228640D02*
X0233251Y0228640D01*
X0232417Y0227841D02*
X0216765Y0227841D01*
X0217434Y0227043D02*
X0231157Y0227043D01*
X0229897Y0226244D02*
X0217992Y0226244D01*
X0218401Y0225445D02*
X0228637Y0225445D01*
X0227378Y0224647D02*
X0218730Y0224647D01*
X0218989Y0223848D02*
X0226118Y0223848D01*
X0224858Y0223050D02*
X0219140Y0223050D01*
X0219263Y0222251D02*
X0223598Y0222251D01*
X0222339Y0221453D02*
X0219259Y0221453D01*
X0219233Y0220654D02*
X0221079Y0220654D01*
X0219819Y0219856D02*
X0219098Y0219856D01*
X0222422Y0215065D02*
X0249633Y0215065D01*
X0249623Y0215779D02*
X0249352Y0217331D01*
X0248843Y0218822D01*
X0248052Y0220185D01*
X0247058Y0221407D01*
X0245884Y0222459D01*
X0244561Y0223314D01*
X0243120Y0223952D01*
X0241597Y0224356D01*
X0240030Y0224518D01*
X0238457Y0224432D01*
X0236916Y0224101D01*
X0235446Y0223533D01*
X0222096Y0214853D01*
X0223506Y0214474D01*
X0224837Y0213875D01*
X0226056Y0213072D01*
X0227131Y0212085D01*
X0228035Y0210938D01*
X0228745Y0209663D01*
X0229242Y0208290D01*
X0229514Y0206856D01*
X0229554Y0205397D01*
X0229360Y0203950D01*
X0228939Y0202552D01*
X0228300Y0201240D01*
X0243610Y0205621D01*
X0245002Y0206357D01*
X0246263Y0207303D01*
X0247360Y0208434D01*
X0248266Y0209723D01*
X0248960Y0211138D01*
X0249424Y0212643D01*
X0249647Y0214203D01*
X0249623Y0215779D01*
X0249608Y0215863D02*
X0223650Y0215863D01*
X0224878Y0216662D02*
X0249469Y0216662D01*
X0249308Y0217460D02*
X0226106Y0217460D01*
X0227334Y0218259D02*
X0249035Y0218259D01*
X0248706Y0219057D02*
X0228562Y0219057D01*
X0229791Y0219856D02*
X0248243Y0219856D01*
X0247670Y0220654D02*
X0231019Y0220654D01*
X0232247Y0221453D02*
X0247006Y0221453D01*
X0246115Y0222251D02*
X0233475Y0222251D01*
X0234703Y0223050D02*
X0244969Y0223050D01*
X0243353Y0223848D02*
X0236263Y0223848D01*
X0226494Y0212669D02*
X0249428Y0212669D01*
X0249542Y0213468D02*
X0225455Y0213468D01*
X0223968Y0214266D02*
X0249646Y0214266D01*
X0249186Y0211871D02*
X0227300Y0211871D01*
X0227929Y0211072D02*
X0248928Y0211072D01*
X0248536Y0210274D02*
X0228405Y0210274D01*
X0228813Y0209475D02*
X0248092Y0209475D01*
X0247530Y0208677D02*
X0229102Y0208677D01*
X0229320Y0207878D02*
X0246821Y0207878D01*
X0245965Y0207080D02*
X0229471Y0207080D01*
X0229530Y0206281D02*
X0244858Y0206281D01*
X0243128Y0205483D02*
X0229551Y0205483D01*
X0229459Y0204684D02*
X0240337Y0204684D01*
X0237547Y0203886D02*
X0229341Y0203886D01*
X0229100Y0203087D02*
X0234757Y0203087D01*
X0231966Y0202289D02*
X0228811Y0202289D01*
X0229176Y0201490D02*
X0228422Y0201490D01*
X0229797Y0195901D02*
X0255074Y0195901D01*
X0254699Y0196504D02*
X0253669Y0197697D01*
X0252465Y0198713D01*
X0251117Y0199529D01*
X0249658Y0200123D01*
X0248124Y0200483D01*
X0246552Y0200598D01*
X0244982Y0200465D01*
X0229732Y0195881D01*
X0230979Y0195122D01*
X0232089Y0194173D01*
X0233033Y0193060D01*
X0233788Y0191811D01*
X0234334Y0190457D01*
X0234657Y0189033D01*
X0234749Y0187576D01*
X0234607Y0186123D01*
X0234236Y0184711D01*
X0233644Y0183377D01*
X0232848Y0182154D01*
X0231866Y0181073D01*
X0247790Y0180981D01*
X0249333Y0181298D01*
X0250809Y0181851D01*
X0252179Y0182629D01*
X0253411Y0183612D01*
X0254474Y0184775D01*
X0255341Y0186090D01*
X0255993Y0187525D01*
X0256412Y0189043D01*
X0256588Y0190609D01*
X0256518Y0192183D01*
X0256141Y0193713D01*
X0255530Y0195165D01*
X0254699Y0196504D01*
X0254531Y0196699D02*
X0232454Y0196699D01*
X0231002Y0195102D02*
X0255556Y0195102D01*
X0255893Y0194304D02*
X0231936Y0194304D01*
X0232656Y0193505D02*
X0256192Y0193505D01*
X0256389Y0192707D02*
X0233247Y0192707D01*
X0233729Y0191908D02*
X0256530Y0191908D01*
X0256566Y0191110D02*
X0234071Y0191110D01*
X0234367Y0190311D02*
X0256555Y0190311D01*
X0256465Y0189512D02*
X0234548Y0189512D01*
X0234677Y0188714D02*
X0256321Y0188714D01*
X0256101Y0187915D02*
X0234727Y0187915D01*
X0234704Y0187117D02*
X0255808Y0187117D01*
X0255445Y0186318D02*
X0234626Y0186318D01*
X0234449Y0185520D02*
X0254965Y0185520D01*
X0254425Y0184721D02*
X0234239Y0184721D01*
X0233886Y0183923D02*
X0253695Y0183923D01*
X0252800Y0183124D02*
X0233480Y0183124D01*
X0232960Y0182326D02*
X0251644Y0182326D01*
X0249945Y0181527D02*
X0232278Y0181527D01*
X0231866Y0175593D02*
X0247790Y0175685D01*
X0249333Y0175369D01*
X0250809Y0174815D01*
X0252179Y0174037D01*
X0253411Y0173055D01*
X0254473Y0171892D01*
X0255341Y0170577D01*
X0255993Y0169142D01*
X0256412Y0167623D01*
X0256588Y0166057D01*
X0256518Y0164483D01*
X0256141Y0162953D01*
X0255530Y0161501D01*
X0254699Y0160162D01*
X0253669Y0158970D01*
X0252465Y0157953D01*
X0251117Y0157138D01*
X0249658Y0156543D01*
X0248124Y0156184D01*
X0246552Y0156069D01*
X0244982Y0156201D01*
X0229732Y0160786D01*
X0230979Y0161545D01*
X0232089Y0162493D01*
X0233033Y0163607D01*
X0233788Y0164856D01*
X0234334Y0166210D01*
X0234657Y0167634D01*
X0234749Y0169090D01*
X0234607Y0170543D01*
X0234236Y0171955D01*
X0233644Y0173290D01*
X0232848Y0174513D01*
X0231866Y0175593D01*
X0232278Y0175139D02*
X0249945Y0175139D01*
X0251644Y0174341D02*
X0232960Y0174341D01*
X0233480Y0173542D02*
X0252799Y0173542D01*
X0253695Y0172744D02*
X0233886Y0172744D01*
X0234239Y0171945D02*
X0254425Y0171945D01*
X0254965Y0171147D02*
X0234449Y0171147D01*
X0234626Y0170348D02*
X0255445Y0170348D01*
X0255808Y0169550D02*
X0234704Y0169550D01*
X0234727Y0168751D02*
X0256101Y0168751D01*
X0256321Y0167953D02*
X0234677Y0167953D01*
X0234548Y0167154D02*
X0256465Y0167154D01*
X0256555Y0166356D02*
X0234367Y0166356D01*
X0234071Y0165557D02*
X0256566Y0165557D01*
X0256530Y0164759D02*
X0233729Y0164759D01*
X0233247Y0163960D02*
X0256389Y0163960D01*
X0256192Y0163162D02*
X0232656Y0163162D01*
X0231936Y0162363D02*
X0255893Y0162363D01*
X0255557Y0161565D02*
X0231002Y0161565D01*
X0229797Y0160766D02*
X0255074Y0160766D01*
X0254531Y0159968D02*
X0232454Y0159968D01*
X0235110Y0159169D02*
X0253841Y0159169D01*
X0252959Y0158371D02*
X0237766Y0158371D01*
X0240423Y0157572D02*
X0251835Y0157572D01*
X0250223Y0156774D02*
X0243079Y0156774D01*
X0237704Y0152781D02*
X0229244Y0152781D01*
X0229242Y0152796D02*
X0229436Y0151349D01*
X0229396Y0149889D01*
X0229124Y0148455D01*
X0228627Y0147083D01*
X0227917Y0145807D01*
X0227013Y0144661D01*
X0225938Y0143673D01*
X0224719Y0142870D01*
X0223388Y0142271D01*
X0221978Y0141892D01*
X0235328Y0133212D01*
X0236798Y0132644D01*
X0238339Y0132313D01*
X0239912Y0132228D01*
X0241479Y0132389D01*
X0243002Y0132794D01*
X0244443Y0133431D01*
X0245766Y0134287D01*
X0246939Y0135338D01*
X0247934Y0136561D01*
X0248725Y0137924D01*
X0249234Y0139414D01*
X0249504Y0140967D01*
X0249528Y0142542D01*
X0249306Y0144102D01*
X0248842Y0145608D01*
X0248148Y0147023D01*
X0247242Y0148311D01*
X0246145Y0149442D01*
X0244884Y0150388D01*
X0243492Y0151125D01*
X0228182Y0155506D01*
X0228821Y0154193D01*
X0229242Y0152796D01*
X0229006Y0153579D02*
X0234914Y0153579D01*
X0232123Y0154378D02*
X0228731Y0154378D01*
X0228342Y0155177D02*
X0229333Y0155177D01*
X0229351Y0151982D02*
X0240494Y0151982D01*
X0243285Y0151184D02*
X0229431Y0151184D01*
X0229409Y0150385D02*
X0244888Y0150385D01*
X0245952Y0149587D02*
X0229338Y0149587D01*
X0229187Y0148788D02*
X0246779Y0148788D01*
X0247468Y0147990D02*
X0228955Y0147990D01*
X0228666Y0147191D02*
X0248029Y0147191D01*
X0248457Y0146393D02*
X0228243Y0146393D01*
X0227749Y0145594D02*
X0248846Y0145594D01*
X0249092Y0144796D02*
X0227119Y0144796D01*
X0226291Y0143997D02*
X0249321Y0143997D01*
X0249435Y0143199D02*
X0225218Y0143199D01*
X0223675Y0142400D02*
X0249526Y0142400D01*
X0249514Y0141602D02*
X0222425Y0141602D01*
X0223653Y0140803D02*
X0249476Y0140803D01*
X0249337Y0140005D02*
X0224881Y0140005D01*
X0226109Y0139206D02*
X0249163Y0139206D01*
X0248890Y0138408D02*
X0227337Y0138408D01*
X0228565Y0137609D02*
X0248542Y0137609D01*
X0248079Y0136811D02*
X0229793Y0136811D01*
X0231022Y0136012D02*
X0247488Y0136012D01*
X0246800Y0135214D02*
X0232250Y0135214D01*
X0233478Y0134415D02*
X0245910Y0134415D01*
X0244730Y0133617D02*
X0234706Y0133617D01*
X0236348Y0132818D02*
X0243058Y0132818D01*
X0234532Y0126434D02*
X0233590Y0127697D01*
X0232462Y0128797D01*
X0219012Y0137322D01*
X0219254Y0135883D01*
X0219264Y0134423D01*
X0219041Y0132980D01*
X0218591Y0131592D01*
X0217925Y0130293D01*
X0217061Y0129116D01*
X0216020Y0128093D01*
X0214829Y0127248D01*
X0213519Y0126605D01*
X0212122Y0126178D01*
X0210676Y0125980D01*
X0209217Y0126014D01*
X0219573Y0113918D01*
X0220823Y0112958D01*
X0222207Y0112206D01*
X0223693Y0111679D01*
X0225242Y0111392D01*
X0226817Y0111350D01*
X0228379Y0111555D01*
X0229890Y0112002D01*
X0231312Y0112679D01*
X0232611Y0113571D01*
X0233755Y0114655D01*
X0234665Y0115942D01*
X0235362Y0117355D01*
X0235830Y0118859D01*
X0236057Y0120418D01*
X0236037Y0121994D01*
X0235771Y0123547D01*
X0235265Y0125039D01*
X0234532Y0126434D01*
X0234534Y0126430D02*
X0212947Y0126430D01*
X0214788Y0127229D02*
X0233939Y0127229D01*
X0233251Y0128027D02*
X0215927Y0128027D01*
X0216765Y0128826D02*
X0232417Y0128826D01*
X0231157Y0129624D02*
X0217434Y0129624D01*
X0217992Y0130423D02*
X0229897Y0130423D01*
X0228637Y0131221D02*
X0218401Y0131221D01*
X0218730Y0132020D02*
X0227378Y0132020D01*
X0226118Y0132818D02*
X0218989Y0132818D01*
X0219140Y0133617D02*
X0224858Y0133617D01*
X0223598Y0134415D02*
X0219263Y0134415D01*
X0219259Y0135214D02*
X0222339Y0135214D01*
X0221079Y0136012D02*
X0219233Y0136012D01*
X0219098Y0136811D02*
X0219819Y0136811D01*
X0209544Y0125632D02*
X0234954Y0125632D01*
X0235335Y0124833D02*
X0210228Y0124833D01*
X0210912Y0124035D02*
X0235605Y0124035D01*
X0235824Y0123236D02*
X0211595Y0123236D01*
X0212279Y0122438D02*
X0235961Y0122438D01*
X0236041Y0121639D02*
X0212963Y0121639D01*
X0213646Y0120841D02*
X0236051Y0120841D01*
X0236002Y0120042D02*
X0214330Y0120042D01*
X0215014Y0119243D02*
X0235886Y0119243D01*
X0235701Y0118445D02*
X0215697Y0118445D01*
X0216381Y0117646D02*
X0235453Y0117646D01*
X0235112Y0116848D02*
X0217065Y0116848D01*
X0217748Y0116049D02*
X0234718Y0116049D01*
X0234176Y0115251D02*
X0218432Y0115251D01*
X0219116Y0114452D02*
X0233541Y0114452D01*
X0232699Y0113654D02*
X0219917Y0113654D01*
X0221012Y0112855D02*
X0231569Y0112855D01*
X0230006Y0112057D02*
X0222628Y0112057D01*
X0216465Y0108983D02*
X0217012Y0107506D01*
X0217321Y0105961D01*
X0217385Y0104386D01*
X0217202Y0102821D01*
X0216776Y0101304D01*
X0216118Y0099873D01*
X0215244Y0098561D01*
X0214176Y0097403D01*
X0212940Y0096426D01*
X0211537Y0095709D01*
X0210040Y0095220D01*
X0208484Y0094971D01*
X0206908Y0094969D01*
X0205351Y0095213D01*
X0203852Y0095698D01*
X0202447Y0096412D01*
X0201171Y0097336D01*
X0200056Y0098449D01*
X0199128Y0099722D01*
X0192608Y0114251D01*
X0193998Y0113805D01*
X0195442Y0113587D01*
X0196901Y0113603D01*
X0198340Y0113850D01*
X0199721Y0114324D01*
X0201008Y0115012D01*
X0202170Y0115896D01*
X0203175Y0116954D01*
X0203999Y0118159D01*
X0204621Y0119480D01*
X0205023Y0120884D01*
X0205197Y0122333D01*
X0215693Y0110357D01*
X0216465Y0108983D01*
X0216509Y0108863D02*
X0195026Y0108863D01*
X0194667Y0109661D02*
X0216084Y0109661D01*
X0215603Y0110460D02*
X0194309Y0110460D01*
X0193951Y0111258D02*
X0214903Y0111258D01*
X0214203Y0112057D02*
X0193592Y0112057D01*
X0193234Y0112855D02*
X0213503Y0112855D01*
X0212804Y0113654D02*
X0197200Y0113654D01*
X0195001Y0113654D02*
X0192876Y0113654D01*
X0187874Y0111258D02*
X0187186Y0111258D01*
X0186941Y0110687D02*
X0186159Y0109455D01*
X0185190Y0108363D01*
X0184059Y0107440D01*
X0182795Y0106708D01*
X0181432Y0106188D01*
X0180002Y0105892D01*
X0178544Y0105827D01*
X0177094Y0105996D01*
X0175689Y0106393D01*
X0174366Y0107010D01*
X0173158Y0107830D01*
X0175311Y0092051D01*
X0175841Y0090568D01*
X0176597Y0089185D01*
X0177560Y0087938D01*
X0178707Y0086857D01*
X0180008Y0085969D01*
X0181432Y0085295D01*
X0182944Y0084852D01*
X0184507Y0084651D01*
X0186082Y0084697D01*
X0187630Y0084989D01*
X0189092Y0085578D01*
X0190444Y0086387D01*
X0191652Y0087399D01*
X0192687Y0088586D01*
X0193524Y0089921D01*
X0194142Y0091371D01*
X0194525Y0092899D01*
X0194664Y0094469D01*
X0194557Y0096041D01*
X0194204Y0097576D01*
X0187517Y0112028D01*
X0186941Y0110687D01*
X0186797Y0110460D02*
X0188243Y0110460D01*
X0188613Y0109661D02*
X0186290Y0109661D01*
X0185633Y0108863D02*
X0188982Y0108863D01*
X0189351Y0108064D02*
X0184824Y0108064D01*
X0183758Y0107266D02*
X0189721Y0107266D01*
X0190090Y0106467D02*
X0182164Y0106467D01*
X0175530Y0106467D02*
X0173344Y0106467D01*
X0173453Y0105669D02*
X0190460Y0105669D01*
X0190829Y0104870D02*
X0173562Y0104870D01*
X0173671Y0104072D02*
X0191199Y0104072D01*
X0191568Y0103273D02*
X0173780Y0103273D01*
X0173888Y0102475D02*
X0191938Y0102475D01*
X0192307Y0101676D02*
X0173997Y0101676D01*
X0174106Y0100878D02*
X0192677Y0100878D01*
X0193046Y0100079D02*
X0174215Y0100079D01*
X0174324Y0099281D02*
X0193416Y0099281D01*
X0193785Y0098482D02*
X0174433Y0098482D01*
X0174542Y0097684D02*
X0194155Y0097684D01*
X0194363Y0096885D02*
X0174651Y0096885D01*
X0174760Y0096087D02*
X0194546Y0096087D01*
X0194608Y0095288D02*
X0174869Y0095288D01*
X0174978Y0094490D02*
X0194663Y0094490D01*
X0194595Y0093691D02*
X0175087Y0093691D01*
X0175196Y0092893D02*
X0194523Y0092893D01*
X0194323Y0092094D02*
X0175305Y0092094D01*
X0175581Y0091296D02*
X0194110Y0091296D01*
X0193769Y0090497D02*
X0175880Y0090497D01*
X0176317Y0089699D02*
X0193384Y0089699D01*
X0192884Y0088900D02*
X0176818Y0088900D01*
X0177434Y0088102D02*
X0192265Y0088102D01*
X0191538Y0087303D02*
X0178234Y0087303D01*
X0179223Y0086505D02*
X0190584Y0086505D01*
X0189307Y0085706D02*
X0180564Y0085706D01*
X0182755Y0084908D02*
X0187197Y0084908D01*
X0200823Y0097684D02*
X0214435Y0097684D01*
X0215172Y0098482D02*
X0200031Y0098482D01*
X0199450Y0099281D02*
X0215724Y0099281D01*
X0216213Y0100079D02*
X0198968Y0100079D01*
X0198609Y0100878D02*
X0216580Y0100878D01*
X0216880Y0101676D02*
X0198251Y0101676D01*
X0197893Y0102475D02*
X0217104Y0102475D01*
X0217255Y0103273D02*
X0197534Y0103273D01*
X0197176Y0104072D02*
X0217348Y0104072D01*
X0217365Y0104870D02*
X0196818Y0104870D01*
X0196459Y0105669D02*
X0217333Y0105669D01*
X0217220Y0106467D02*
X0196101Y0106467D01*
X0195742Y0107266D02*
X0217060Y0107266D01*
X0216805Y0108064D02*
X0195384Y0108064D01*
X0199961Y0114452D02*
X0212104Y0114452D01*
X0211404Y0115251D02*
X0201322Y0115251D01*
X0202315Y0116049D02*
X0210704Y0116049D01*
X0210004Y0116848D02*
X0203074Y0116848D01*
X0203649Y0117646D02*
X0209305Y0117646D01*
X0208605Y0118445D02*
X0204134Y0118445D01*
X0204509Y0119243D02*
X0207905Y0119243D01*
X0207205Y0120042D02*
X0204782Y0120042D01*
X0205011Y0120841D02*
X0206505Y0120841D01*
X0205806Y0121639D02*
X0205114Y0121639D01*
X0201794Y0096885D02*
X0213522Y0096885D01*
X0212277Y0096087D02*
X0203088Y0096087D01*
X0205120Y0095288D02*
X0210249Y0095288D01*
X0173989Y0107266D02*
X0173235Y0107266D01*
X0167832Y0106467D02*
X0167240Y0106467D01*
X0166811Y0105948D02*
X0165714Y0104985D01*
X0164478Y0104209D01*
X0163133Y0103640D01*
X0161716Y0103293D01*
X0160260Y0103176D01*
X0158805Y0103293D01*
X0157387Y0103640D01*
X0156043Y0104209D01*
X0154806Y0104985D01*
X0153709Y0105948D01*
X0152780Y0107073D01*
X0150418Y0091325D01*
X0150511Y0089753D01*
X0150849Y0088214D01*
X0151423Y0086746D01*
X0152220Y0085387D01*
X0153219Y0084169D01*
X0154397Y0083122D01*
X0155724Y0082273D01*
X0157168Y0081642D01*
X0158692Y0081244D01*
X0160260Y0081089D01*
X0161828Y0081244D01*
X0163353Y0081642D01*
X0164797Y0082273D01*
X0166124Y0083123D01*
X0167301Y0084169D01*
X0168301Y0085387D01*
X0169098Y0086746D01*
X0169672Y0088214D01*
X0170010Y0089753D01*
X0170103Y0091325D01*
X0167741Y0107073D01*
X0166811Y0105948D01*
X0166494Y0105669D02*
X0167951Y0105669D01*
X0168071Y0104870D02*
X0165532Y0104870D01*
X0164154Y0104072D02*
X0168191Y0104072D01*
X0168311Y0103273D02*
X0161475Y0103273D01*
X0159046Y0103273D02*
X0152210Y0103273D01*
X0152090Y0102475D02*
X0168431Y0102475D01*
X0168550Y0101676D02*
X0151971Y0101676D01*
X0151851Y0100878D02*
X0168670Y0100878D01*
X0168790Y0100079D02*
X0151731Y0100079D01*
X0151611Y0099281D02*
X0168910Y0099281D01*
X0169029Y0098482D02*
X0151491Y0098482D01*
X0151372Y0097684D02*
X0169149Y0097684D01*
X0169269Y0096885D02*
X0151252Y0096885D01*
X0151132Y0096087D02*
X0169389Y0096087D01*
X0169509Y0095288D02*
X0151012Y0095288D01*
X0150893Y0094490D02*
X0169628Y0094490D01*
X0169748Y0093691D02*
X0150773Y0093691D01*
X0150653Y0092893D02*
X0169868Y0092893D01*
X0169988Y0092094D02*
X0150533Y0092094D01*
X0150420Y0091296D02*
X0170101Y0091296D01*
X0170054Y0090497D02*
X0150467Y0090497D01*
X0150523Y0089699D02*
X0169998Y0089699D01*
X0169823Y0088900D02*
X0150698Y0088900D01*
X0150892Y0088102D02*
X0169628Y0088102D01*
X0169316Y0087303D02*
X0151205Y0087303D01*
X0151565Y0086505D02*
X0168956Y0086505D01*
X0168488Y0085706D02*
X0152033Y0085706D01*
X0152613Y0084908D02*
X0167907Y0084908D01*
X0167234Y0084109D02*
X0153287Y0084109D01*
X0154185Y0083310D02*
X0166335Y0083310D01*
X0165170Y0082512D02*
X0155351Y0082512D01*
X0157003Y0081713D02*
X0163517Y0081713D01*
X0145761Y0096087D02*
X0125975Y0096087D01*
X0125964Y0096041D02*
X0125856Y0094469D01*
X0125996Y0092899D01*
X0126379Y0091371D01*
X0126997Y0089921D01*
X0127833Y0088586D01*
X0128869Y0087398D01*
X0130077Y0086387D01*
X0131429Y0085578D01*
X0132890Y0084989D01*
X0134439Y0084697D01*
X0136014Y0084651D01*
X0137576Y0084852D01*
X0139089Y0085295D01*
X0140513Y0085969D01*
X0141814Y0086858D01*
X0142960Y0087939D01*
X0143923Y0089186D01*
X0144680Y0090568D01*
X0145210Y0092051D01*
X0147363Y0107830D01*
X0146155Y0107010D01*
X0144832Y0106393D01*
X0143427Y0105996D01*
X0141977Y0105827D01*
X0140519Y0105892D01*
X0139089Y0106188D01*
X0137725Y0106708D01*
X0136462Y0107440D01*
X0135331Y0108363D01*
X0134362Y0109455D01*
X0133580Y0110687D01*
X0133004Y0112028D01*
X0126316Y0097576D01*
X0125964Y0096041D01*
X0125912Y0095288D02*
X0145652Y0095288D01*
X0145543Y0094490D02*
X0125858Y0094490D01*
X0125925Y0093691D02*
X0145434Y0093691D01*
X0145325Y0092893D02*
X0125997Y0092893D01*
X0126198Y0092094D02*
X0145216Y0092094D01*
X0144940Y0091296D02*
X0126411Y0091296D01*
X0126751Y0090497D02*
X0144641Y0090497D01*
X0144204Y0089699D02*
X0127136Y0089699D01*
X0127637Y0088900D02*
X0143703Y0088900D01*
X0143086Y0088102D02*
X0128256Y0088102D01*
X0128983Y0087303D02*
X0142286Y0087303D01*
X0141297Y0086505D02*
X0129937Y0086505D01*
X0131214Y0085706D02*
X0139957Y0085706D01*
X0137765Y0084908D02*
X0133324Y0084908D01*
X0126158Y0096885D02*
X0145870Y0096885D01*
X0145979Y0097684D02*
X0126366Y0097684D01*
X0126736Y0098482D02*
X0146088Y0098482D01*
X0146197Y0099281D02*
X0127105Y0099281D01*
X0127474Y0100079D02*
X0146305Y0100079D01*
X0146414Y0100878D02*
X0127844Y0100878D01*
X0128213Y0101676D02*
X0146523Y0101676D01*
X0146632Y0102475D02*
X0128583Y0102475D01*
X0128952Y0103273D02*
X0146741Y0103273D01*
X0146850Y0104072D02*
X0129322Y0104072D01*
X0129691Y0104870D02*
X0146959Y0104870D01*
X0147068Y0105669D02*
X0130061Y0105669D01*
X0130430Y0106467D02*
X0138357Y0106467D01*
X0136762Y0107266D02*
X0130800Y0107266D01*
X0131169Y0108064D02*
X0135697Y0108064D01*
X0134888Y0108863D02*
X0131539Y0108863D01*
X0131908Y0109661D02*
X0134231Y0109661D01*
X0133724Y0110460D02*
X0132278Y0110460D01*
X0132647Y0111258D02*
X0133334Y0111258D01*
X0144990Y0106467D02*
X0147177Y0106467D01*
X0147286Y0107266D02*
X0146532Y0107266D01*
X0152450Y0104870D02*
X0154989Y0104870D01*
X0154027Y0105669D02*
X0152569Y0105669D01*
X0152689Y0106467D02*
X0153281Y0106467D01*
X0152330Y0104072D02*
X0156366Y0104072D01*
X0088041Y0159968D02*
X0065799Y0159968D01*
X0066489Y0159169D02*
X0085384Y0159169D01*
X0082728Y0158371D02*
X0067358Y0158371D01*
X0068464Y0157572D02*
X0080072Y0157572D01*
X0077415Y0156774D02*
X0070044Y0156774D01*
X0061835Y0178333D02*
X0061865Y0180748D01*
X0061954Y0183162D01*
X0062102Y0185574D01*
X0062309Y0187980D01*
X0062575Y0190381D01*
X0062900Y0192775D01*
X0063284Y0195160D01*
X0063726Y0197535D01*
X0064227Y0199898D01*
X0064785Y0202248D01*
X0065400Y0204584D01*
X0066073Y0206904D01*
X0066803Y0209207D01*
X0067589Y0211491D01*
X0068430Y0213756D01*
X0069327Y0215999D01*
X0070279Y0218219D01*
X0071285Y0220415D01*
X0072344Y0222586D01*
X0073457Y0224730D01*
X0074622Y0226847D01*
X0075838Y0228934D01*
X0077105Y0230990D01*
X0078423Y0233015D01*
X0079789Y0235007D01*
X0081204Y0236965D01*
X0082667Y0238887D01*
X0084176Y0240773D01*
X0085732Y0242622D01*
X0087332Y0244431D01*
X0088976Y0246201D01*
X0090663Y0247930D01*
X0092392Y0249617D01*
X0094162Y0251261D01*
X0095971Y0252861D01*
X0097820Y0254417D01*
X0099706Y0255926D01*
X0101628Y0257389D01*
X0103586Y0258804D01*
X0105578Y0260170D01*
X0107603Y0261488D01*
X0109659Y0262755D01*
X0111746Y0263971D01*
X0113863Y0265136D01*
X0116007Y0266249D01*
X0118178Y0267308D01*
X0120374Y0268314D01*
X0122594Y0269266D01*
X0124837Y0270163D01*
X0127102Y0271004D01*
X0129386Y0271790D01*
X0131689Y0272520D01*
X0134009Y0273193D01*
X0136345Y0273808D01*
X0138695Y0274366D01*
X0141058Y0274867D01*
X0143433Y0275309D01*
X0145818Y0275693D01*
X0148212Y0276018D01*
X0150613Y0276284D01*
X0153019Y0276491D01*
X0155431Y0276639D01*
X0157845Y0276728D01*
X0160260Y0276758D01*
X0162675Y0276728D01*
X0165089Y0276639D01*
X0167501Y0276491D01*
X0169907Y0276284D01*
X0172308Y0276018D01*
X0174702Y0275693D01*
X0177087Y0275309D01*
X0179462Y0274867D01*
X0181825Y0274366D01*
X0184175Y0273808D01*
X0186511Y0273193D01*
X0188831Y0272520D01*
X0191134Y0271790D01*
X0193418Y0271004D01*
X0195683Y0270163D01*
X0197926Y0269266D01*
X0200146Y0268314D01*
X0202342Y0267308D01*
X0204513Y0266249D01*
X0206657Y0265136D01*
X0208774Y0263971D01*
X0210861Y0262755D01*
X0212917Y0261488D01*
X0214942Y0260170D01*
X0216934Y0258804D01*
X0218892Y0257389D01*
X0220814Y0255926D01*
X0222700Y0254417D01*
X0224549Y0252861D01*
X0226358Y0251261D01*
X0228128Y0249617D01*
X0229857Y0247930D01*
X0231544Y0246201D01*
X0233188Y0244431D01*
X0234788Y0242622D01*
X0236344Y0240773D01*
X0237853Y0238887D01*
X0239316Y0236965D01*
X0240731Y0235007D01*
X0242097Y0233015D01*
X0243415Y0230990D01*
X0244682Y0228934D01*
X0245898Y0226847D01*
X0247063Y0224730D01*
X0248176Y0222586D01*
X0249235Y0220415D01*
X0250241Y0218219D01*
X0251193Y0215999D01*
X0252090Y0213756D01*
X0252931Y0211491D01*
X0253717Y0209207D01*
X0254447Y0206904D01*
X0255120Y0204584D01*
X0255735Y0202248D01*
X0256293Y0199898D01*
X0256794Y0197535D01*
X0257236Y0195160D01*
X0257620Y0192775D01*
X0257945Y0190381D01*
X0258211Y0187980D01*
X0258418Y0185574D01*
X0258566Y0183162D01*
X0258655Y0180748D01*
X0258685Y0178333D01*
X0258655Y0175918D01*
X0258566Y0173504D01*
X0258418Y0171092D01*
X0258211Y0168686D01*
X0257945Y0166285D01*
X0257620Y0163891D01*
X0257236Y0161506D01*
X0256794Y0159131D01*
X0256293Y0156768D01*
X0255735Y0154418D01*
X0255120Y0152082D01*
X0254447Y0149762D01*
X0253717Y0147459D01*
X0252931Y0145175D01*
X0252090Y0142910D01*
X0251193Y0140667D01*
X0250241Y0138447D01*
X0249235Y0136251D01*
X0248176Y0134080D01*
X0247063Y0131936D01*
X0245898Y0129819D01*
X0244682Y0127732D01*
X0243415Y0125676D01*
X0242097Y0123651D01*
X0240731Y0121659D01*
X0239316Y0119701D01*
X0237853Y0117779D01*
X0236344Y0115893D01*
X0234788Y0114044D01*
X0233188Y0112235D01*
X0231544Y0110465D01*
X0229857Y0108736D01*
X0228128Y0107049D01*
X0226358Y0105405D01*
X0224549Y0103805D01*
X0222700Y0102249D01*
X0220814Y0100740D01*
X0218892Y0099277D01*
X0216934Y0097862D01*
X0214942Y0096496D01*
X0212917Y0095178D01*
X0210861Y0093911D01*
X0208774Y0092695D01*
X0206657Y0091530D01*
X0204513Y0090417D01*
X0202342Y0089358D01*
X0200146Y0088352D01*
X0197926Y0087400D01*
X0195683Y0086503D01*
X0193418Y0085662D01*
X0191134Y0084876D01*
X0188831Y0084146D01*
X0186511Y0083473D01*
X0184175Y0082858D01*
X0181825Y0082300D01*
X0179462Y0081799D01*
X0177087Y0081357D01*
X0174702Y0080973D01*
X0172308Y0080648D01*
X0169907Y0080382D01*
X0167501Y0080175D01*
X0165089Y0080027D01*
X0162675Y0079938D01*
X0160260Y0079908D01*
X0157845Y0079938D01*
X0155431Y0080027D01*
X0153019Y0080175D01*
X0150613Y0080382D01*
X0148212Y0080648D01*
X0145818Y0080973D01*
X0143433Y0081357D01*
X0141058Y0081799D01*
X0138695Y0082300D01*
X0136345Y0082858D01*
X0134009Y0083473D01*
X0131689Y0084146D01*
X0129386Y0084876D01*
X0127102Y0085662D01*
X0124837Y0086503D01*
X0122594Y0087400D01*
X0120374Y0088352D01*
X0118178Y0089358D01*
X0116007Y0090417D01*
X0113863Y0091530D01*
X0111746Y0092695D01*
X0109659Y0093911D01*
X0107603Y0095178D01*
X0105578Y0096496D01*
X0103586Y0097862D01*
X0101628Y0099277D01*
X0099706Y0100740D01*
X0097820Y0102249D01*
X0095971Y0103805D01*
X0094162Y0105405D01*
X0092392Y0107049D01*
X0090663Y0108736D01*
X0088976Y0110465D01*
X0087332Y0112235D01*
X0085732Y0114044D01*
X0084176Y0115893D01*
X0082667Y0117779D01*
X0081204Y0119701D01*
X0079789Y0121659D01*
X0078423Y0123651D01*
X0077105Y0125676D01*
X0075838Y0127732D01*
X0074622Y0129819D01*
X0073457Y0131936D01*
X0072344Y0134080D01*
X0071285Y0136251D01*
X0070279Y0138447D01*
X0069327Y0140667D01*
X0068430Y0142910D01*
X0067589Y0145175D01*
X0066803Y0147459D01*
X0066073Y0149762D01*
X0065400Y0152082D01*
X0064785Y0154418D01*
X0064227Y0156768D01*
X0063726Y0159131D01*
X0063284Y0161506D01*
X0062900Y0163891D01*
X0062575Y0166285D01*
X0062309Y0168686D01*
X0062102Y0171092D01*
X0061954Y0173504D01*
X0061865Y0175918D01*
X0061835Y0178333D01*
X0132678Y0245408D02*
X0133154Y0245408D01*
X0133497Y0246207D02*
X0132308Y0246207D01*
X0200823Y0258983D02*
X0214284Y0258983D01*
X0213343Y0259781D02*
X0201824Y0259781D01*
X0203164Y0260580D02*
X0212044Y0260580D01*
X0209896Y0261379D02*
X0205300Y0261379D01*
X0235110Y0197498D02*
X0253841Y0197498D01*
X0252959Y0198296D02*
X0237766Y0198296D01*
X0240423Y0199095D02*
X0251834Y0199095D01*
X0250223Y0199893D02*
X0243079Y0199893D01*
X0190260Y0183333D02*
X0187386Y0186207D01*
X0177160Y0186207D01*
D11*
X0177160Y0186207D03*
X0177160Y0183058D03*
X0177160Y0179908D03*
X0177160Y0176759D03*
X0177160Y0173609D03*
X0177160Y0170459D03*
X0177160Y0167310D03*
X0177160Y0189357D03*
X0143360Y0189357D03*
X0143360Y0186207D03*
X0143360Y0183058D03*
X0143360Y0179908D03*
X0143360Y0176759D03*
X0143360Y0173609D03*
X0143360Y0170459D03*
X0143360Y0167310D03*
D12*
X0149237Y0161433D03*
X0152386Y0161433D03*
X0155536Y0161433D03*
X0158686Y0161433D03*
X0161835Y0161433D03*
X0164985Y0161433D03*
X0168134Y0161433D03*
X0171284Y0161433D03*
X0171284Y0195233D03*
X0168134Y0195233D03*
X0164985Y0195233D03*
X0161835Y0195233D03*
X0158686Y0195233D03*
X0155536Y0195233D03*
X0152386Y0195233D03*
X0149237Y0195233D03*
D13*
X0095783Y0234201D03*
X0114143Y0250124D03*
X0136160Y0260464D03*
X0160260Y0263648D03*
X0184282Y0260228D03*
X0206417Y0250124D03*
X0224738Y0234201D03*
X0237988Y0213875D03*
X0244710Y0190482D03*
X0244710Y0166185D03*
X0237869Y0142870D03*
X0224738Y0122466D03*
X0206496Y0106464D03*
X0184282Y0096439D03*
X0160260Y0093018D03*
X0136238Y0096439D03*
X0114104Y0106543D03*
X0095783Y0122466D03*
X0082533Y0142831D03*
X0075653Y0166145D03*
X0075810Y0190482D03*
X0082533Y0213836D03*
D14*
X0190378Y0147731D02*
X0193134Y0147731D01*
X0193134Y0144975D01*
X0190378Y0144975D01*
X0190378Y0147731D01*
X0190378Y0146155D02*
X0193134Y0146155D01*
X0193134Y0147335D02*
X0190378Y0147335D01*
X0190378Y0140826D02*
X0193134Y0140826D01*
X0193134Y0138070D01*
X0190378Y0138070D01*
X0190378Y0140826D01*
X0190378Y0139250D02*
X0193134Y0139250D01*
X0193134Y0140430D02*
X0190378Y0140430D01*
D15*
X0191756Y0151365D03*
X0191756Y0158058D03*
X0187819Y0171050D03*
X0187819Y0177743D03*
X0195693Y0202546D03*
X0195693Y0209239D03*
X0113016Y0165932D03*
X0113016Y0159239D03*
X0105142Y0159239D03*
X0105142Y0165932D03*
D16*
X0212505Y0164396D03*
D17*
X0212505Y0174396D03*
X0212505Y0184396D03*
X0202505Y0184396D03*
X0202505Y0174396D03*
X0202505Y0164396D03*
D18*
X0124827Y0165144D03*
X0124827Y0152152D03*
D19*
X0134274Y0153924D02*
X0140002Y0153924D01*
X0140002Y0158648D02*
X0134274Y0158648D01*
X0134274Y0163373D02*
X0140002Y0163373D01*
D20*
X0141138Y0163373D02*
X0137138Y0163373D01*
X0133138Y0163373D01*
X0133138Y0158648D02*
X0137138Y0158648D01*
X0141138Y0158648D01*
X0141138Y0153924D02*
X0137138Y0153924D01*
X0133138Y0153924D01*
X0165260Y0205833D02*
X0165260Y0205892D01*
X0165260Y0209333D01*
X0175260Y0209333D02*
X0175260Y0205892D01*
X0175260Y0205833D01*
D21*
X0175260Y0205892D03*
X0165260Y0205892D03*
X0155260Y0205892D03*
X0145260Y0205892D03*
X0135260Y0205892D03*
X0185260Y0205892D03*
D22*
X0177504Y0225577D02*
X0177506Y0225682D01*
X0177512Y0225787D01*
X0177522Y0225891D01*
X0177536Y0225995D01*
X0177554Y0226099D01*
X0177576Y0226201D01*
X0177601Y0226303D01*
X0177631Y0226404D01*
X0177664Y0226503D01*
X0177701Y0226601D01*
X0177742Y0226698D01*
X0177787Y0226793D01*
X0177835Y0226886D01*
X0177886Y0226978D01*
X0177942Y0227067D01*
X0178000Y0227154D01*
X0178062Y0227239D01*
X0178126Y0227322D01*
X0178194Y0227402D01*
X0178265Y0227479D01*
X0178339Y0227553D01*
X0178416Y0227625D01*
X0178495Y0227694D01*
X0178577Y0227759D01*
X0178661Y0227822D01*
X0178748Y0227881D01*
X0178837Y0227937D01*
X0178928Y0227990D01*
X0179021Y0228039D01*
X0179115Y0228084D01*
X0179211Y0228126D01*
X0179309Y0228164D01*
X0179408Y0228198D01*
X0179509Y0228229D01*
X0179610Y0228255D01*
X0179713Y0228278D01*
X0179816Y0228297D01*
X0179920Y0228312D01*
X0180024Y0228323D01*
X0180129Y0228330D01*
X0180234Y0228333D01*
X0180339Y0228332D01*
X0180444Y0228327D01*
X0180548Y0228318D01*
X0180652Y0228305D01*
X0180756Y0228288D01*
X0180859Y0228267D01*
X0180961Y0228242D01*
X0181062Y0228214D01*
X0181161Y0228181D01*
X0181260Y0228145D01*
X0181357Y0228105D01*
X0181452Y0228062D01*
X0181546Y0228014D01*
X0181638Y0227964D01*
X0181728Y0227910D01*
X0181816Y0227852D01*
X0181901Y0227791D01*
X0181984Y0227727D01*
X0182065Y0227660D01*
X0182143Y0227590D01*
X0182218Y0227516D01*
X0182290Y0227441D01*
X0182360Y0227362D01*
X0182426Y0227281D01*
X0182490Y0227197D01*
X0182550Y0227111D01*
X0182606Y0227023D01*
X0182660Y0226932D01*
X0182710Y0226840D01*
X0182756Y0226746D01*
X0182799Y0226650D01*
X0182838Y0226552D01*
X0182873Y0226454D01*
X0182904Y0226353D01*
X0182932Y0226252D01*
X0182956Y0226150D01*
X0182976Y0226047D01*
X0182992Y0225943D01*
X0183004Y0225839D01*
X0183012Y0225734D01*
X0183016Y0225629D01*
X0183016Y0225525D01*
X0183012Y0225420D01*
X0183004Y0225315D01*
X0182992Y0225211D01*
X0182976Y0225107D01*
X0182956Y0225004D01*
X0182932Y0224902D01*
X0182904Y0224801D01*
X0182873Y0224700D01*
X0182838Y0224602D01*
X0182799Y0224504D01*
X0182756Y0224408D01*
X0182710Y0224314D01*
X0182660Y0224222D01*
X0182606Y0224131D01*
X0182550Y0224043D01*
X0182490Y0223957D01*
X0182426Y0223873D01*
X0182360Y0223792D01*
X0182290Y0223713D01*
X0182218Y0223638D01*
X0182143Y0223564D01*
X0182065Y0223494D01*
X0181984Y0223427D01*
X0181901Y0223363D01*
X0181816Y0223302D01*
X0181728Y0223244D01*
X0181638Y0223190D01*
X0181546Y0223140D01*
X0181452Y0223092D01*
X0181357Y0223049D01*
X0181260Y0223009D01*
X0181161Y0222973D01*
X0181062Y0222940D01*
X0180961Y0222912D01*
X0180859Y0222887D01*
X0180756Y0222866D01*
X0180652Y0222849D01*
X0180548Y0222836D01*
X0180444Y0222827D01*
X0180339Y0222822D01*
X0180234Y0222821D01*
X0180129Y0222824D01*
X0180024Y0222831D01*
X0179920Y0222842D01*
X0179816Y0222857D01*
X0179713Y0222876D01*
X0179610Y0222899D01*
X0179509Y0222925D01*
X0179408Y0222956D01*
X0179309Y0222990D01*
X0179211Y0223028D01*
X0179115Y0223070D01*
X0179021Y0223115D01*
X0178928Y0223164D01*
X0178837Y0223217D01*
X0178748Y0223273D01*
X0178661Y0223332D01*
X0178577Y0223395D01*
X0178495Y0223460D01*
X0178416Y0223529D01*
X0178339Y0223601D01*
X0178265Y0223675D01*
X0178194Y0223752D01*
X0178126Y0223832D01*
X0178062Y0223915D01*
X0178000Y0224000D01*
X0177942Y0224087D01*
X0177886Y0224176D01*
X0177835Y0224268D01*
X0177787Y0224361D01*
X0177742Y0224456D01*
X0177701Y0224553D01*
X0177664Y0224651D01*
X0177631Y0224750D01*
X0177601Y0224851D01*
X0177576Y0224953D01*
X0177554Y0225055D01*
X0177536Y0225159D01*
X0177522Y0225263D01*
X0177512Y0225367D01*
X0177506Y0225472D01*
X0177504Y0225577D01*
X0137504Y0225577D02*
X0137506Y0225682D01*
X0137512Y0225787D01*
X0137522Y0225891D01*
X0137536Y0225995D01*
X0137554Y0226099D01*
X0137576Y0226201D01*
X0137601Y0226303D01*
X0137631Y0226404D01*
X0137664Y0226503D01*
X0137701Y0226601D01*
X0137742Y0226698D01*
X0137787Y0226793D01*
X0137835Y0226886D01*
X0137886Y0226978D01*
X0137942Y0227067D01*
X0138000Y0227154D01*
X0138062Y0227239D01*
X0138126Y0227322D01*
X0138194Y0227402D01*
X0138265Y0227479D01*
X0138339Y0227553D01*
X0138416Y0227625D01*
X0138495Y0227694D01*
X0138577Y0227759D01*
X0138661Y0227822D01*
X0138748Y0227881D01*
X0138837Y0227937D01*
X0138928Y0227990D01*
X0139021Y0228039D01*
X0139115Y0228084D01*
X0139211Y0228126D01*
X0139309Y0228164D01*
X0139408Y0228198D01*
X0139509Y0228229D01*
X0139610Y0228255D01*
X0139713Y0228278D01*
X0139816Y0228297D01*
X0139920Y0228312D01*
X0140024Y0228323D01*
X0140129Y0228330D01*
X0140234Y0228333D01*
X0140339Y0228332D01*
X0140444Y0228327D01*
X0140548Y0228318D01*
X0140652Y0228305D01*
X0140756Y0228288D01*
X0140859Y0228267D01*
X0140961Y0228242D01*
X0141062Y0228214D01*
X0141161Y0228181D01*
X0141260Y0228145D01*
X0141357Y0228105D01*
X0141452Y0228062D01*
X0141546Y0228014D01*
X0141638Y0227964D01*
X0141728Y0227910D01*
X0141816Y0227852D01*
X0141901Y0227791D01*
X0141984Y0227727D01*
X0142065Y0227660D01*
X0142143Y0227590D01*
X0142218Y0227516D01*
X0142290Y0227441D01*
X0142360Y0227362D01*
X0142426Y0227281D01*
X0142490Y0227197D01*
X0142550Y0227111D01*
X0142606Y0227023D01*
X0142660Y0226932D01*
X0142710Y0226840D01*
X0142756Y0226746D01*
X0142799Y0226650D01*
X0142838Y0226552D01*
X0142873Y0226454D01*
X0142904Y0226353D01*
X0142932Y0226252D01*
X0142956Y0226150D01*
X0142976Y0226047D01*
X0142992Y0225943D01*
X0143004Y0225839D01*
X0143012Y0225734D01*
X0143016Y0225629D01*
X0143016Y0225525D01*
X0143012Y0225420D01*
X0143004Y0225315D01*
X0142992Y0225211D01*
X0142976Y0225107D01*
X0142956Y0225004D01*
X0142932Y0224902D01*
X0142904Y0224801D01*
X0142873Y0224700D01*
X0142838Y0224602D01*
X0142799Y0224504D01*
X0142756Y0224408D01*
X0142710Y0224314D01*
X0142660Y0224222D01*
X0142606Y0224131D01*
X0142550Y0224043D01*
X0142490Y0223957D01*
X0142426Y0223873D01*
X0142360Y0223792D01*
X0142290Y0223713D01*
X0142218Y0223638D01*
X0142143Y0223564D01*
X0142065Y0223494D01*
X0141984Y0223427D01*
X0141901Y0223363D01*
X0141816Y0223302D01*
X0141728Y0223244D01*
X0141638Y0223190D01*
X0141546Y0223140D01*
X0141452Y0223092D01*
X0141357Y0223049D01*
X0141260Y0223009D01*
X0141161Y0222973D01*
X0141062Y0222940D01*
X0140961Y0222912D01*
X0140859Y0222887D01*
X0140756Y0222866D01*
X0140652Y0222849D01*
X0140548Y0222836D01*
X0140444Y0222827D01*
X0140339Y0222822D01*
X0140234Y0222821D01*
X0140129Y0222824D01*
X0140024Y0222831D01*
X0139920Y0222842D01*
X0139816Y0222857D01*
X0139713Y0222876D01*
X0139610Y0222899D01*
X0139509Y0222925D01*
X0139408Y0222956D01*
X0139309Y0222990D01*
X0139211Y0223028D01*
X0139115Y0223070D01*
X0139021Y0223115D01*
X0138928Y0223164D01*
X0138837Y0223217D01*
X0138748Y0223273D01*
X0138661Y0223332D01*
X0138577Y0223395D01*
X0138495Y0223460D01*
X0138416Y0223529D01*
X0138339Y0223601D01*
X0138265Y0223675D01*
X0138194Y0223752D01*
X0138126Y0223832D01*
X0138062Y0223915D01*
X0138000Y0224000D01*
X0137942Y0224087D01*
X0137886Y0224176D01*
X0137835Y0224268D01*
X0137787Y0224361D01*
X0137742Y0224456D01*
X0137701Y0224553D01*
X0137664Y0224651D01*
X0137631Y0224750D01*
X0137601Y0224851D01*
X0137576Y0224953D01*
X0137554Y0225055D01*
X0137536Y0225159D01*
X0137522Y0225263D01*
X0137512Y0225367D01*
X0137506Y0225472D01*
X0137504Y0225577D01*
D23*
X0121260Y0190833D03*
X0121260Y0175833D03*
X0099260Y0175833D03*
X0099260Y0190833D03*
D24*
X0115260Y0223333D03*
X0185260Y0123333D03*
D25*
X0191756Y0139448D02*
X0199146Y0139448D01*
X0200260Y0138333D01*
X0202505Y0164396D02*
X0194670Y0164396D01*
X0188016Y0171050D01*
X0187229Y0170459D02*
X0177160Y0170459D01*
X0172071Y0170459D01*
X0168922Y0173609D01*
X0165260Y0173609D01*
X0156985Y0173609D01*
X0153760Y0176833D01*
X0150760Y0176833D01*
X0150260Y0176333D02*
X0150260Y0178333D01*
X0148686Y0179908D01*
X0143360Y0179908D01*
X0143360Y0176759D02*
X0136335Y0176759D01*
X0133760Y0179333D01*
X0137485Y0183058D01*
X0143360Y0183058D01*
X0150260Y0176333D02*
X0150260Y0175333D01*
X0148260Y0173333D01*
X0145260Y0173333D01*
X0143360Y0173609D02*
X0129036Y0173609D01*
X0125260Y0169833D01*
X0125260Y0165577D01*
X0124827Y0165144D01*
X0123662Y0165932D02*
X0113016Y0165932D01*
X0112760Y0165833D02*
X0110260Y0165833D01*
X0109260Y0164833D01*
X0109260Y0160333D01*
X0108166Y0159239D01*
X0105142Y0159239D01*
X0105048Y0159333D02*
X0101260Y0159333D01*
X0100760Y0159833D01*
X0100760Y0165333D01*
X0097360Y0168733D01*
X0093960Y0168733D01*
X0094001Y0168806D02*
X0075653Y0166145D01*
X0075810Y0190482D02*
X0094001Y0187861D01*
X0094040Y0187861D02*
X0098346Y0183555D01*
X0098449Y0183451D02*
X0098449Y0176644D01*
X0113016Y0159239D02*
X0113016Y0153677D01*
X0113260Y0159333D02*
X0124760Y0159333D01*
X0124760Y0152733D01*
X0124760Y0159333D02*
X0128760Y0159333D01*
X0129445Y0158648D01*
X0133138Y0158648D01*
X0127760Y0175833D02*
X0121260Y0175833D01*
X0127760Y0175833D02*
X0130260Y0178333D01*
X0135260Y0178333D01*
X0165260Y0173609D02*
X0165260Y0184333D01*
X0172071Y0176759D02*
X0177160Y0176759D01*
X0177160Y0179908D02*
X0180686Y0179908D01*
X0182760Y0177833D01*
X0182851Y0177743D01*
X0187819Y0177743D01*
X0195670Y0177743D01*
X0202260Y0184333D01*
X0172071Y0176759D02*
X0168922Y0173609D01*
D26*
X0168160Y0168333D02*
X0168134Y0168307D01*
X0168134Y0161433D01*
X0168134Y0150459D01*
X0196481Y0122113D01*
X0196481Y0122034D01*
X0206496Y0106464D01*
X0224738Y0122466D02*
X0210851Y0134514D01*
X0210733Y0134633D01*
X0210654Y0134633D01*
X0210654Y0153333D01*
X0200260Y0153333D01*
X0204536Y0158058D02*
X0205760Y0156833D01*
X0204536Y0158058D02*
X0191756Y0158058D01*
X0191756Y0157861D01*
X0182308Y0167310D01*
X0177160Y0167310D01*
X0171284Y0161433D02*
X0171284Y0157467D01*
X0174040Y0154711D01*
X0183882Y0154711D01*
X0185260Y0153333D01*
X0191756Y0151365D02*
X0191756Y0146353D01*
X0191756Y0145656D01*
X0210654Y0153333D02*
X0210654Y0162546D01*
X0212505Y0164396D01*
X0214760Y0156833D02*
X0220510Y0156833D01*
X0220760Y0157083D01*
X0220760Y0150865D01*
X0221127Y0150499D01*
X0237869Y0142871D01*
X0220760Y0157083D02*
X0220760Y0168333D01*
X0214697Y0174396D01*
X0212505Y0174396D01*
X0226402Y0187782D02*
X0222851Y0191333D01*
X0198760Y0191333D01*
X0196784Y0189357D01*
X0177160Y0189357D01*
X0178260Y0193333D02*
X0194260Y0193333D01*
X0196760Y0195833D01*
X0210760Y0195833D01*
X0221260Y0206333D01*
X0221284Y0206310D01*
X0221284Y0206286D01*
X0237988Y0213875D01*
X0224738Y0234201D02*
X0210760Y0221833D01*
X0202760Y0214333D01*
X0173260Y0214333D01*
X0170260Y0211333D01*
X0170260Y0200333D01*
X0168134Y0198207D01*
X0168134Y0195233D01*
X0164985Y0195233D02*
X0164985Y0190609D01*
X0166760Y0188833D01*
X0170760Y0188833D01*
X0171284Y0195233D02*
X0176360Y0195233D01*
X0178260Y0193333D01*
X0182260Y0197333D02*
X0193760Y0197333D01*
X0195693Y0199266D01*
X0195693Y0202546D01*
X0206914Y0202546D01*
X0207505Y0201955D01*
X0195693Y0209239D02*
X0191666Y0209239D01*
X0188319Y0205892D01*
X0185260Y0205892D01*
X0180260Y0202333D02*
X0180260Y0199333D01*
X0182260Y0197333D01*
X0161835Y0195233D02*
X0161835Y0188408D01*
X0160760Y0187333D01*
X0158686Y0190759D02*
X0156760Y0188833D01*
X0156760Y0181833D01*
X0160260Y0178333D01*
X0150760Y0176833D02*
X0150260Y0176333D01*
X0145260Y0173333D02*
X0144985Y0173609D01*
X0143360Y0173609D01*
X0143360Y0170459D02*
X0134886Y0170459D01*
X0132260Y0167833D01*
X0132260Y0163833D01*
X0132721Y0163373D01*
X0133138Y0163373D01*
X0124827Y0165144D02*
X0124630Y0165144D01*
X0124434Y0165341D01*
X0124471Y0165144D02*
X0124827Y0165144D01*
X0124471Y0165144D02*
X0124460Y0165133D01*
X0123662Y0165932D01*
X0113016Y0165932D02*
X0112859Y0165932D01*
X0112760Y0165833D01*
X0109260Y0170333D02*
X0106260Y0170333D01*
X0105260Y0169333D01*
X0105260Y0165833D01*
X0105162Y0165932D01*
X0105142Y0165932D01*
X0109260Y0170333D02*
X0113060Y0174133D01*
X0113060Y0184833D01*
X0113060Y0190533D01*
X0112760Y0190833D01*
X0121260Y0190833D01*
X0112760Y0190833D02*
X0099260Y0190833D01*
X0094040Y0187861D02*
X0094001Y0187861D01*
X0098346Y0183555D02*
X0098493Y0183555D01*
X0098493Y0183496D01*
X0098449Y0183451D01*
X0098449Y0176644D02*
X0099260Y0175833D01*
X0094001Y0168806D02*
X0094001Y0168773D01*
X0093960Y0168733D01*
X0103455Y0159239D02*
X0105142Y0159239D01*
X0105048Y0159333D01*
X0113016Y0159239D02*
X0113166Y0159239D01*
X0113260Y0159333D01*
X0113016Y0153677D02*
X0113060Y0153633D01*
X0110460Y0150533D02*
X0099560Y0150533D01*
X0099460Y0150633D01*
X0099394Y0150567D01*
X0099394Y0150499D01*
X0082533Y0142831D01*
X0095783Y0122466D02*
X0109670Y0134514D01*
X0109670Y0134543D01*
X0113460Y0138333D01*
X0135260Y0138333D01*
X0152386Y0155459D01*
X0152386Y0161433D01*
X0149237Y0161433D02*
X0149237Y0157310D01*
X0135260Y0143333D01*
X0117660Y0143333D01*
X0110460Y0150533D01*
X0124827Y0152152D02*
X0124827Y0152400D01*
X0124960Y0152533D01*
X0124760Y0152733D01*
X0141138Y0153924D02*
X0143360Y0156146D01*
X0143360Y0167310D01*
X0155536Y0161433D02*
X0155536Y0153609D01*
X0124040Y0122113D01*
X0124040Y0122034D01*
X0114104Y0106543D01*
X0136238Y0096439D02*
X0141402Y0114081D01*
X0141508Y0114081D01*
X0158686Y0131259D01*
X0158686Y0161433D01*
X0161835Y0161433D02*
X0161835Y0127908D01*
X0160260Y0126333D01*
X0160260Y0111404D01*
X0160260Y0126333D02*
X0160260Y0093018D01*
X0184282Y0096439D02*
X0179119Y0114121D01*
X0178973Y0114121D01*
X0164985Y0128109D01*
X0164985Y0161433D01*
X0187229Y0170459D02*
X0187819Y0171050D01*
X0188016Y0171050D01*
X0187819Y0171050D02*
X0187819Y0170853D01*
X0187426Y0170459D01*
X0187819Y0177546D02*
X0187819Y0177743D01*
X0160260Y0202333D02*
X0158686Y0200759D01*
X0158686Y0195233D01*
X0158686Y0190759D01*
X0155536Y0190609D02*
X0153260Y0188333D01*
X0155536Y0190609D02*
X0155536Y0195233D01*
X0152386Y0195233D02*
X0152386Y0198707D01*
X0150260Y0200833D01*
X0150260Y0218333D01*
X0175260Y0218333D01*
X0160260Y0223333D02*
X0160260Y0223833D01*
X0179158Y0242731D01*
X0179158Y0242900D01*
X0184282Y0260228D01*
X0206417Y0250124D02*
X0196481Y0234633D01*
X0196481Y0234554D01*
X0190260Y0228333D01*
X0155260Y0209333D02*
X0155260Y0205892D01*
X0145260Y0205892D02*
X0145260Y0209333D01*
X0135260Y0209333D02*
X0135260Y0205892D01*
X0134360Y0195233D02*
X0124260Y0205333D01*
X0124260Y0234412D01*
X0124040Y0234633D01*
X0114143Y0250124D01*
X0095783Y0234201D02*
X0109709Y0222152D01*
X0109742Y0222152D01*
X0110260Y0221633D01*
X0110260Y0213333D01*
X0134237Y0189357D01*
X0143360Y0189357D01*
X0143360Y0186207D02*
X0133686Y0186207D01*
X0113760Y0206133D01*
X0099460Y0206133D01*
X0099456Y0206129D01*
X0099394Y0206129D01*
X0082533Y0213836D01*
X0134360Y0195233D02*
X0149237Y0195233D01*
X0134260Y0179333D02*
X0135260Y0178333D01*
X0134260Y0179333D02*
X0133860Y0179333D01*
X0133760Y0179333D01*
X0133860Y0179333D02*
X0133960Y0179433D01*
X0150260Y0218333D02*
X0150260Y0233333D01*
X0141363Y0242231D01*
X0141363Y0242507D01*
X0136160Y0260464D01*
X0226402Y0187782D02*
X0226481Y0187861D01*
X0226520Y0187861D01*
X0244710Y0190482D01*
D27*
X0207505Y0201955D03*
X0190260Y0183333D03*
X0182760Y0177833D03*
X0170760Y0188833D03*
X0165260Y0184333D03*
X0160760Y0187333D03*
X0153260Y0188333D03*
X0160260Y0178333D03*
X0168160Y0168333D03*
X0185260Y0153333D03*
X0200260Y0153333D03*
X0205760Y0156833D03*
X0214760Y0156833D03*
X0200260Y0138333D03*
X0133860Y0179333D03*
X0113060Y0184833D03*
X0098493Y0183555D03*
X0113060Y0153633D03*
X0160260Y0202333D03*
X0155260Y0209333D03*
X0145260Y0209333D03*
X0135260Y0209333D03*
X0160260Y0223333D03*
X0165260Y0209333D03*
X0175260Y0209333D03*
X0180260Y0202333D03*
X0175260Y0218333D03*
X0190260Y0228333D03*
M02*
