%
M48
M72
T01C0.02000
T02C0.04000
T03C0.05512
T04C0.11000
%
T01
X113060Y153633
X133860Y179333
X153260Y188333
X160760Y187333
X165260Y184333
X170760Y188833
X160260Y178333
X168160Y168333
X182760Y177833
X190260Y183333
X180260Y202333
X175260Y209333
X175260Y218333
X165260Y209333
X160260Y202333
X155260Y209333
X145260Y209333
X135260Y209333
X160260Y223333
X190260Y228333
X207505Y201955
X205760Y156833
X200260Y153333
X214760Y156833
X200260Y138333
X185260Y153333
X113060Y184833
X98493Y183555
T02
X202505Y184396
X212505Y184396
X212505Y174396
X212505Y164396
X202505Y164396
X202505Y174396
T03
X180260Y225577
X140260Y225577
T04
X114104Y106543
X95783Y122466
X82533Y142831
X75653Y166145
X75810Y190482
X82533Y213836
X95783Y234201
X114143Y250124
X136160Y260464
X160260Y263648
X184282Y260228
X206417Y250124
X224738Y234201
X237988Y213875
X244710Y190482
X244710Y166185
X237869Y142870
X224738Y122466
X206496Y106464
X184282Y96439
X160260Y93018
X136238Y96439
M30
