G75*
%MOIN*%
%OFA0B0*%
%FSLAX25Y25*%
%IPPOS*%
%LPD*%
%AMOC8*
5,1,8,0,0,1.08239X$1,22.5*
%
%ADD10C,0.00600*%
%ADD11C,0.00900*%
%ADD12C,0.00500*%
%ADD13C,0.00800*%
%ADD14R,0.03000X0.01800*%
%ADD15C,0.02200*%
D10*
X0121584Y0117610D02*
X0121584Y0118344D01*
X0124520Y0121280D01*
X0124520Y0122013D01*
X0121584Y0122013D01*
X0109402Y0132005D02*
X0108668Y0131271D01*
X0107200Y0131271D01*
X0106466Y0132005D01*
X0106466Y0133473D01*
X0108668Y0133473D01*
X0109402Y0132739D01*
X0109402Y0132005D01*
X0107934Y0134941D02*
X0106466Y0133473D01*
X0107934Y0134941D02*
X0109402Y0135675D01*
X0097762Y0147133D02*
X0096294Y0147133D01*
X0095560Y0147867D01*
X0095560Y0149335D02*
X0097028Y0150069D01*
X0097762Y0150069D01*
X0098496Y0149335D01*
X0098496Y0147867D01*
X0097762Y0147133D01*
X0095560Y0149335D02*
X0095560Y0151537D01*
X0098496Y0151537D01*
X0139025Y0113012D02*
X0139759Y0113746D01*
X0141227Y0113746D01*
X0141961Y0113012D01*
X0141961Y0112278D01*
X0141227Y0111544D01*
X0139759Y0111544D01*
X0139025Y0112278D01*
X0139025Y0113012D01*
X0139759Y0111544D02*
X0139025Y0110810D01*
X0139025Y0110076D01*
X0139759Y0109342D01*
X0141227Y0109342D01*
X0141961Y0110076D01*
X0141961Y0110810D01*
X0141227Y0111544D01*
X0159104Y0109823D02*
X0159104Y0109089D01*
X0159838Y0108355D01*
X0162040Y0108355D01*
X0162040Y0109823D02*
X0161306Y0110557D01*
X0159838Y0110557D01*
X0159104Y0109823D01*
X0162040Y0109823D02*
X0162040Y0106887D01*
X0161306Y0106153D01*
X0159838Y0106153D01*
X0159104Y0106887D01*
X0176742Y0110051D02*
X0179677Y0110051D01*
X0178209Y0110051D02*
X0178209Y0114454D01*
X0176742Y0112986D01*
X0181345Y0113720D02*
X0182079Y0114454D01*
X0183547Y0114454D01*
X0184281Y0113720D01*
X0181345Y0110785D01*
X0182079Y0110051D01*
X0183547Y0110051D01*
X0184281Y0110785D01*
X0184281Y0113720D01*
X0181345Y0113720D02*
X0181345Y0110785D01*
X0194261Y0118436D02*
X0197197Y0118436D01*
X0195729Y0118436D02*
X0195729Y0122840D01*
X0194261Y0121372D01*
X0198865Y0121372D02*
X0200333Y0122840D01*
X0200333Y0118436D01*
X0198865Y0118436D02*
X0201801Y0118436D01*
X0208041Y0132137D02*
X0210977Y0132137D01*
X0209509Y0132137D02*
X0209509Y0136541D01*
X0208041Y0135073D01*
X0212645Y0135807D02*
X0213379Y0136541D01*
X0214847Y0136541D01*
X0215580Y0135807D01*
X0215580Y0135073D01*
X0212645Y0132137D01*
X0215580Y0132137D01*
X0218560Y0148133D02*
X0221496Y0148133D01*
X0220028Y0148133D02*
X0220028Y0152537D01*
X0218560Y0151069D01*
X0223164Y0151803D02*
X0223898Y0152537D01*
X0225366Y0152537D01*
X0226100Y0151803D01*
X0226100Y0151069D01*
X0225366Y0150335D01*
X0226100Y0149601D01*
X0226100Y0148867D01*
X0225366Y0148133D01*
X0223898Y0148133D01*
X0223164Y0148867D01*
X0224632Y0150335D02*
X0225366Y0150335D01*
X0226488Y0166389D02*
X0226488Y0169325D01*
X0225020Y0170793D01*
X0223553Y0169325D01*
X0223553Y0166389D01*
X0223553Y0168591D02*
X0226488Y0168591D01*
X0228156Y0167123D02*
X0231092Y0170059D01*
X0231092Y0167123D01*
X0230358Y0166389D01*
X0228890Y0166389D01*
X0228156Y0167123D01*
X0228156Y0170059D01*
X0228890Y0170793D01*
X0230358Y0170793D01*
X0231092Y0170059D01*
X0231486Y0186429D02*
X0228550Y0186429D01*
X0230018Y0186429D02*
X0230018Y0190832D01*
X0228550Y0189364D01*
X0226882Y0189364D02*
X0226882Y0186429D01*
X0226882Y0188630D02*
X0223946Y0188630D01*
X0223946Y0189364D02*
X0225414Y0190832D01*
X0226882Y0189364D01*
X0223946Y0189364D02*
X0223946Y0186429D01*
X0222684Y0204539D02*
X0225620Y0207475D01*
X0225620Y0208209D01*
X0224886Y0208943D01*
X0223418Y0208943D01*
X0222684Y0208209D01*
X0221016Y0207475D02*
X0221016Y0204539D01*
X0222684Y0204539D02*
X0225620Y0204539D01*
X0221016Y0206741D02*
X0218080Y0206741D01*
X0218080Y0207475D02*
X0219548Y0208943D01*
X0221016Y0207475D01*
X0218080Y0207475D02*
X0218080Y0204539D01*
X0214335Y0221232D02*
X0212867Y0221232D01*
X0212133Y0221966D01*
X0210465Y0221232D02*
X0210465Y0224168D01*
X0208997Y0225636D01*
X0207529Y0224168D01*
X0207529Y0221232D01*
X0207529Y0223434D02*
X0210465Y0223434D01*
X0212133Y0224902D02*
X0212867Y0225636D01*
X0214335Y0225636D01*
X0215069Y0224902D01*
X0215069Y0224168D01*
X0214335Y0223434D01*
X0215069Y0222700D01*
X0215069Y0221966D01*
X0214335Y0221232D01*
X0214335Y0223434D02*
X0213601Y0223434D01*
X0199925Y0233909D02*
X0199925Y0238313D01*
X0197723Y0236111D01*
X0200659Y0236111D01*
X0196055Y0236111D02*
X0193119Y0236111D01*
X0193119Y0236845D02*
X0194587Y0238313D01*
X0196055Y0236845D01*
X0196055Y0233909D01*
X0193119Y0233909D02*
X0193119Y0236845D01*
X0183218Y0242950D02*
X0182484Y0242216D01*
X0181016Y0242216D01*
X0180282Y0242950D01*
X0180282Y0244418D02*
X0181750Y0245152D01*
X0182484Y0245152D01*
X0183218Y0244418D01*
X0183218Y0242950D01*
X0180282Y0244418D02*
X0180282Y0246620D01*
X0183218Y0246620D01*
X0178614Y0245152D02*
X0178614Y0242216D01*
X0178614Y0244418D02*
X0175679Y0244418D01*
X0175679Y0245152D02*
X0175679Y0242216D01*
X0175679Y0245152D02*
X0177146Y0246620D01*
X0178614Y0245152D01*
X0170308Y0246537D02*
X0167372Y0242133D01*
X0165704Y0242133D02*
X0164236Y0243601D01*
X0164970Y0243601D02*
X0162768Y0243601D01*
X0162768Y0242133D02*
X0162768Y0246537D01*
X0164970Y0246537D01*
X0165704Y0245803D01*
X0165704Y0244335D01*
X0164970Y0243601D01*
X0167372Y0246537D02*
X0170308Y0242133D01*
X0161100Y0246537D02*
X0158164Y0242133D01*
X0156496Y0242867D02*
X0155762Y0242133D01*
X0154294Y0242133D01*
X0153560Y0242867D01*
X0156496Y0245803D01*
X0156496Y0242867D01*
X0153560Y0242867D02*
X0153560Y0245803D01*
X0154294Y0246537D01*
X0155762Y0246537D01*
X0156496Y0245803D01*
X0149969Y0243809D02*
X0147034Y0239405D01*
X0149969Y0239405D02*
X0147034Y0243809D01*
X0145366Y0243809D02*
X0142430Y0243809D01*
X0143898Y0243809D02*
X0143898Y0239405D01*
X0140762Y0243809D02*
X0137826Y0239405D01*
X0136158Y0239405D02*
X0133222Y0239405D01*
X0134690Y0239405D02*
X0134690Y0243809D01*
X0133222Y0242341D01*
X0124362Y0238602D02*
X0123628Y0239336D01*
X0122161Y0239336D01*
X0121427Y0238602D01*
X0124362Y0238602D02*
X0124362Y0237868D01*
X0121427Y0234933D01*
X0124362Y0234933D01*
X0109402Y0225217D02*
X0109402Y0224483D01*
X0108668Y0223749D01*
X0109402Y0223015D01*
X0109402Y0222281D01*
X0108668Y0221547D01*
X0107200Y0221547D01*
X0106466Y0222281D01*
X0107934Y0223749D02*
X0108668Y0223749D01*
X0109402Y0225217D02*
X0108668Y0225950D01*
X0107200Y0225950D01*
X0106466Y0225217D01*
X0097526Y0209612D02*
X0095324Y0207410D01*
X0098260Y0207410D01*
X0097526Y0205208D02*
X0097526Y0209612D01*
X0133060Y0195036D02*
X0133060Y0191633D01*
X0134762Y0191633D01*
X0135329Y0192200D01*
X0135329Y0192768D01*
X0134762Y0193335D01*
X0133060Y0193335D01*
X0133060Y0195036D02*
X0134762Y0195036D01*
X0135329Y0194469D01*
X0135329Y0193902D01*
X0134762Y0193335D01*
X0183060Y0192200D02*
X0183628Y0191633D01*
X0184762Y0191633D01*
X0185329Y0192200D01*
X0185329Y0193335D01*
X0184195Y0193335D01*
X0185329Y0194469D02*
X0184762Y0195036D01*
X0183628Y0195036D01*
X0183060Y0194469D01*
X0183060Y0192200D01*
D11*
X0093113Y0188836D02*
X0089710Y0188836D01*
X0091979Y0170675D02*
X0091979Y0167272D01*
X0093680Y0168973D02*
X0090277Y0168973D01*
D12*
X0103510Y0195083D02*
X0103510Y0197786D01*
X0104862Y0197786D01*
X0105312Y0197335D01*
X0105312Y0196434D01*
X0104862Y0195984D01*
X0103510Y0195984D01*
X0104411Y0195984D02*
X0105312Y0195083D01*
X0106457Y0195083D02*
X0108258Y0195083D01*
X0109403Y0195534D02*
X0109854Y0195083D01*
X0110755Y0195083D01*
X0111205Y0195534D01*
X0111205Y0195984D01*
X0110755Y0196434D01*
X0109854Y0196434D01*
X0109403Y0196885D01*
X0109403Y0197335D01*
X0109854Y0197786D01*
X0110755Y0197786D01*
X0111205Y0197335D01*
X0112350Y0197786D02*
X0112350Y0195083D01*
X0114152Y0195083D01*
X0113251Y0196434D02*
X0112350Y0196434D01*
X0112350Y0197786D02*
X0114152Y0197786D01*
X0115296Y0197786D02*
X0117098Y0197786D01*
X0116197Y0197786D02*
X0116197Y0195083D01*
X0108258Y0197786D02*
X0106457Y0197786D01*
X0106457Y0195083D01*
X0106457Y0196434D02*
X0107358Y0196434D01*
X0185308Y0144381D02*
X0185758Y0144831D01*
X0186209Y0144831D01*
X0186659Y0144381D01*
X0187110Y0144831D01*
X0187560Y0144831D01*
X0188010Y0144381D01*
X0188010Y0143480D01*
X0187560Y0143030D01*
X0188010Y0141885D02*
X0188010Y0140083D01*
X0188010Y0140984D02*
X0185308Y0140984D01*
X0186209Y0140083D01*
X0185758Y0143030D02*
X0185308Y0143480D01*
X0185308Y0144381D01*
X0186659Y0144381D02*
X0186659Y0143931D01*
D13*
X0189945Y0142231D02*
X0191756Y0142231D01*
X0190836Y0143451D01*
X0191756Y0142231D02*
X0193567Y0142231D01*
X0192616Y0143451D02*
X0191856Y0142292D01*
X0188528Y0133255D02*
X0188528Y0133058D01*
X0188528Y0131877D02*
X0188528Y0130105D01*
X0188528Y0129514D01*
X0188528Y0129908D02*
X0188528Y0130105D01*
X0187347Y0128333D02*
X0187275Y0128345D01*
X0187204Y0128361D01*
X0187134Y0128381D01*
X0187065Y0128404D01*
X0186997Y0128431D01*
X0186931Y0128461D01*
X0186866Y0128495D01*
X0186804Y0128532D01*
X0186743Y0128573D01*
X0186685Y0128616D01*
X0186628Y0128663D01*
X0186575Y0128712D01*
X0186524Y0128764D01*
X0186476Y0128819D01*
X0186430Y0128876D01*
X0186388Y0128935D01*
X0186349Y0128997D01*
X0186313Y0129060D01*
X0186281Y0129126D01*
X0186252Y0129192D01*
X0186227Y0129261D01*
X0186205Y0129330D01*
X0186187Y0129401D01*
X0186173Y0129472D01*
X0186162Y0129544D01*
X0186155Y0129617D01*
X0186152Y0129690D01*
X0186153Y0129763D01*
X0186158Y0129835D01*
X0186166Y0129908D01*
X0186166Y0131877D01*
X0186167Y0129908D02*
X0186170Y0129834D01*
X0186169Y0129759D01*
X0186165Y0129684D01*
X0186156Y0129609D01*
X0186144Y0129535D01*
X0186128Y0129462D01*
X0186109Y0129389D01*
X0186086Y0129318D01*
X0186059Y0129248D01*
X0186029Y0129179D01*
X0185995Y0129112D01*
X0185958Y0129047D01*
X0185918Y0128984D01*
X0185875Y0128923D01*
X0185828Y0128864D01*
X0185779Y0128808D01*
X0185727Y0128754D01*
X0185672Y0128703D01*
X0185614Y0128654D01*
X0185555Y0128609D01*
X0185493Y0128567D01*
X0185429Y0128528D01*
X0185363Y0128492D01*
X0185295Y0128459D01*
X0185226Y0128430D01*
X0185155Y0128405D01*
X0185084Y0128383D01*
X0185011Y0128365D01*
X0184937Y0128351D01*
X0184863Y0128340D01*
X0184788Y0128333D01*
X0184713Y0128320D01*
X0184637Y0128311D01*
X0184561Y0128306D01*
X0184485Y0128304D01*
X0184409Y0128306D01*
X0184333Y0128313D01*
X0184257Y0128323D01*
X0184182Y0128336D01*
X0184108Y0128354D01*
X0184035Y0128375D01*
X0183962Y0128401D01*
X0183892Y0128429D01*
X0183823Y0128461D01*
X0183755Y0128497D01*
X0183690Y0128536D01*
X0183626Y0128578D01*
X0183565Y0128624D01*
X0183506Y0128673D01*
X0183450Y0128724D01*
X0183396Y0128778D01*
X0183345Y0128835D01*
X0183297Y0128894D01*
X0183252Y0128956D01*
X0183211Y0129020D01*
X0183172Y0129086D01*
X0183137Y0129154D01*
X0183106Y0129223D01*
X0183078Y0129294D01*
X0183054Y0129367D01*
X0183033Y0129440D01*
X0183016Y0129515D01*
X0183016Y0129514D02*
X0183016Y0131877D01*
X0181047Y0129121D02*
X0181062Y0129060D01*
X0181080Y0128999D01*
X0181102Y0128940D01*
X0181127Y0128882D01*
X0181157Y0128827D01*
X0181189Y0128773D01*
X0181225Y0128721D01*
X0181264Y0128671D01*
X0181306Y0128624D01*
X0181351Y0128580D01*
X0181399Y0128539D01*
X0181449Y0128501D01*
X0181502Y0128466D01*
X0181556Y0128434D01*
X0181613Y0128406D01*
X0181671Y0128381D01*
X0181730Y0128360D01*
X0181791Y0128343D01*
X0181853Y0128330D01*
X0181915Y0128321D01*
X0181978Y0128315D01*
X0182041Y0128314D01*
X0182104Y0128317D01*
X0182167Y0128323D01*
X0182229Y0128333D01*
X0182229Y0128334D02*
X0182283Y0128336D01*
X0182336Y0128341D01*
X0182389Y0128350D01*
X0182441Y0128363D01*
X0182493Y0128379D01*
X0182543Y0128399D01*
X0182591Y0128422D01*
X0182638Y0128449D01*
X0182683Y0128478D01*
X0182726Y0128511D01*
X0182766Y0128546D01*
X0182804Y0128584D01*
X0182839Y0128624D01*
X0182872Y0128667D01*
X0182901Y0128712D01*
X0182928Y0128759D01*
X0182951Y0128807D01*
X0182971Y0128857D01*
X0182987Y0128909D01*
X0183000Y0128961D01*
X0183009Y0129014D01*
X0183014Y0129067D01*
X0183016Y0129121D01*
X0181048Y0129121D02*
X0181048Y0129514D01*
X0181048Y0129908D02*
X0181048Y0137782D01*
X0174552Y0131483D02*
X0174459Y0131477D01*
X0174367Y0131474D01*
X0174275Y0131475D01*
X0174183Y0131481D01*
X0174091Y0131490D01*
X0174000Y0131503D01*
X0173909Y0131520D01*
X0173819Y0131541D01*
X0173730Y0131566D01*
X0173642Y0131594D01*
X0173556Y0131626D01*
X0173470Y0131662D01*
X0173387Y0131701D01*
X0173305Y0131744D01*
X0173225Y0131790D01*
X0173147Y0131840D01*
X0173072Y0131893D01*
X0172998Y0131949D01*
X0172927Y0132008D01*
X0172859Y0132070D01*
X0172793Y0132135D01*
X0172731Y0132203D01*
X0172671Y0132273D01*
X0172614Y0132346D01*
X0172560Y0132421D01*
X0172510Y0132498D01*
X0172462Y0132577D01*
X0172419Y0132658D01*
X0172378Y0132742D01*
X0172342Y0132826D01*
X0172309Y0132912D01*
X0172279Y0133000D01*
X0172253Y0133089D01*
X0172232Y0133178D01*
X0172213Y0133269D01*
X0172199Y0133360D01*
X0172189Y0133452D01*
X0172190Y0133451D02*
X0172190Y0129514D01*
X0172178Y0129442D01*
X0172162Y0129371D01*
X0172142Y0129301D01*
X0172119Y0129232D01*
X0172092Y0129164D01*
X0172062Y0129098D01*
X0172028Y0129033D01*
X0171991Y0128971D01*
X0171950Y0128910D01*
X0171907Y0128852D01*
X0171860Y0128795D01*
X0171811Y0128742D01*
X0171759Y0128691D01*
X0171704Y0128643D01*
X0171647Y0128597D01*
X0171588Y0128555D01*
X0171526Y0128516D01*
X0171463Y0128480D01*
X0171397Y0128448D01*
X0171331Y0128419D01*
X0171262Y0128394D01*
X0171193Y0128372D01*
X0171122Y0128354D01*
X0171051Y0128340D01*
X0170979Y0128329D01*
X0170906Y0128322D01*
X0170833Y0128319D01*
X0170760Y0128320D01*
X0170688Y0128325D01*
X0170615Y0128333D01*
X0170538Y0128335D01*
X0170461Y0128341D01*
X0170384Y0128350D01*
X0170308Y0128363D01*
X0170232Y0128380D01*
X0170158Y0128401D01*
X0170084Y0128425D01*
X0170012Y0128453D01*
X0169942Y0128484D01*
X0169873Y0128519D01*
X0169805Y0128557D01*
X0169740Y0128598D01*
X0169677Y0128643D01*
X0169616Y0128691D01*
X0169557Y0128741D01*
X0169501Y0128794D01*
X0169448Y0128850D01*
X0169398Y0128909D01*
X0169350Y0128970D01*
X0169305Y0129033D01*
X0169264Y0129098D01*
X0169226Y0129166D01*
X0169191Y0129235D01*
X0169160Y0129305D01*
X0169132Y0129377D01*
X0169108Y0129451D01*
X0169087Y0129525D01*
X0169070Y0129601D01*
X0169057Y0129677D01*
X0169048Y0129754D01*
X0169042Y0129831D01*
X0169040Y0129908D01*
X0168646Y0136207D01*
X0168843Y0132860D02*
X0168708Y0132834D01*
X0168572Y0132812D01*
X0168435Y0132794D01*
X0168298Y0132779D01*
X0168161Y0132768D01*
X0168023Y0132762D01*
X0167885Y0132759D01*
X0167748Y0132760D01*
X0167610Y0132765D01*
X0167472Y0132775D01*
X0167335Y0132788D01*
X0167198Y0132804D01*
X0167062Y0132825D01*
X0166927Y0132850D01*
X0166792Y0132879D01*
X0166658Y0132911D01*
X0166525Y0132947D01*
X0166393Y0132987D01*
X0166262Y0133031D01*
X0166133Y0133078D01*
X0166005Y0133129D01*
X0165878Y0133184D01*
X0165753Y0133243D01*
X0165630Y0133304D01*
X0165509Y0133370D01*
X0165390Y0133439D01*
X0165272Y0133511D01*
X0165157Y0133586D01*
X0165044Y0133665D01*
X0164933Y0133747D01*
X0164825Y0133832D01*
X0164719Y0133921D01*
X0164615Y0134012D01*
X0164515Y0134106D01*
X0164417Y0134203D01*
X0164321Y0134302D01*
X0164229Y0134405D01*
X0164140Y0134510D01*
X0164053Y0134617D01*
X0163970Y0134727D01*
X0163890Y0134839D01*
X0163813Y0134954D01*
X0163740Y0135070D01*
X0163670Y0135189D01*
X0163603Y0135310D01*
X0163540Y0135432D01*
X0163480Y0135556D01*
X0163424Y0135682D01*
X0163371Y0135809D01*
X0163323Y0135938D01*
X0163277Y0136069D01*
X0163236Y0136200D01*
X0163198Y0136333D01*
X0163164Y0136466D01*
X0163134Y0136601D01*
X0166284Y0138569D02*
X0166379Y0138567D01*
X0166474Y0138561D01*
X0166569Y0138552D01*
X0166663Y0138538D01*
X0166756Y0138521D01*
X0166849Y0138500D01*
X0166941Y0138476D01*
X0167032Y0138447D01*
X0167122Y0138416D01*
X0167210Y0138380D01*
X0167297Y0138341D01*
X0167382Y0138298D01*
X0167465Y0138253D01*
X0167546Y0138203D01*
X0167626Y0138151D01*
X0167703Y0138095D01*
X0167778Y0138037D01*
X0167850Y0137975D01*
X0167920Y0137910D01*
X0167987Y0137843D01*
X0168052Y0137773D01*
X0168114Y0137701D01*
X0168172Y0137626D01*
X0168228Y0137549D01*
X0168280Y0137469D01*
X0168330Y0137388D01*
X0168375Y0137305D01*
X0168418Y0137220D01*
X0168457Y0137133D01*
X0168493Y0137045D01*
X0168524Y0136955D01*
X0168553Y0136864D01*
X0168577Y0136772D01*
X0168598Y0136679D01*
X0168615Y0136586D01*
X0168629Y0136492D01*
X0168638Y0136397D01*
X0168644Y0136302D01*
X0168646Y0136207D01*
X0166284Y0138570D02*
X0165890Y0138570D01*
X0165890Y0133451D01*
X0165891Y0133451D02*
X0165895Y0133254D01*
X0165895Y0133056D01*
X0165891Y0132859D01*
X0165881Y0132661D01*
X0165867Y0132464D01*
X0165848Y0132268D01*
X0165824Y0132072D01*
X0165795Y0131876D01*
X0165762Y0131681D01*
X0165724Y0131488D01*
X0165681Y0131295D01*
X0165634Y0131103D01*
X0165582Y0130912D01*
X0165526Y0130723D01*
X0165464Y0130535D01*
X0165399Y0130349D01*
X0165329Y0130164D01*
X0165254Y0129981D01*
X0165175Y0129800D01*
X0165092Y0129621D01*
X0165005Y0129444D01*
X0164913Y0129269D01*
X0164817Y0129096D01*
X0164717Y0128926D01*
X0164612Y0128758D01*
X0164504Y0128593D01*
X0164392Y0128430D01*
X0164276Y0128271D01*
X0164156Y0128114D01*
X0164032Y0127960D01*
X0163904Y0127809D01*
X0163773Y0127661D01*
X0163639Y0127516D01*
X0163501Y0127375D01*
X0163360Y0127237D01*
X0163215Y0127102D01*
X0163067Y0126971D01*
X0162916Y0126844D01*
X0162762Y0126720D01*
X0162605Y0126600D01*
X0162445Y0126484D01*
X0162282Y0126372D01*
X0162117Y0126264D01*
X0161949Y0126159D01*
X0161779Y0126059D01*
X0161606Y0125963D01*
X0161431Y0125872D01*
X0161254Y0125784D01*
X0161075Y0125701D01*
X0160894Y0125622D01*
X0160711Y0125547D01*
X0160526Y0125477D01*
X0160340Y0125412D01*
X0160152Y0125351D01*
X0159963Y0125294D01*
X0159772Y0125243D01*
X0159580Y0125195D01*
X0159387Y0125153D01*
X0159194Y0125115D01*
X0158999Y0125081D01*
X0158803Y0125053D01*
X0158607Y0125029D01*
X0158411Y0125010D01*
X0158214Y0124996D01*
X0158016Y0124986D01*
X0157819Y0128137D02*
X0157873Y0128139D01*
X0157926Y0128144D01*
X0157979Y0128153D01*
X0158031Y0128166D01*
X0158083Y0128182D01*
X0158133Y0128202D01*
X0158181Y0128225D01*
X0158228Y0128252D01*
X0158273Y0128281D01*
X0158316Y0128314D01*
X0158356Y0128349D01*
X0158394Y0128387D01*
X0158429Y0128427D01*
X0158462Y0128470D01*
X0158491Y0128515D01*
X0158518Y0128562D01*
X0158541Y0128610D01*
X0158561Y0128660D01*
X0158577Y0128712D01*
X0158590Y0128764D01*
X0158599Y0128817D01*
X0158604Y0128870D01*
X0158606Y0128924D01*
X0157819Y0128137D02*
X0157765Y0128139D01*
X0157712Y0128144D01*
X0157659Y0128153D01*
X0157607Y0128166D01*
X0157555Y0128182D01*
X0157505Y0128202D01*
X0157457Y0128225D01*
X0157410Y0128252D01*
X0157365Y0128281D01*
X0157322Y0128314D01*
X0157282Y0128349D01*
X0157244Y0128387D01*
X0157209Y0128427D01*
X0157176Y0128470D01*
X0157147Y0128515D01*
X0157120Y0128562D01*
X0157097Y0128610D01*
X0157077Y0128660D01*
X0157061Y0128712D01*
X0157048Y0128764D01*
X0157039Y0128817D01*
X0157034Y0128870D01*
X0157032Y0128924D01*
X0157032Y0129318D01*
X0157032Y0129711D02*
X0157032Y0137585D01*
X0150142Y0136601D02*
X0150142Y0135814D01*
X0150142Y0135813D02*
X0150136Y0135727D01*
X0150125Y0135641D01*
X0150111Y0135556D01*
X0150092Y0135471D01*
X0150070Y0135388D01*
X0150044Y0135305D01*
X0150014Y0135224D01*
X0149980Y0135144D01*
X0149943Y0135066D01*
X0149902Y0134990D01*
X0149858Y0134916D01*
X0149810Y0134844D01*
X0149759Y0134774D01*
X0149705Y0134706D01*
X0149648Y0134641D01*
X0149588Y0134579D01*
X0149525Y0134520D01*
X0149459Y0134463D01*
X0149391Y0134410D01*
X0149321Y0134360D01*
X0149248Y0134313D01*
X0149173Y0134270D01*
X0149096Y0134230D01*
X0149018Y0134194D01*
X0148938Y0134161D01*
X0148856Y0134132D01*
X0148773Y0134107D01*
X0148689Y0134086D01*
X0148605Y0134069D01*
X0148519Y0134055D01*
X0148433Y0134046D01*
X0148347Y0134040D01*
X0148260Y0134039D01*
X0148174Y0134042D01*
X0146993Y0134042D01*
X0145418Y0136601D02*
X0145428Y0136693D01*
X0145442Y0136784D01*
X0145460Y0136874D01*
X0145482Y0136964D01*
X0145508Y0137053D01*
X0145537Y0137140D01*
X0145570Y0137226D01*
X0145607Y0137311D01*
X0145647Y0137394D01*
X0145691Y0137475D01*
X0145738Y0137554D01*
X0145789Y0137632D01*
X0145843Y0137707D01*
X0145899Y0137779D01*
X0145959Y0137850D01*
X0146022Y0137917D01*
X0146088Y0137982D01*
X0146156Y0138044D01*
X0146227Y0138103D01*
X0146300Y0138159D01*
X0146376Y0138212D01*
X0146454Y0138262D01*
X0146534Y0138308D01*
X0146615Y0138351D01*
X0146699Y0138390D01*
X0146784Y0138426D01*
X0146871Y0138458D01*
X0146958Y0138486D01*
X0147047Y0138511D01*
X0147137Y0138532D01*
X0147228Y0138549D01*
X0147319Y0138562D01*
X0147411Y0138571D01*
X0147503Y0138577D01*
X0147596Y0138578D01*
X0147688Y0138575D01*
X0147780Y0138569D01*
X0147780Y0138570D02*
X0147873Y0138576D01*
X0147965Y0138579D01*
X0148057Y0138578D01*
X0148149Y0138572D01*
X0148241Y0138563D01*
X0148332Y0138550D01*
X0148423Y0138533D01*
X0148513Y0138512D01*
X0148602Y0138487D01*
X0148690Y0138459D01*
X0148776Y0138427D01*
X0148862Y0138391D01*
X0148945Y0138352D01*
X0149027Y0138309D01*
X0149107Y0138263D01*
X0149185Y0138213D01*
X0149260Y0138160D01*
X0149334Y0138104D01*
X0149405Y0138045D01*
X0149473Y0137983D01*
X0149539Y0137918D01*
X0149601Y0137850D01*
X0149661Y0137780D01*
X0149718Y0137707D01*
X0149772Y0137632D01*
X0149822Y0137555D01*
X0149870Y0137476D01*
X0149913Y0137395D01*
X0149954Y0137311D01*
X0149990Y0137227D01*
X0150023Y0137141D01*
X0150053Y0137053D01*
X0150079Y0136964D01*
X0150100Y0136875D01*
X0150119Y0136784D01*
X0150133Y0136693D01*
X0150143Y0136601D01*
X0149552Y0132270D02*
X0149158Y0132270D01*
X0149552Y0132271D02*
X0149629Y0132269D01*
X0149706Y0132263D01*
X0149783Y0132254D01*
X0149859Y0132241D01*
X0149935Y0132224D01*
X0150009Y0132203D01*
X0150083Y0132179D01*
X0150155Y0132151D01*
X0150225Y0132120D01*
X0150294Y0132085D01*
X0150362Y0132047D01*
X0150427Y0132006D01*
X0150490Y0131961D01*
X0150551Y0131913D01*
X0150610Y0131863D01*
X0150666Y0131810D01*
X0150719Y0131754D01*
X0150769Y0131695D01*
X0150817Y0131634D01*
X0150862Y0131571D01*
X0150903Y0131506D01*
X0150941Y0131438D01*
X0150976Y0131369D01*
X0151007Y0131299D01*
X0151035Y0131227D01*
X0151059Y0131153D01*
X0151080Y0131079D01*
X0151097Y0131003D01*
X0151110Y0130927D01*
X0151119Y0130850D01*
X0151125Y0130773D01*
X0151127Y0130696D01*
X0151127Y0129908D01*
X0151113Y0129839D01*
X0151102Y0129768D01*
X0151096Y0129697D01*
X0151093Y0129626D01*
X0151094Y0129555D01*
X0151099Y0129484D01*
X0151108Y0129414D01*
X0151121Y0129344D01*
X0151137Y0129275D01*
X0151158Y0129206D01*
X0151181Y0129139D01*
X0151209Y0129074D01*
X0151240Y0129010D01*
X0151274Y0128948D01*
X0151312Y0128887D01*
X0151353Y0128829D01*
X0151397Y0128773D01*
X0151444Y0128720D01*
X0151493Y0128669D01*
X0151546Y0128621D01*
X0151601Y0128576D01*
X0151658Y0128534D01*
X0151718Y0128495D01*
X0151779Y0128459D01*
X0151843Y0128427D01*
X0151908Y0128398D01*
X0151974Y0128373D01*
X0152042Y0128351D01*
X0152111Y0128334D01*
X0152174Y0128318D01*
X0152238Y0128307D01*
X0152303Y0128299D01*
X0152368Y0128295D01*
X0152434Y0128294D01*
X0152499Y0128298D01*
X0152564Y0128305D01*
X0152628Y0128316D01*
X0152692Y0128331D01*
X0152754Y0128349D01*
X0152816Y0128371D01*
X0152876Y0128397D01*
X0152934Y0128426D01*
X0152991Y0128458D01*
X0153045Y0128494D01*
X0153098Y0128533D01*
X0153148Y0128575D01*
X0153196Y0128619D01*
X0153241Y0128666D01*
X0153283Y0128716D01*
X0153322Y0128768D01*
X0153358Y0128823D01*
X0153391Y0128879D01*
X0153421Y0128937D01*
X0153447Y0128997D01*
X0153469Y0129058D01*
X0153488Y0129121D01*
X0153489Y0129121D02*
X0153489Y0129318D01*
X0153489Y0130302D01*
X0155261Y0132270D02*
X0155346Y0132260D01*
X0155432Y0132246D01*
X0155516Y0132228D01*
X0155600Y0132206D01*
X0155682Y0132181D01*
X0155764Y0132152D01*
X0155844Y0132120D01*
X0155922Y0132084D01*
X0155999Y0132045D01*
X0156074Y0132003D01*
X0156147Y0131957D01*
X0156219Y0131908D01*
X0156287Y0131856D01*
X0156354Y0131801D01*
X0156418Y0131744D01*
X0156480Y0131683D01*
X0156539Y0131620D01*
X0156595Y0131555D01*
X0156648Y0131487D01*
X0156698Y0131416D01*
X0156745Y0131344D01*
X0156789Y0131270D01*
X0156830Y0131194D01*
X0156867Y0131116D01*
X0156901Y0131036D01*
X0156931Y0130955D01*
X0156958Y0130873D01*
X0156981Y0130790D01*
X0157000Y0130706D01*
X0157016Y0130621D01*
X0157028Y0130536D01*
X0157036Y0130450D01*
X0157041Y0130364D01*
X0157042Y0130277D01*
X0157039Y0130191D01*
X0157032Y0130105D01*
X0157049Y0130027D01*
X0157062Y0129949D01*
X0157072Y0129870D01*
X0157078Y0129790D01*
X0157080Y0129711D01*
X0157078Y0129632D01*
X0157072Y0129552D01*
X0157062Y0129473D01*
X0157049Y0129395D01*
X0157032Y0129317D01*
X0157010Y0129241D01*
X0156985Y0129165D01*
X0156957Y0129090D01*
X0156924Y0129018D01*
X0156889Y0128946D01*
X0156849Y0128877D01*
X0156807Y0128810D01*
X0156761Y0128744D01*
X0156712Y0128681D01*
X0156660Y0128621D01*
X0156605Y0128563D01*
X0156547Y0128508D01*
X0156487Y0128456D01*
X0156424Y0128407D01*
X0156358Y0128361D01*
X0156291Y0128319D01*
X0156222Y0128279D01*
X0156150Y0128244D01*
X0156078Y0128211D01*
X0156003Y0128183D01*
X0155927Y0128158D01*
X0155851Y0128136D01*
X0155850Y0128137D02*
X0155770Y0128112D01*
X0155689Y0128091D01*
X0155607Y0128074D01*
X0155525Y0128060D01*
X0155441Y0128050D01*
X0155358Y0128044D01*
X0155274Y0128041D01*
X0155190Y0128042D01*
X0155107Y0128047D01*
X0155023Y0128056D01*
X0154941Y0128069D01*
X0154858Y0128085D01*
X0154777Y0128105D01*
X0154697Y0128128D01*
X0154617Y0128155D01*
X0154539Y0128186D01*
X0154463Y0128220D01*
X0154388Y0128257D01*
X0154315Y0128298D01*
X0154243Y0128342D01*
X0154174Y0128389D01*
X0154107Y0128440D01*
X0154042Y0128493D01*
X0153980Y0128549D01*
X0153920Y0128608D01*
X0153863Y0128669D01*
X0153809Y0128733D01*
X0153758Y0128799D01*
X0153710Y0128868D01*
X0153665Y0128938D01*
X0153623Y0129011D01*
X0153584Y0129085D01*
X0153549Y0129161D01*
X0153517Y0129239D01*
X0153489Y0129318D01*
X0153489Y0130302D02*
X0153486Y0130388D01*
X0153487Y0130475D01*
X0153493Y0130561D01*
X0153502Y0130647D01*
X0153516Y0130732D01*
X0153533Y0130817D01*
X0153554Y0130901D01*
X0153579Y0130984D01*
X0153608Y0131065D01*
X0153641Y0131146D01*
X0153677Y0131224D01*
X0153717Y0131301D01*
X0153760Y0131376D01*
X0153807Y0131449D01*
X0153857Y0131519D01*
X0153910Y0131587D01*
X0153967Y0131653D01*
X0154026Y0131716D01*
X0154088Y0131776D01*
X0154153Y0131833D01*
X0154221Y0131887D01*
X0154291Y0131938D01*
X0154363Y0131986D01*
X0154437Y0132030D01*
X0154513Y0132071D01*
X0154592Y0132109D01*
X0154671Y0132142D01*
X0154752Y0132172D01*
X0154835Y0132198D01*
X0154919Y0132220D01*
X0155003Y0132239D01*
X0155088Y0132253D01*
X0155174Y0132264D01*
X0155261Y0132270D01*
X0151127Y0129908D02*
X0151135Y0129835D01*
X0151140Y0129763D01*
X0151141Y0129690D01*
X0151138Y0129617D01*
X0151131Y0129544D01*
X0151120Y0129472D01*
X0151106Y0129401D01*
X0151088Y0129330D01*
X0151066Y0129261D01*
X0151041Y0129192D01*
X0151012Y0129126D01*
X0150980Y0129060D01*
X0150944Y0128997D01*
X0150905Y0128935D01*
X0150863Y0128876D01*
X0150817Y0128819D01*
X0150769Y0128764D01*
X0150718Y0128712D01*
X0150665Y0128663D01*
X0150608Y0128616D01*
X0150550Y0128573D01*
X0150489Y0128532D01*
X0150427Y0128495D01*
X0150362Y0128461D01*
X0150296Y0128431D01*
X0150228Y0128404D01*
X0150159Y0128381D01*
X0150089Y0128361D01*
X0150018Y0128345D01*
X0149946Y0128333D01*
X0149945Y0128333D02*
X0149158Y0128333D01*
X0149076Y0128344D01*
X0148995Y0128359D01*
X0148915Y0128377D01*
X0148836Y0128399D01*
X0148758Y0128425D01*
X0148681Y0128454D01*
X0148605Y0128487D01*
X0148531Y0128524D01*
X0148459Y0128563D01*
X0148389Y0128606D01*
X0148321Y0128653D01*
X0148255Y0128702D01*
X0148191Y0128754D01*
X0148130Y0128809D01*
X0148071Y0128867D01*
X0148016Y0128928D01*
X0147963Y0128991D01*
X0147913Y0129057D01*
X0147866Y0129124D01*
X0147822Y0129194D01*
X0147782Y0129266D01*
X0147745Y0129340D01*
X0147711Y0129415D01*
X0147681Y0129491D01*
X0147654Y0129569D01*
X0147631Y0129648D01*
X0147612Y0129729D01*
X0147597Y0129809D01*
X0147585Y0129891D01*
X0147577Y0129973D01*
X0147573Y0130055D01*
X0147572Y0130138D01*
X0147576Y0130220D01*
X0147583Y0130302D01*
X0147576Y0130384D01*
X0147572Y0130466D01*
X0147573Y0130549D01*
X0147577Y0130631D01*
X0147585Y0130713D01*
X0147597Y0130795D01*
X0147612Y0130875D01*
X0147631Y0130956D01*
X0147654Y0131035D01*
X0147681Y0131113D01*
X0147711Y0131189D01*
X0147745Y0131264D01*
X0147782Y0131338D01*
X0147822Y0131410D01*
X0147866Y0131480D01*
X0147913Y0131547D01*
X0147963Y0131613D01*
X0148016Y0131676D01*
X0148071Y0131737D01*
X0148130Y0131795D01*
X0148191Y0131850D01*
X0148255Y0131902D01*
X0148321Y0131951D01*
X0148389Y0131998D01*
X0148459Y0132041D01*
X0148531Y0132080D01*
X0148605Y0132117D01*
X0148681Y0132150D01*
X0148758Y0132179D01*
X0148836Y0132205D01*
X0148915Y0132227D01*
X0148995Y0132245D01*
X0149076Y0132260D01*
X0149158Y0132271D01*
X0145418Y0128333D02*
X0145418Y0136601D01*
X0143056Y0132664D02*
X0143056Y0130302D01*
X0143056Y0127152D01*
X0141087Y0128333D02*
X0141173Y0128335D01*
X0141259Y0128340D01*
X0141344Y0128350D01*
X0141429Y0128363D01*
X0141513Y0128380D01*
X0141597Y0128400D01*
X0141679Y0128424D01*
X0141760Y0128452D01*
X0141841Y0128483D01*
X0141919Y0128517D01*
X0141996Y0128555D01*
X0142072Y0128597D01*
X0142145Y0128641D01*
X0142216Y0128689D01*
X0142286Y0128740D01*
X0142353Y0128794D01*
X0142417Y0128850D01*
X0142479Y0128910D01*
X0142539Y0128972D01*
X0142595Y0129036D01*
X0142649Y0129103D01*
X0142700Y0129173D01*
X0142748Y0129244D01*
X0142792Y0129318D01*
X0142834Y0129393D01*
X0142872Y0129470D01*
X0142906Y0129548D01*
X0142937Y0129629D01*
X0142965Y0129710D01*
X0142989Y0129792D01*
X0143009Y0129876D01*
X0143026Y0129960D01*
X0143039Y0130045D01*
X0143049Y0130130D01*
X0143054Y0130216D01*
X0143056Y0130302D01*
X0141087Y0128333D02*
X0141001Y0128335D01*
X0140915Y0128340D01*
X0140830Y0128350D01*
X0140745Y0128363D01*
X0140661Y0128380D01*
X0140577Y0128400D01*
X0140495Y0128424D01*
X0140414Y0128452D01*
X0140333Y0128483D01*
X0140255Y0128517D01*
X0140178Y0128555D01*
X0140103Y0128597D01*
X0140029Y0128641D01*
X0139958Y0128689D01*
X0139888Y0128740D01*
X0139821Y0128794D01*
X0139757Y0128850D01*
X0139695Y0128910D01*
X0139635Y0128972D01*
X0139579Y0129036D01*
X0139525Y0129103D01*
X0139474Y0129173D01*
X0139426Y0129244D01*
X0139382Y0129318D01*
X0139340Y0129393D01*
X0139302Y0129470D01*
X0139268Y0129548D01*
X0139237Y0129629D01*
X0139209Y0129710D01*
X0139185Y0129792D01*
X0139165Y0129876D01*
X0139148Y0129960D01*
X0139135Y0130045D01*
X0139125Y0130130D01*
X0139120Y0130216D01*
X0139118Y0130302D01*
X0139119Y0130302D02*
X0139119Y0132664D01*
X0139119Y0130302D02*
X0139117Y0130216D01*
X0139112Y0130130D01*
X0139102Y0130045D01*
X0139089Y0129960D01*
X0139072Y0129876D01*
X0139052Y0129792D01*
X0139028Y0129710D01*
X0139000Y0129629D01*
X0138969Y0129548D01*
X0138935Y0129470D01*
X0138897Y0129393D01*
X0138855Y0129318D01*
X0138811Y0129244D01*
X0138763Y0129173D01*
X0138712Y0129103D01*
X0138658Y0129036D01*
X0138602Y0128972D01*
X0138542Y0128910D01*
X0138480Y0128850D01*
X0138416Y0128794D01*
X0138349Y0128740D01*
X0138279Y0128689D01*
X0138208Y0128641D01*
X0138135Y0128597D01*
X0138059Y0128555D01*
X0137982Y0128517D01*
X0137904Y0128483D01*
X0137823Y0128452D01*
X0137742Y0128424D01*
X0137660Y0128400D01*
X0137576Y0128380D01*
X0137492Y0128363D01*
X0137407Y0128350D01*
X0137322Y0128340D01*
X0137236Y0128335D01*
X0137150Y0128333D01*
X0143056Y0127152D02*
X0143054Y0127011D01*
X0143048Y0126870D01*
X0143039Y0126729D01*
X0143025Y0126589D01*
X0143007Y0126449D01*
X0142986Y0126310D01*
X0142961Y0126171D01*
X0142932Y0126033D01*
X0142899Y0125896D01*
X0142863Y0125759D01*
X0142823Y0125624D01*
X0142779Y0125490D01*
X0142731Y0125357D01*
X0142680Y0125226D01*
X0142625Y0125096D01*
X0142566Y0124968D01*
X0142505Y0124841D01*
X0142439Y0124716D01*
X0142370Y0124593D01*
X0142298Y0124472D01*
X0142223Y0124353D01*
X0142144Y0124236D01*
X0142062Y0124121D01*
X0141977Y0124008D01*
X0141889Y0123898D01*
X0141798Y0123791D01*
X0141703Y0123686D01*
X0141606Y0123583D01*
X0141507Y0123484D01*
X0141404Y0123387D01*
X0141299Y0123292D01*
X0141192Y0123201D01*
X0141082Y0123113D01*
X0140969Y0123028D01*
X0140854Y0122946D01*
X0140737Y0122867D01*
X0140618Y0122792D01*
X0140497Y0122720D01*
X0140374Y0122651D01*
X0140249Y0122585D01*
X0140122Y0122524D01*
X0139994Y0122465D01*
X0139864Y0122410D01*
X0139733Y0122359D01*
X0139600Y0122311D01*
X0139466Y0122267D01*
X0139331Y0122227D01*
X0139194Y0122191D01*
X0139057Y0122158D01*
X0138919Y0122129D01*
X0138780Y0122104D01*
X0138641Y0122083D01*
X0138501Y0122065D01*
X0138361Y0122051D01*
X0138220Y0122042D01*
X0138079Y0122036D01*
X0137938Y0122034D01*
X0137544Y0122034D01*
X0138725Y0126365D02*
X0138866Y0126374D01*
X0139008Y0126379D01*
X0139149Y0126380D01*
X0139291Y0126377D01*
X0139432Y0126370D01*
X0139573Y0126360D01*
X0139714Y0126345D01*
X0139854Y0126327D01*
X0139994Y0126305D01*
X0140133Y0126279D01*
X0140271Y0126249D01*
X0140408Y0126215D01*
X0140545Y0126178D01*
X0140680Y0126137D01*
X0140814Y0126092D01*
X0140947Y0126043D01*
X0141079Y0125991D01*
X0141209Y0125935D01*
X0141337Y0125876D01*
X0141464Y0125813D01*
X0141589Y0125747D01*
X0141712Y0125677D01*
X0141833Y0125604D01*
X0141952Y0125528D01*
X0142069Y0125448D01*
X0142183Y0125365D01*
X0142296Y0125279D01*
X0142405Y0125190D01*
X0142513Y0125098D01*
X0142618Y0125003D01*
X0142720Y0124905D01*
X0142819Y0124804D01*
X0142916Y0124701D01*
X0143010Y0124595D01*
X0143100Y0124487D01*
X0143188Y0124376D01*
X0143273Y0124262D01*
X0143354Y0124147D01*
X0143433Y0124029D01*
X0143508Y0123909D01*
X0143579Y0123787D01*
X0143648Y0123663D01*
X0143713Y0123538D01*
X0143774Y0123410D01*
X0143832Y0123281D01*
X0143886Y0123150D01*
X0143937Y0123018D01*
X0143984Y0122885D01*
X0144027Y0122750D01*
X0144066Y0122615D01*
X0144102Y0122478D01*
X0144134Y0122340D01*
X0144163Y0122201D01*
X0144187Y0122062D01*
X0144207Y0121922D01*
X0144224Y0121782D01*
X0144237Y0121641D01*
X0137938Y0126365D02*
X0137843Y0126363D01*
X0137748Y0126357D01*
X0137653Y0126348D01*
X0137559Y0126334D01*
X0137466Y0126317D01*
X0137373Y0126296D01*
X0137281Y0126272D01*
X0137190Y0126243D01*
X0137100Y0126212D01*
X0137012Y0126176D01*
X0136925Y0126137D01*
X0136840Y0126094D01*
X0136757Y0126049D01*
X0136676Y0125999D01*
X0136596Y0125947D01*
X0136519Y0125891D01*
X0136444Y0125833D01*
X0136372Y0125771D01*
X0136302Y0125706D01*
X0136235Y0125639D01*
X0136170Y0125569D01*
X0136108Y0125497D01*
X0136050Y0125422D01*
X0135994Y0125345D01*
X0135942Y0125265D01*
X0135892Y0125184D01*
X0135847Y0125101D01*
X0135804Y0125016D01*
X0135765Y0124929D01*
X0135729Y0124841D01*
X0135698Y0124751D01*
X0135669Y0124660D01*
X0135645Y0124568D01*
X0135624Y0124475D01*
X0135607Y0124382D01*
X0135593Y0124288D01*
X0135584Y0124193D01*
X0135578Y0124098D01*
X0135576Y0124003D01*
X0135575Y0124003D02*
X0135577Y0123917D01*
X0135582Y0123831D01*
X0135592Y0123746D01*
X0135605Y0123661D01*
X0135622Y0123577D01*
X0135642Y0123493D01*
X0135666Y0123411D01*
X0135694Y0123330D01*
X0135725Y0123249D01*
X0135759Y0123171D01*
X0135797Y0123094D01*
X0135839Y0123019D01*
X0135883Y0122945D01*
X0135931Y0122874D01*
X0135982Y0122804D01*
X0136036Y0122737D01*
X0136092Y0122673D01*
X0136152Y0122611D01*
X0136214Y0122551D01*
X0136278Y0122495D01*
X0136345Y0122441D01*
X0136415Y0122390D01*
X0136486Y0122342D01*
X0136560Y0122298D01*
X0136635Y0122256D01*
X0136712Y0122218D01*
X0136790Y0122184D01*
X0136871Y0122153D01*
X0136952Y0122125D01*
X0137034Y0122101D01*
X0137118Y0122081D01*
X0137202Y0122064D01*
X0137287Y0122051D01*
X0137372Y0122041D01*
X0137458Y0122036D01*
X0137544Y0122034D01*
X0137938Y0126365D02*
X0138725Y0126365D01*
X0137150Y0128333D02*
X0137064Y0128335D01*
X0136978Y0128340D01*
X0136893Y0128350D01*
X0136808Y0128363D01*
X0136724Y0128380D01*
X0136640Y0128400D01*
X0136558Y0128424D01*
X0136477Y0128452D01*
X0136396Y0128483D01*
X0136318Y0128517D01*
X0136241Y0128555D01*
X0136166Y0128597D01*
X0136092Y0128641D01*
X0136021Y0128689D01*
X0135951Y0128740D01*
X0135884Y0128794D01*
X0135820Y0128850D01*
X0135758Y0128910D01*
X0135698Y0128972D01*
X0135642Y0129036D01*
X0135588Y0129103D01*
X0135537Y0129173D01*
X0135489Y0129244D01*
X0135445Y0129318D01*
X0135403Y0129393D01*
X0135365Y0129470D01*
X0135331Y0129548D01*
X0135300Y0129629D01*
X0135272Y0129710D01*
X0135248Y0129792D01*
X0135228Y0129876D01*
X0135211Y0129960D01*
X0135198Y0130045D01*
X0135188Y0130130D01*
X0135183Y0130216D01*
X0135181Y0130302D01*
X0135182Y0130302D02*
X0135182Y0130499D01*
X0135182Y0131089D02*
X0135182Y0137585D01*
X0131638Y0137388D02*
X0131636Y0137454D01*
X0131631Y0137520D01*
X0131621Y0137586D01*
X0131608Y0137651D01*
X0131592Y0137715D01*
X0131572Y0137778D01*
X0131548Y0137840D01*
X0131521Y0137900D01*
X0131491Y0137959D01*
X0131457Y0138016D01*
X0131420Y0138071D01*
X0131380Y0138124D01*
X0131338Y0138175D01*
X0131292Y0138223D01*
X0131244Y0138269D01*
X0131193Y0138311D01*
X0131140Y0138351D01*
X0131085Y0138388D01*
X0131028Y0138422D01*
X0130969Y0138452D01*
X0130909Y0138479D01*
X0130847Y0138503D01*
X0130784Y0138523D01*
X0130720Y0138539D01*
X0130655Y0138552D01*
X0130589Y0138562D01*
X0130523Y0138567D01*
X0130457Y0138569D01*
X0130457Y0138570D02*
X0130064Y0138570D01*
X0131638Y0137389D02*
X0131632Y0137287D01*
X0131623Y0137185D01*
X0131609Y0137085D01*
X0131592Y0136984D01*
X0131571Y0136884D01*
X0131546Y0136786D01*
X0131517Y0136688D01*
X0131485Y0136591D01*
X0131449Y0136496D01*
X0131409Y0136402D01*
X0131365Y0136310D01*
X0131319Y0136220D01*
X0131268Y0136131D01*
X0131215Y0136045D01*
X0131158Y0135960D01*
X0131098Y0135878D01*
X0131035Y0135798D01*
X0130968Y0135720D01*
X0130899Y0135646D01*
X0130827Y0135574D01*
X0130753Y0135504D01*
X0130675Y0135438D01*
X0130596Y0135374D01*
X0130514Y0135314D01*
X0130429Y0135257D01*
X0130343Y0135203D01*
X0130254Y0135153D01*
X0130164Y0135106D01*
X0130072Y0135062D01*
X0129978Y0135022D01*
X0129883Y0134986D01*
X0129787Y0134953D01*
X0129689Y0134924D01*
X0129590Y0134899D01*
X0129491Y0134877D01*
X0129390Y0134860D01*
X0129289Y0134846D01*
X0129188Y0134836D01*
X0129086Y0134830D01*
X0128984Y0134828D01*
X0128883Y0134830D01*
X0128882Y0134829D02*
X0128292Y0134829D01*
X0127308Y0135814D02*
X0127308Y0133058D01*
X0127307Y0128531D02*
X0127410Y0128487D01*
X0127514Y0128447D01*
X0127620Y0128410D01*
X0127727Y0128378D01*
X0127835Y0128349D01*
X0127943Y0128324D01*
X0128053Y0128303D01*
X0128163Y0128286D01*
X0128274Y0128273D01*
X0128386Y0128263D01*
X0128497Y0128258D01*
X0128609Y0128257D01*
X0128720Y0128260D01*
X0128832Y0128267D01*
X0128943Y0128277D01*
X0129054Y0128292D01*
X0129164Y0128311D01*
X0129273Y0128333D01*
X0129382Y0128360D01*
X0129489Y0128390D01*
X0129596Y0128424D01*
X0129701Y0128462D01*
X0129804Y0128504D01*
X0129906Y0128549D01*
X0130007Y0128598D01*
X0130105Y0128650D01*
X0130202Y0128706D01*
X0130296Y0128765D01*
X0130389Y0128828D01*
X0130479Y0128894D01*
X0130567Y0128963D01*
X0130652Y0129035D01*
X0130734Y0129111D01*
X0130814Y0129189D01*
X0130891Y0129270D01*
X0130965Y0129353D01*
X0131036Y0129439D01*
X0131104Y0129528D01*
X0131169Y0129619D01*
X0131230Y0129712D01*
X0131288Y0129808D01*
X0131343Y0129905D01*
X0131394Y0130004D01*
X0131441Y0130105D01*
X0131442Y0130105D02*
X0131442Y0130696D01*
X0131442Y0131877D01*
X0135182Y0131089D02*
X0135189Y0130971D01*
X0135193Y0130853D01*
X0135193Y0130735D01*
X0135189Y0130617D01*
X0135182Y0130499D01*
X0133213Y0128333D02*
X0133125Y0128347D01*
X0133038Y0128365D01*
X0132953Y0128387D01*
X0132868Y0128413D01*
X0132784Y0128442D01*
X0132701Y0128474D01*
X0132620Y0128510D01*
X0132541Y0128549D01*
X0132463Y0128592D01*
X0132388Y0128638D01*
X0132314Y0128687D01*
X0132242Y0128739D01*
X0132173Y0128795D01*
X0132106Y0128853D01*
X0132041Y0128914D01*
X0131980Y0128977D01*
X0131921Y0129043D01*
X0131865Y0129112D01*
X0131811Y0129183D01*
X0131761Y0129256D01*
X0131714Y0129331D01*
X0131671Y0129408D01*
X0131630Y0129487D01*
X0131593Y0129568D01*
X0131559Y0129650D01*
X0131529Y0129733D01*
X0131503Y0129818D01*
X0131480Y0129903D01*
X0131461Y0129990D01*
X0131445Y0130077D01*
X0131433Y0130165D01*
X0131425Y0130253D01*
X0131421Y0130342D01*
X0131420Y0130430D01*
X0131423Y0130519D01*
X0131430Y0130607D01*
X0131441Y0130695D01*
X0133213Y0128333D02*
X0133306Y0128347D01*
X0133398Y0128364D01*
X0133490Y0128385D01*
X0133580Y0128410D01*
X0133669Y0128439D01*
X0133757Y0128472D01*
X0133843Y0128508D01*
X0133928Y0128547D01*
X0134012Y0128591D01*
X0134093Y0128637D01*
X0134172Y0128687D01*
X0134249Y0128740D01*
X0134324Y0128797D01*
X0134397Y0128856D01*
X0134467Y0128919D01*
X0134534Y0128984D01*
X0134598Y0129052D01*
X0134660Y0129122D01*
X0134719Y0129196D01*
X0134774Y0129271D01*
X0134826Y0129349D01*
X0134875Y0129429D01*
X0134921Y0129511D01*
X0134963Y0129594D01*
X0135002Y0129680D01*
X0135037Y0129767D01*
X0135068Y0129855D01*
X0135096Y0129945D01*
X0135120Y0130035D01*
X0135140Y0130127D01*
X0135156Y0130219D01*
X0135169Y0130312D01*
X0135177Y0130405D01*
X0135182Y0130499D01*
X0131442Y0133058D02*
X0131442Y0133255D01*
X0127308Y0135814D02*
X0127310Y0135917D01*
X0127316Y0136020D01*
X0127325Y0136123D01*
X0127339Y0136225D01*
X0127356Y0136326D01*
X0127377Y0136427D01*
X0127402Y0136527D01*
X0127430Y0136626D01*
X0127463Y0136724D01*
X0127499Y0136821D01*
X0127538Y0136916D01*
X0127581Y0137010D01*
X0127627Y0137102D01*
X0127677Y0137192D01*
X0127730Y0137280D01*
X0127787Y0137367D01*
X0127847Y0137451D01*
X0127909Y0137532D01*
X0127975Y0137612D01*
X0128044Y0137689D01*
X0128115Y0137763D01*
X0128189Y0137834D01*
X0128266Y0137903D01*
X0128346Y0137969D01*
X0128427Y0138031D01*
X0128511Y0138091D01*
X0128598Y0138148D01*
X0128686Y0138201D01*
X0128776Y0138251D01*
X0128868Y0138297D01*
X0128962Y0138340D01*
X0129057Y0138379D01*
X0129154Y0138415D01*
X0129252Y0138448D01*
X0129351Y0138476D01*
X0129451Y0138501D01*
X0129552Y0138522D01*
X0129653Y0138539D01*
X0129755Y0138553D01*
X0129858Y0138562D01*
X0129961Y0138568D01*
X0130064Y0138570D01*
X0128292Y0134830D02*
X0128151Y0134832D01*
X0128010Y0134838D01*
X0127869Y0134847D01*
X0127729Y0134861D01*
X0127589Y0134879D01*
X0127450Y0134900D01*
X0127311Y0134925D01*
X0127173Y0134954D01*
X0127036Y0134987D01*
X0126899Y0135023D01*
X0126764Y0135063D01*
X0126630Y0135107D01*
X0126497Y0135155D01*
X0126366Y0135206D01*
X0126236Y0135261D01*
X0126108Y0135320D01*
X0125981Y0135381D01*
X0125856Y0135447D01*
X0125733Y0135516D01*
X0125612Y0135588D01*
X0125493Y0135663D01*
X0125376Y0135742D01*
X0125261Y0135824D01*
X0125148Y0135909D01*
X0125038Y0135997D01*
X0124931Y0136088D01*
X0124826Y0136183D01*
X0124723Y0136280D01*
X0124624Y0136379D01*
X0124527Y0136482D01*
X0124432Y0136587D01*
X0124341Y0136694D01*
X0124253Y0136804D01*
X0124168Y0136917D01*
X0124086Y0137032D01*
X0124007Y0137149D01*
X0123932Y0137268D01*
X0123860Y0137389D01*
X0123791Y0137512D01*
X0123725Y0137637D01*
X0123664Y0137764D01*
X0123605Y0137892D01*
X0123550Y0138022D01*
X0123499Y0138153D01*
X0123451Y0138286D01*
X0123407Y0138420D01*
X0123367Y0138555D01*
X0123331Y0138692D01*
X0123298Y0138829D01*
X0123269Y0138967D01*
X0123244Y0139106D01*
X0123223Y0139245D01*
X0123205Y0139385D01*
X0123191Y0139525D01*
X0123182Y0139666D01*
X0123176Y0139807D01*
X0123174Y0139948D01*
X0127307Y0133058D02*
X0127305Y0132923D01*
X0127299Y0132788D01*
X0127290Y0132654D01*
X0127276Y0132520D01*
X0127259Y0132386D01*
X0127238Y0132252D01*
X0127213Y0132120D01*
X0127184Y0131988D01*
X0127152Y0131857D01*
X0127116Y0131727D01*
X0127076Y0131598D01*
X0127032Y0131471D01*
X0126985Y0131344D01*
X0126934Y0131219D01*
X0126880Y0131096D01*
X0126822Y0130974D01*
X0126761Y0130853D01*
X0126696Y0130735D01*
X0126628Y0130619D01*
X0126557Y0130504D01*
X0126483Y0130392D01*
X0126405Y0130281D01*
X0126324Y0130173D01*
X0126240Y0130068D01*
X0126153Y0129964D01*
X0126063Y0129864D01*
X0125971Y0129766D01*
X0125875Y0129670D01*
X0125777Y0129578D01*
X0125677Y0129488D01*
X0125573Y0129401D01*
X0125468Y0129317D01*
X0125360Y0129236D01*
X0125249Y0129158D01*
X0125137Y0129084D01*
X0125022Y0129013D01*
X0124906Y0128945D01*
X0124788Y0128880D01*
X0124667Y0128819D01*
X0124545Y0128761D01*
X0124422Y0128707D01*
X0124297Y0128656D01*
X0124170Y0128609D01*
X0124043Y0128565D01*
X0123914Y0128525D01*
X0123784Y0128489D01*
X0123653Y0128457D01*
X0123521Y0128428D01*
X0123389Y0128403D01*
X0123255Y0128382D01*
X0123121Y0128365D01*
X0122987Y0128351D01*
X0122853Y0128342D01*
X0122718Y0128336D01*
X0122583Y0128334D01*
X0122583Y0132270D02*
X0122692Y0132293D01*
X0122802Y0132312D01*
X0122913Y0132326D01*
X0123024Y0132337D01*
X0123136Y0132344D01*
X0123247Y0132347D01*
X0123359Y0132346D01*
X0123471Y0132341D01*
X0123582Y0132332D01*
X0123693Y0132319D01*
X0123803Y0132302D01*
X0123913Y0132281D01*
X0124022Y0132256D01*
X0124130Y0132227D01*
X0124236Y0132195D01*
X0124342Y0132158D01*
X0124446Y0132118D01*
X0124549Y0132074D01*
X0124650Y0132027D01*
X0124749Y0131976D01*
X0124847Y0131922D01*
X0124942Y0131864D01*
X0125036Y0131802D01*
X0125127Y0131738D01*
X0125215Y0131670D01*
X0125302Y0131599D01*
X0125385Y0131525D01*
X0125466Y0131448D01*
X0125544Y0131368D01*
X0125620Y0131286D01*
X0125692Y0131201D01*
X0125761Y0131113D01*
X0125827Y0131023D01*
X0125890Y0130931D01*
X0125949Y0130836D01*
X0126005Y0130740D01*
X0126058Y0130641D01*
X0126107Y0130541D01*
X0126152Y0130439D01*
X0126194Y0130335D01*
X0126232Y0130230D01*
X0126266Y0130124D01*
X0126297Y0130016D01*
X0126323Y0129908D01*
X0126324Y0129908D02*
X0126343Y0129823D01*
X0126366Y0129738D01*
X0126392Y0129655D01*
X0126422Y0129573D01*
X0126456Y0129492D01*
X0126493Y0129412D01*
X0126533Y0129335D01*
X0126577Y0129259D01*
X0126624Y0129185D01*
X0126675Y0129114D01*
X0126728Y0129044D01*
X0126784Y0128977D01*
X0126844Y0128913D01*
X0126906Y0128851D01*
X0126970Y0128792D01*
X0127037Y0128735D01*
X0127107Y0128682D01*
X0127179Y0128632D01*
X0127253Y0128585D01*
X0127328Y0128541D01*
X0127406Y0128501D01*
X0127486Y0128464D01*
X0127567Y0128431D01*
X0127649Y0128401D01*
X0127732Y0128375D01*
X0127817Y0128352D01*
X0127903Y0128333D01*
X0127989Y0128318D01*
X0128076Y0128307D01*
X0128163Y0128299D01*
X0128250Y0128295D01*
X0128338Y0128296D01*
X0128425Y0128299D01*
X0128513Y0128307D01*
X0128599Y0128319D01*
X0128686Y0128334D01*
X0122584Y0132270D02*
X0122496Y0132256D01*
X0122409Y0132238D01*
X0122324Y0132216D01*
X0122239Y0132190D01*
X0122155Y0132161D01*
X0122072Y0132129D01*
X0121991Y0132093D01*
X0121912Y0132054D01*
X0121834Y0132011D01*
X0121759Y0131965D01*
X0121685Y0131916D01*
X0121613Y0131864D01*
X0121544Y0131808D01*
X0121477Y0131750D01*
X0121412Y0131689D01*
X0121351Y0131626D01*
X0121292Y0131560D01*
X0121236Y0131491D01*
X0121182Y0131420D01*
X0121132Y0131347D01*
X0121085Y0131272D01*
X0121042Y0131195D01*
X0121001Y0131116D01*
X0120964Y0131035D01*
X0120930Y0130953D01*
X0120900Y0130870D01*
X0120874Y0130785D01*
X0120851Y0130700D01*
X0120832Y0130613D01*
X0120816Y0130526D01*
X0120804Y0130438D01*
X0120796Y0130350D01*
X0120792Y0130261D01*
X0120791Y0130173D01*
X0120794Y0130084D01*
X0120801Y0129996D01*
X0120812Y0129908D01*
X0120812Y0129909D02*
X0120818Y0129829D01*
X0120829Y0129750D01*
X0120843Y0129671D01*
X0120861Y0129594D01*
X0120882Y0129517D01*
X0120907Y0129441D01*
X0120936Y0129367D01*
X0120968Y0129294D01*
X0121004Y0129222D01*
X0121043Y0129153D01*
X0121085Y0129085D01*
X0121131Y0129020D01*
X0121179Y0128956D01*
X0121231Y0128895D01*
X0121285Y0128837D01*
X0121342Y0128781D01*
X0121402Y0128728D01*
X0121464Y0128678D01*
X0121528Y0128631D01*
X0121595Y0128587D01*
X0121663Y0128546D01*
X0121734Y0128509D01*
X0121806Y0128475D01*
X0121879Y0128444D01*
X0121955Y0128417D01*
X0122031Y0128394D01*
X0122108Y0128374D01*
X0122186Y0128358D01*
X0122265Y0128346D01*
X0122344Y0128337D01*
X0122424Y0128332D01*
X0122504Y0128331D01*
X0122583Y0128334D01*
X0118725Y0148412D02*
X0118725Y0155105D01*
X0119666Y0161046D02*
X0129890Y0161046D01*
X0130930Y0162585D02*
X0130930Y0167310D01*
X0129552Y0168885D01*
X0119906Y0168885D01*
X0118725Y0167310D01*
X0118725Y0162585D01*
X0118725Y0167310D01*
X0116323Y0173333D02*
X0104197Y0173333D01*
X0100260Y0178451D02*
X0100260Y0188215D01*
X0104197Y0193333D02*
X0116323Y0193333D01*
X0120260Y0188215D02*
X0120260Y0178333D01*
X0105260Y0183333D02*
X0105262Y0183474D01*
X0105268Y0183615D01*
X0105278Y0183755D01*
X0105292Y0183895D01*
X0105310Y0184035D01*
X0105331Y0184174D01*
X0105357Y0184313D01*
X0105386Y0184451D01*
X0105420Y0184587D01*
X0105457Y0184723D01*
X0105498Y0184858D01*
X0105543Y0184992D01*
X0105592Y0185124D01*
X0105644Y0185255D01*
X0105700Y0185384D01*
X0105760Y0185511D01*
X0105823Y0185637D01*
X0105889Y0185761D01*
X0105960Y0185884D01*
X0106033Y0186004D01*
X0106110Y0186122D01*
X0106190Y0186238D01*
X0106274Y0186351D01*
X0106360Y0186462D01*
X0106450Y0186571D01*
X0106543Y0186677D01*
X0106638Y0186780D01*
X0106737Y0186881D01*
X0106838Y0186979D01*
X0106942Y0187074D01*
X0107049Y0187166D01*
X0107158Y0187255D01*
X0107270Y0187340D01*
X0107384Y0187423D01*
X0107500Y0187503D01*
X0107619Y0187579D01*
X0107740Y0187651D01*
X0107862Y0187721D01*
X0107987Y0187786D01*
X0108113Y0187849D01*
X0108241Y0187907D01*
X0108371Y0187962D01*
X0108502Y0188014D01*
X0108635Y0188061D01*
X0108769Y0188105D01*
X0108904Y0188146D01*
X0109040Y0188182D01*
X0109177Y0188214D01*
X0109315Y0188243D01*
X0109453Y0188268D01*
X0109593Y0188288D01*
X0109733Y0188305D01*
X0109873Y0188318D01*
X0110014Y0188327D01*
X0110154Y0188332D01*
X0110295Y0188333D01*
X0110436Y0188330D01*
X0110577Y0188323D01*
X0110717Y0188312D01*
X0110857Y0188297D01*
X0110997Y0188278D01*
X0111136Y0188256D01*
X0111274Y0188229D01*
X0111412Y0188199D01*
X0111548Y0188164D01*
X0111684Y0188126D01*
X0111818Y0188084D01*
X0111952Y0188038D01*
X0112084Y0187989D01*
X0112214Y0187935D01*
X0112343Y0187878D01*
X0112470Y0187818D01*
X0112596Y0187754D01*
X0112719Y0187686D01*
X0112841Y0187615D01*
X0112961Y0187541D01*
X0113078Y0187463D01*
X0113193Y0187382D01*
X0113306Y0187298D01*
X0113417Y0187211D01*
X0113525Y0187120D01*
X0113630Y0187027D01*
X0113733Y0186930D01*
X0113833Y0186831D01*
X0113930Y0186729D01*
X0114024Y0186624D01*
X0114115Y0186517D01*
X0114203Y0186407D01*
X0114288Y0186295D01*
X0114370Y0186180D01*
X0114449Y0186063D01*
X0114524Y0185944D01*
X0114596Y0185823D01*
X0114664Y0185700D01*
X0114729Y0185575D01*
X0114791Y0185448D01*
X0114848Y0185319D01*
X0114903Y0185189D01*
X0114953Y0185058D01*
X0115000Y0184925D01*
X0115043Y0184791D01*
X0115082Y0184655D01*
X0115117Y0184519D01*
X0115149Y0184382D01*
X0115176Y0184244D01*
X0115200Y0184105D01*
X0115220Y0183965D01*
X0115236Y0183825D01*
X0115248Y0183685D01*
X0115256Y0183544D01*
X0115260Y0183403D01*
X0115260Y0183263D01*
X0115256Y0183122D01*
X0115248Y0182981D01*
X0115236Y0182841D01*
X0115220Y0182701D01*
X0115200Y0182561D01*
X0115176Y0182422D01*
X0115149Y0182284D01*
X0115117Y0182147D01*
X0115082Y0182011D01*
X0115043Y0181875D01*
X0115000Y0181741D01*
X0114953Y0181608D01*
X0114903Y0181477D01*
X0114848Y0181347D01*
X0114791Y0181218D01*
X0114729Y0181091D01*
X0114664Y0180966D01*
X0114596Y0180843D01*
X0114524Y0180722D01*
X0114449Y0180603D01*
X0114370Y0180486D01*
X0114288Y0180371D01*
X0114203Y0180259D01*
X0114115Y0180149D01*
X0114024Y0180042D01*
X0113930Y0179937D01*
X0113833Y0179835D01*
X0113733Y0179736D01*
X0113630Y0179639D01*
X0113525Y0179546D01*
X0113417Y0179455D01*
X0113306Y0179368D01*
X0113193Y0179284D01*
X0113078Y0179203D01*
X0112961Y0179125D01*
X0112841Y0179051D01*
X0112719Y0178980D01*
X0112596Y0178912D01*
X0112470Y0178848D01*
X0112343Y0178788D01*
X0112214Y0178731D01*
X0112084Y0178677D01*
X0111952Y0178628D01*
X0111818Y0178582D01*
X0111684Y0178540D01*
X0111548Y0178502D01*
X0111412Y0178467D01*
X0111274Y0178437D01*
X0111136Y0178410D01*
X0110997Y0178388D01*
X0110857Y0178369D01*
X0110717Y0178354D01*
X0110577Y0178343D01*
X0110436Y0178336D01*
X0110295Y0178333D01*
X0110154Y0178334D01*
X0110014Y0178339D01*
X0109873Y0178348D01*
X0109733Y0178361D01*
X0109593Y0178378D01*
X0109453Y0178398D01*
X0109315Y0178423D01*
X0109177Y0178452D01*
X0109040Y0178484D01*
X0108904Y0178520D01*
X0108769Y0178561D01*
X0108635Y0178605D01*
X0108502Y0178652D01*
X0108371Y0178704D01*
X0108241Y0178759D01*
X0108113Y0178817D01*
X0107987Y0178880D01*
X0107862Y0178945D01*
X0107740Y0179015D01*
X0107619Y0179087D01*
X0107500Y0179163D01*
X0107384Y0179243D01*
X0107270Y0179326D01*
X0107158Y0179411D01*
X0107049Y0179500D01*
X0106942Y0179592D01*
X0106838Y0179687D01*
X0106737Y0179785D01*
X0106638Y0179886D01*
X0106543Y0179989D01*
X0106450Y0180095D01*
X0106360Y0180204D01*
X0106274Y0180315D01*
X0106190Y0180428D01*
X0106110Y0180544D01*
X0106033Y0180662D01*
X0105960Y0180782D01*
X0105889Y0180905D01*
X0105823Y0181029D01*
X0105760Y0181155D01*
X0105700Y0181282D01*
X0105644Y0181411D01*
X0105592Y0181542D01*
X0105543Y0181674D01*
X0105498Y0181808D01*
X0105457Y0181943D01*
X0105420Y0182079D01*
X0105386Y0182215D01*
X0105357Y0182353D01*
X0105331Y0182492D01*
X0105310Y0182631D01*
X0105292Y0182771D01*
X0105278Y0182911D01*
X0105268Y0183051D01*
X0105262Y0183192D01*
X0105260Y0183333D01*
X0134619Y0166045D02*
X0139737Y0166045D01*
X0146461Y0164534D02*
X0146461Y0190735D01*
X0147859Y0192133D01*
X0174060Y0192133D01*
X0174060Y0164534D01*
X0146461Y0164534D01*
X0139737Y0151282D02*
X0134619Y0151282D01*
X0131127Y0148412D02*
X0118725Y0148412D01*
X0131127Y0148412D02*
X0131127Y0155105D01*
X0145260Y0192833D02*
X0145262Y0192882D01*
X0145268Y0192930D01*
X0145278Y0192978D01*
X0145292Y0193025D01*
X0145309Y0193071D01*
X0145330Y0193115D01*
X0145355Y0193157D01*
X0145383Y0193197D01*
X0145415Y0193235D01*
X0145449Y0193270D01*
X0145486Y0193302D01*
X0145525Y0193331D01*
X0145567Y0193357D01*
X0145611Y0193379D01*
X0145656Y0193397D01*
X0145703Y0193412D01*
X0145750Y0193423D01*
X0145799Y0193430D01*
X0145848Y0193433D01*
X0145897Y0193432D01*
X0145945Y0193427D01*
X0145994Y0193418D01*
X0146041Y0193405D01*
X0146087Y0193388D01*
X0146131Y0193368D01*
X0146174Y0193344D01*
X0146215Y0193317D01*
X0146253Y0193286D01*
X0146289Y0193253D01*
X0146321Y0193217D01*
X0146351Y0193178D01*
X0146378Y0193137D01*
X0146401Y0193093D01*
X0146420Y0193048D01*
X0146436Y0193002D01*
X0146448Y0192955D01*
X0146456Y0192906D01*
X0146460Y0192857D01*
X0146460Y0192809D01*
X0146456Y0192760D01*
X0146448Y0192711D01*
X0146436Y0192664D01*
X0146420Y0192618D01*
X0146401Y0192573D01*
X0146378Y0192529D01*
X0146351Y0192488D01*
X0146321Y0192449D01*
X0146289Y0192413D01*
X0146253Y0192380D01*
X0146215Y0192349D01*
X0146174Y0192322D01*
X0146131Y0192298D01*
X0146087Y0192278D01*
X0146041Y0192261D01*
X0145994Y0192248D01*
X0145945Y0192239D01*
X0145897Y0192234D01*
X0145848Y0192233D01*
X0145799Y0192236D01*
X0145750Y0192243D01*
X0145703Y0192254D01*
X0145656Y0192269D01*
X0145611Y0192287D01*
X0145567Y0192309D01*
X0145525Y0192335D01*
X0145486Y0192364D01*
X0145449Y0192396D01*
X0145415Y0192431D01*
X0145383Y0192469D01*
X0145355Y0192509D01*
X0145330Y0192551D01*
X0145309Y0192595D01*
X0145292Y0192641D01*
X0145278Y0192688D01*
X0145268Y0192736D01*
X0145262Y0192784D01*
X0145260Y0192833D01*
X0174552Y0131483D02*
X0175339Y0131483D01*
X0175339Y0129318D01*
X0175341Y0129256D01*
X0175347Y0129195D01*
X0175356Y0129134D01*
X0175370Y0129073D01*
X0175387Y0129014D01*
X0175408Y0128956D01*
X0175433Y0128899D01*
X0175461Y0128844D01*
X0175492Y0128791D01*
X0175527Y0128740D01*
X0175565Y0128691D01*
X0175606Y0128644D01*
X0175649Y0128601D01*
X0175696Y0128560D01*
X0175745Y0128522D01*
X0175796Y0128487D01*
X0175849Y0128456D01*
X0175904Y0128428D01*
X0175961Y0128403D01*
X0176019Y0128382D01*
X0176078Y0128365D01*
X0176139Y0128351D01*
X0176200Y0128342D01*
X0176261Y0128336D01*
X0176323Y0128334D01*
X0176520Y0128334D02*
X0176582Y0128336D01*
X0176643Y0128342D01*
X0176704Y0128351D01*
X0176765Y0128365D01*
X0176824Y0128382D01*
X0176882Y0128403D01*
X0176939Y0128428D01*
X0176994Y0128456D01*
X0177047Y0128487D01*
X0177098Y0128522D01*
X0177147Y0128560D01*
X0177194Y0128601D01*
X0177237Y0128644D01*
X0177278Y0128691D01*
X0177316Y0128740D01*
X0177351Y0128791D01*
X0177382Y0128844D01*
X0177410Y0128899D01*
X0177435Y0128956D01*
X0177456Y0129014D01*
X0177473Y0129073D01*
X0177487Y0129134D01*
X0177496Y0129195D01*
X0177502Y0129256D01*
X0177504Y0129318D01*
X0177505Y0129318D02*
X0177505Y0129514D01*
X0177505Y0130499D01*
X0179276Y0132270D02*
X0179360Y0132264D01*
X0179444Y0132254D01*
X0179527Y0132240D01*
X0179609Y0132223D01*
X0179690Y0132202D01*
X0179770Y0132177D01*
X0179850Y0132148D01*
X0179927Y0132117D01*
X0180004Y0132081D01*
X0180078Y0132042D01*
X0180151Y0132000D01*
X0180222Y0131955D01*
X0180291Y0131907D01*
X0180357Y0131855D01*
X0180421Y0131801D01*
X0180483Y0131744D01*
X0180542Y0131684D01*
X0180598Y0131621D01*
X0180651Y0131556D01*
X0180702Y0131489D01*
X0180749Y0131420D01*
X0180793Y0131348D01*
X0180834Y0131275D01*
X0180872Y0131200D01*
X0180906Y0131123D01*
X0180937Y0131045D01*
X0180964Y0130965D01*
X0180987Y0130884D01*
X0181007Y0130803D01*
X0181023Y0130720D01*
X0181036Y0130637D01*
X0181045Y0130554D01*
X0181050Y0130470D01*
X0181051Y0130386D01*
X0181048Y0130302D01*
X0181065Y0130224D01*
X0181078Y0130146D01*
X0181088Y0130067D01*
X0181094Y0129987D01*
X0181096Y0129908D01*
X0181094Y0129829D01*
X0181088Y0129749D01*
X0181078Y0129670D01*
X0181065Y0129592D01*
X0181048Y0129514D01*
X0181026Y0129438D01*
X0181001Y0129362D01*
X0180973Y0129287D01*
X0180940Y0129215D01*
X0180905Y0129143D01*
X0180865Y0129074D01*
X0180823Y0129007D01*
X0180777Y0128941D01*
X0180728Y0128878D01*
X0180676Y0128818D01*
X0180621Y0128760D01*
X0180563Y0128705D01*
X0180503Y0128653D01*
X0180440Y0128604D01*
X0180374Y0128558D01*
X0180307Y0128516D01*
X0180238Y0128476D01*
X0180166Y0128441D01*
X0180094Y0128408D01*
X0180019Y0128380D01*
X0179943Y0128355D01*
X0179867Y0128333D01*
X0179866Y0128334D02*
X0179786Y0128309D01*
X0179705Y0128288D01*
X0179623Y0128271D01*
X0179541Y0128257D01*
X0179457Y0128247D01*
X0179374Y0128241D01*
X0179290Y0128238D01*
X0179206Y0128239D01*
X0179123Y0128244D01*
X0179039Y0128253D01*
X0178957Y0128266D01*
X0178874Y0128282D01*
X0178793Y0128302D01*
X0178713Y0128325D01*
X0178633Y0128352D01*
X0178555Y0128383D01*
X0178479Y0128417D01*
X0178404Y0128454D01*
X0178331Y0128495D01*
X0178259Y0128539D01*
X0178190Y0128586D01*
X0178123Y0128637D01*
X0178058Y0128690D01*
X0177996Y0128746D01*
X0177936Y0128805D01*
X0177879Y0128866D01*
X0177825Y0128930D01*
X0177774Y0128996D01*
X0177726Y0129065D01*
X0177681Y0129135D01*
X0177639Y0129208D01*
X0177600Y0129282D01*
X0177565Y0129358D01*
X0177533Y0129436D01*
X0177505Y0129515D01*
X0177504Y0130499D02*
X0177506Y0130581D01*
X0177512Y0130662D01*
X0177521Y0130744D01*
X0177534Y0130825D01*
X0177551Y0130905D01*
X0177572Y0130984D01*
X0177596Y0131062D01*
X0177624Y0131139D01*
X0177655Y0131215D01*
X0177690Y0131289D01*
X0177728Y0131361D01*
X0177769Y0131432D01*
X0177814Y0131500D01*
X0177862Y0131567D01*
X0177913Y0131631D01*
X0177966Y0131693D01*
X0178023Y0131752D01*
X0178082Y0131809D01*
X0178144Y0131862D01*
X0178208Y0131913D01*
X0178275Y0131961D01*
X0178343Y0132006D01*
X0178414Y0132047D01*
X0178486Y0132085D01*
X0178560Y0132120D01*
X0178636Y0132151D01*
X0178713Y0132179D01*
X0178791Y0132203D01*
X0178870Y0132224D01*
X0178950Y0132241D01*
X0179031Y0132254D01*
X0179113Y0132263D01*
X0179194Y0132269D01*
X0179276Y0132271D01*
X0187347Y0128333D02*
X0187413Y0128335D01*
X0187479Y0128340D01*
X0187545Y0128350D01*
X0187610Y0128363D01*
X0187674Y0128379D01*
X0187737Y0128399D01*
X0187799Y0128423D01*
X0187859Y0128450D01*
X0187918Y0128480D01*
X0187975Y0128514D01*
X0188030Y0128551D01*
X0188083Y0128591D01*
X0188134Y0128633D01*
X0188182Y0128679D01*
X0188228Y0128727D01*
X0188270Y0128778D01*
X0188310Y0128831D01*
X0188347Y0128886D01*
X0188381Y0128943D01*
X0188411Y0129002D01*
X0188438Y0129062D01*
X0188462Y0129124D01*
X0188482Y0129187D01*
X0188498Y0129251D01*
X0188511Y0129316D01*
X0188521Y0129382D01*
X0188526Y0129448D01*
X0188528Y0129514D01*
X0190103Y0128333D02*
X0190169Y0128335D01*
X0190235Y0128340D01*
X0190301Y0128350D01*
X0190366Y0128363D01*
X0190430Y0128379D01*
X0190493Y0128399D01*
X0190555Y0128423D01*
X0190615Y0128450D01*
X0190674Y0128480D01*
X0190731Y0128514D01*
X0190786Y0128551D01*
X0190839Y0128591D01*
X0190890Y0128633D01*
X0190938Y0128679D01*
X0190984Y0128727D01*
X0191026Y0128778D01*
X0191066Y0128831D01*
X0191103Y0128886D01*
X0191137Y0128943D01*
X0191167Y0129002D01*
X0191194Y0129062D01*
X0191218Y0129124D01*
X0191238Y0129187D01*
X0191254Y0129251D01*
X0191267Y0129316D01*
X0191277Y0129382D01*
X0191282Y0129448D01*
X0191284Y0129514D01*
X0191284Y0130696D01*
X0191286Y0130762D01*
X0191291Y0130828D01*
X0191301Y0130894D01*
X0191314Y0130959D01*
X0191330Y0131023D01*
X0191350Y0131086D01*
X0191374Y0131148D01*
X0191401Y0131208D01*
X0191431Y0131267D01*
X0191465Y0131324D01*
X0191502Y0131379D01*
X0191542Y0131432D01*
X0191584Y0131483D01*
X0191630Y0131531D01*
X0191678Y0131577D01*
X0191729Y0131619D01*
X0191782Y0131659D01*
X0191837Y0131696D01*
X0191894Y0131730D01*
X0191953Y0131760D01*
X0192013Y0131787D01*
X0192075Y0131811D01*
X0192138Y0131831D01*
X0192202Y0131847D01*
X0192267Y0131860D01*
X0192333Y0131870D01*
X0192399Y0131875D01*
X0192465Y0131877D01*
X0193056Y0131877D01*
X0193119Y0131880D01*
X0193182Y0131881D01*
X0193245Y0131877D01*
X0193308Y0131870D01*
X0193370Y0131859D01*
X0193432Y0131845D01*
X0193492Y0131827D01*
X0193552Y0131806D01*
X0193610Y0131781D01*
X0193667Y0131753D01*
X0193722Y0131721D01*
X0193774Y0131687D01*
X0193825Y0131649D01*
X0193874Y0131608D01*
X0193920Y0131565D01*
X0193964Y0131519D01*
X0194004Y0131471D01*
X0194042Y0131420D01*
X0194077Y0131368D01*
X0194109Y0131313D01*
X0194138Y0131257D01*
X0194163Y0131199D01*
X0194185Y0131139D01*
X0194203Y0131079D01*
X0194218Y0131017D01*
X0194229Y0130955D01*
X0194237Y0130892D01*
X0194237Y0129318D01*
X0194236Y0129318D02*
X0194225Y0129264D01*
X0194217Y0129209D01*
X0194213Y0129154D01*
X0194212Y0129098D01*
X0194216Y0129043D01*
X0194223Y0128988D01*
X0194234Y0128933D01*
X0194249Y0128880D01*
X0194267Y0128828D01*
X0194289Y0128777D01*
X0194314Y0128727D01*
X0194342Y0128680D01*
X0194374Y0128634D01*
X0194409Y0128591D01*
X0194446Y0128550D01*
X0194487Y0128512D01*
X0194530Y0128477D01*
X0194575Y0128445D01*
X0194622Y0128416D01*
X0194671Y0128390D01*
X0194722Y0128367D01*
X0194774Y0128349D01*
X0194827Y0128333D01*
X0195418Y0128333D01*
X0195477Y0128347D01*
X0195535Y0128364D01*
X0195592Y0128385D01*
X0195648Y0128409D01*
X0195702Y0128437D01*
X0195754Y0128467D01*
X0195805Y0128501D01*
X0195853Y0128538D01*
X0195899Y0128577D01*
X0195942Y0128620D01*
X0195983Y0128664D01*
X0196021Y0128712D01*
X0196056Y0128761D01*
X0196088Y0128813D01*
X0196117Y0128866D01*
X0196143Y0128921D01*
X0196165Y0128977D01*
X0196184Y0129035D01*
X0196200Y0129094D01*
X0196211Y0129153D01*
X0196220Y0129213D01*
X0196224Y0129274D01*
X0196225Y0129334D01*
X0196222Y0129395D01*
X0196216Y0129455D01*
X0196206Y0129515D01*
X0196206Y0129908D02*
X0196203Y0129829D01*
X0196204Y0129749D01*
X0196209Y0129669D01*
X0196218Y0129590D01*
X0196230Y0129511D01*
X0196246Y0129433D01*
X0196266Y0129356D01*
X0196289Y0129280D01*
X0196316Y0129204D01*
X0196347Y0129131D01*
X0196381Y0129059D01*
X0196418Y0128988D01*
X0196459Y0128920D01*
X0196503Y0128853D01*
X0196550Y0128789D01*
X0196600Y0128727D01*
X0196653Y0128667D01*
X0196709Y0128610D01*
X0196767Y0128556D01*
X0196828Y0128504D01*
X0196892Y0128456D01*
X0196957Y0128410D01*
X0197025Y0128368D01*
X0197094Y0128329D01*
X0197166Y0128293D01*
X0197239Y0128261D01*
X0197313Y0128232D01*
X0197389Y0128207D01*
X0197466Y0128186D01*
X0197543Y0128168D01*
X0197622Y0128154D01*
X0197701Y0128143D01*
X0197781Y0128137D01*
X0197780Y0128136D02*
X0198174Y0128136D01*
X0198173Y0128137D02*
X0198253Y0128143D01*
X0198332Y0128154D01*
X0198411Y0128168D01*
X0198488Y0128186D01*
X0198565Y0128207D01*
X0198641Y0128232D01*
X0198715Y0128261D01*
X0198788Y0128293D01*
X0198860Y0128329D01*
X0198929Y0128368D01*
X0198997Y0128410D01*
X0199062Y0128456D01*
X0199126Y0128504D01*
X0199187Y0128556D01*
X0199245Y0128610D01*
X0199301Y0128667D01*
X0199354Y0128727D01*
X0199404Y0128789D01*
X0199451Y0128853D01*
X0199495Y0128920D01*
X0199536Y0128988D01*
X0199573Y0129059D01*
X0199607Y0129131D01*
X0199638Y0129204D01*
X0199665Y0129280D01*
X0199688Y0129356D01*
X0199708Y0129433D01*
X0199724Y0129511D01*
X0199736Y0129590D01*
X0199745Y0129669D01*
X0199750Y0129749D01*
X0199751Y0129829D01*
X0199748Y0129908D01*
X0199749Y0129908D02*
X0199552Y0129908D01*
X0199749Y0129908D02*
X0199749Y0130302D01*
X0199552Y0129908D02*
X0199627Y0129895D01*
X0199703Y0129886D01*
X0199779Y0129881D01*
X0199855Y0129879D01*
X0199931Y0129881D01*
X0200007Y0129888D01*
X0200083Y0129898D01*
X0200158Y0129911D01*
X0200232Y0129929D01*
X0200305Y0129950D01*
X0200378Y0129976D01*
X0200448Y0130004D01*
X0200517Y0130036D01*
X0200585Y0130072D01*
X0200650Y0130111D01*
X0200714Y0130153D01*
X0200775Y0130199D01*
X0200834Y0130248D01*
X0200890Y0130299D01*
X0200944Y0130353D01*
X0200995Y0130410D01*
X0201043Y0130469D01*
X0201088Y0130531D01*
X0201129Y0130595D01*
X0201168Y0130661D01*
X0201203Y0130729D01*
X0201234Y0130798D01*
X0201262Y0130869D01*
X0201286Y0130942D01*
X0201307Y0131015D01*
X0201324Y0131090D01*
X0201323Y0131089D02*
X0201323Y0131680D01*
X0199749Y0129908D02*
X0199659Y0129893D01*
X0199569Y0129882D01*
X0199478Y0129875D01*
X0199387Y0129872D01*
X0199296Y0129873D01*
X0199205Y0129877D01*
X0199114Y0129885D01*
X0199024Y0129897D01*
X0198935Y0129913D01*
X0198846Y0129932D01*
X0198758Y0129955D01*
X0198671Y0129981D01*
X0198585Y0130011D01*
X0198500Y0130045D01*
X0198417Y0130082D01*
X0198336Y0130122D01*
X0198256Y0130166D01*
X0198178Y0130213D01*
X0198102Y0130263D01*
X0198028Y0130317D01*
X0197957Y0130373D01*
X0197888Y0130432D01*
X0197821Y0130494D01*
X0197757Y0130559D01*
X0197696Y0130626D01*
X0197638Y0130696D01*
X0197582Y0130768D01*
X0197530Y0130843D01*
X0197481Y0130919D01*
X0197435Y0130997D01*
X0197392Y0131078D01*
X0197352Y0131160D01*
X0197316Y0131243D01*
X0197284Y0131328D01*
X0197255Y0131414D01*
X0197229Y0131502D01*
X0197208Y0131590D01*
X0197190Y0131679D01*
X0197780Y0131877D02*
X0198174Y0131877D01*
X0198251Y0131875D01*
X0198328Y0131869D01*
X0198405Y0131860D01*
X0198481Y0131847D01*
X0198557Y0131830D01*
X0198631Y0131809D01*
X0198705Y0131785D01*
X0198777Y0131757D01*
X0198847Y0131726D01*
X0198916Y0131691D01*
X0198984Y0131653D01*
X0199049Y0131612D01*
X0199112Y0131567D01*
X0199173Y0131519D01*
X0199232Y0131469D01*
X0199288Y0131416D01*
X0199341Y0131360D01*
X0199391Y0131301D01*
X0199439Y0131240D01*
X0199484Y0131177D01*
X0199525Y0131112D01*
X0199563Y0131044D01*
X0199598Y0130975D01*
X0199629Y0130905D01*
X0199657Y0130833D01*
X0199681Y0130759D01*
X0199702Y0130685D01*
X0199719Y0130609D01*
X0199732Y0130533D01*
X0199741Y0130456D01*
X0199747Y0130379D01*
X0199749Y0130302D01*
X0197780Y0131877D02*
X0197698Y0131866D01*
X0197617Y0131851D01*
X0197537Y0131833D01*
X0197458Y0131811D01*
X0197380Y0131785D01*
X0197303Y0131756D01*
X0197227Y0131723D01*
X0197153Y0131686D01*
X0197081Y0131647D01*
X0197011Y0131604D01*
X0196943Y0131557D01*
X0196877Y0131508D01*
X0196813Y0131456D01*
X0196752Y0131401D01*
X0196693Y0131343D01*
X0196638Y0131282D01*
X0196585Y0131219D01*
X0196535Y0131153D01*
X0196488Y0131086D01*
X0196444Y0131016D01*
X0196404Y0130944D01*
X0196367Y0130870D01*
X0196333Y0130795D01*
X0196303Y0130719D01*
X0196276Y0130641D01*
X0196253Y0130562D01*
X0196234Y0130481D01*
X0196219Y0130401D01*
X0196207Y0130319D01*
X0196199Y0130237D01*
X0196195Y0130155D01*
X0196194Y0130072D01*
X0196198Y0129990D01*
X0196205Y0129908D01*
X0191284Y0129514D02*
X0191284Y0132270D01*
X0188528Y0129908D02*
X0188530Y0129831D01*
X0188536Y0129754D01*
X0188545Y0129677D01*
X0188558Y0129601D01*
X0188575Y0129525D01*
X0188596Y0129451D01*
X0188620Y0129377D01*
X0188648Y0129305D01*
X0188679Y0129235D01*
X0188714Y0129166D01*
X0188752Y0129098D01*
X0188793Y0129033D01*
X0188838Y0128970D01*
X0188886Y0128909D01*
X0188936Y0128850D01*
X0188989Y0128794D01*
X0189045Y0128741D01*
X0189104Y0128691D01*
X0189165Y0128643D01*
X0189228Y0128598D01*
X0189293Y0128557D01*
X0189361Y0128519D01*
X0189430Y0128484D01*
X0189500Y0128453D01*
X0189572Y0128425D01*
X0189646Y0128401D01*
X0189720Y0128380D01*
X0189796Y0128363D01*
X0189872Y0128350D01*
X0189949Y0128341D01*
X0190026Y0128335D01*
X0190103Y0128333D01*
D14*
X0191756Y0154711D03*
X0105142Y0162585D03*
D15*
X0112896Y0162585D02*
X0113136Y0162585D01*
X0187699Y0174396D02*
X0187940Y0174396D01*
X0195573Y0205892D02*
X0195814Y0205892D01*
M02*
