G75*
%MOIN*%
%OFA0B0*%
%FSLAX25Y25*%
%IPPOS*%
%LPD*%
%AMOC8*
5,1,8,0,0,1.08239X$1,22.5*
%
%ADD10R,0.05000X0.02200*%
%ADD11R,0.02200X0.05000*%
%ADD12C,0.01181*%
%ADD13R,0.03937X0.04331*%
%ADD14R,0.09843X0.04724*%
%ADD15C,0.01772*%
%ADD16R,0.03937X0.11811*%
%ADD17R,0.06000X0.03000*%
D10*
X0143360Y0167310D03*
X0143360Y0170459D03*
X0143360Y0173609D03*
X0143360Y0176759D03*
X0143360Y0179908D03*
X0143360Y0183058D03*
X0143360Y0186207D03*
X0143360Y0189357D03*
X0177160Y0189357D03*
X0177160Y0186207D03*
X0177160Y0183058D03*
X0177160Y0179908D03*
X0177160Y0176759D03*
X0177160Y0173609D03*
X0177160Y0170459D03*
X0177160Y0167310D03*
D11*
X0171284Y0161433D03*
X0168134Y0161433D03*
X0164985Y0161433D03*
X0161835Y0161433D03*
X0158686Y0161433D03*
X0155536Y0161433D03*
X0152386Y0161433D03*
X0149237Y0161433D03*
X0149237Y0195233D03*
X0152386Y0195233D03*
X0155536Y0195233D03*
X0158686Y0195233D03*
X0161835Y0195233D03*
X0164985Y0195233D03*
X0168134Y0195233D03*
X0171284Y0195233D03*
D12*
X0190378Y0147731D02*
X0193134Y0147731D01*
X0193134Y0144975D01*
X0190378Y0144975D01*
X0190378Y0147731D01*
X0190378Y0146155D02*
X0193134Y0146155D01*
X0193134Y0147335D02*
X0190378Y0147335D01*
X0190378Y0140826D02*
X0193134Y0140826D01*
X0193134Y0138070D01*
X0190378Y0138070D01*
X0190378Y0140826D01*
X0190378Y0139250D02*
X0193134Y0139250D01*
X0193134Y0140430D02*
X0190378Y0140430D01*
D13*
X0191756Y0151365D03*
X0191756Y0158058D03*
X0187819Y0171050D03*
X0187819Y0177743D03*
X0195693Y0202546D03*
X0195693Y0209239D03*
X0113016Y0165932D03*
X0113016Y0159239D03*
X0105142Y0159239D03*
X0105142Y0165932D03*
D14*
X0124827Y0152152D03*
X0124827Y0165144D03*
D15*
X0134274Y0163373D02*
X0140002Y0163373D01*
X0140002Y0158648D02*
X0134274Y0158648D01*
X0134274Y0153924D02*
X0140002Y0153924D01*
D16*
X0135260Y0205892D03*
X0145260Y0205892D03*
X0155260Y0205892D03*
X0165260Y0205892D03*
X0175260Y0205892D03*
X0185260Y0205892D03*
D17*
X0121260Y0190833D03*
X0121260Y0175833D03*
X0099260Y0175833D03*
X0099260Y0190833D03*
M02*
